<svg xmlns="http://www.w3.org/2000/svg" xmlns:xlink="http://www.w3.org/1999/xlink" width="1440" height="707" fill="none" xmlns:v="https://vecta.io/nano"><style><![CDATA[.B{fill:#263238}.C{fill:#fff}.D{fill:#000}.E{fill:#855eff}.F{opacity:.2}.G{opacity:.5}.H{opacity:.1}.I{fill:#cb7a63}.J{stroke:#fff}.K{stroke-miterlimit:10}.L{opacity:.3}.M{fill:#f7f7f7}.N{fill:#f7978d}.O{fill:#ff5652}.P{fill:#dd8c6a}.Q{fill:#ffb573}]]></style><mask id="A" maskUnits="userSpaceOnUse" x="0" y="-3" width="1440" height="710" mask-type="alpha"><path fill="#d9d9d9" d="M0-3h1440v710H0z"/></mask><g mask="url(#A)"><path d="M1440 698V-3H0v701h1440z" fill="url(#C)"/><g clip-path="url(#D)"><g style="mix-blend-mode:soft-light" class="J K"><path d="M330.667-618.937s177.931 406.394-78.285 917.063C-3.834 808.822 361.177 1186.24 851.743 1189.25"/></g><g style="mix-blend-mode:soft-light" class="J K"><path d="M449.428-495.546S631.642-226.291 469.812 87.83 67.313 751.423 728.17 1066.92"/></g><g style="mix-blend-mode:soft-light" class="J K"><path d="M538.473 1543.19c-6.795-6.79-679.813-230.94-492.285-707.083 187.528-476.114 44.47-690.878-357.792-951.725"/></g><g style="mix-blend-mode:soft-light" class="J K"><path d="M1800.22-788.543s13.51 443.435-414.71 821.671-230.36 864.582 223.7 1050.392"/></g><g style="mix-blend-mode:soft-light" class="J K"><path d="M1904.34-565.557s68.63 317.797-198.69 548.874-620.98 465.564-125.5 1004.788"/></g><g style="mix-blend-mode:soft-light" class="J K"><path d="M1370.1 1059.25c-3.78-8.86-660.226-426.459-308.65-798.271s298.97-624.409 23.06-1016.5"/></g><g clip-path="url(#E)" class="C"><use xlink:href="#H"/><path d="M1149.37 385.501c1.51 0 2.74-1.231 2.74-2.75a2.75 2.75 0 0 0-2.74-2.751c-1.51 0-2.74 1.231-2.74 2.751s1.23 2.75 2.74 2.75zm33.63 0c1.51 0 2.74-1.231 2.74-2.75A2.75 2.75 0 0 0 1183 380c-1.51 0-2.74 1.231-2.74 2.751s1.23 2.75 2.74 2.75zm33.63 0c1.51 0 2.74-1.231 2.74-2.75a2.75 2.75 0 0 0-2.74-2.751c-1.51 0-2.74 1.231-2.74 2.751s1.23 2.75 2.74 2.75zm36.37-2.75c0 1.523-1.22 2.75-2.74 2.75-1.51 0-2.74-1.227-2.74-2.75s1.23-2.751 2.74-2.751c1.52 0 2.74 1.227 2.74 2.751z"/><use xlink:href="#I"/><path d="M1149.37 415.12c1.51 0 2.74-1.231 2.74-2.75a2.75 2.75 0 0 0-2.74-2.751 2.75 2.75 0 0 0-2.74 2.751c0 1.519 1.23 2.75 2.74 2.75zm33.63 0c1.51 0 2.74-1.231 2.74-2.75a2.75 2.75 0 0 0-2.74-2.751 2.75 2.75 0 0 0-2.74 2.751c0 1.519 1.23 2.75 2.74 2.75zm33.63 0c1.51 0 2.74-1.231 2.74-2.75a2.75 2.75 0 0 0-2.74-2.751 2.75 2.75 0 0 0-2.74 2.751c0 1.519 1.23 2.75 2.74 2.75z"/><use xlink:href="#J"/><path d="M1115.74 444.739c1.51 0 2.74-1.231 2.74-2.75a2.75 2.75 0 0 0-2.74-2.751 2.75 2.75 0 0 0-2.74 2.751c0 1.519 1.23 2.75 2.74 2.75zm33.63 0c1.51 0 2.74-1.231 2.74-2.75a2.75 2.75 0 0 0-2.74-2.751 2.75 2.75 0 0 0-2.74 2.751c0 1.519 1.23 2.75 2.74 2.75zm33.63 0c1.51 0 2.74-1.231 2.74-2.75a2.75 2.75 0 0 0-2.74-2.751 2.75 2.75 0 0 0-2.74 2.751c0 1.519 1.23 2.75 2.74 2.75zm33.63 0c1.51 0 2.74-1.231 2.74-2.75a2.75 2.75 0 0 0-2.74-2.751 2.75 2.75 0 0 0-2.74 2.751c0 1.519 1.23 2.75 2.74 2.75zm36.37-2.75c0 1.523-1.22 2.75-2.74 2.75-1.51 0-2.74-1.227-2.74-2.75s1.23-2.751 2.74-2.751a2.74 2.74 0 0 1 2.74 2.751zm-137.26 32.392c1.51 0 2.74-1.231 2.74-2.751s-1.23-2.75-2.74-2.75-2.74 1.231-2.74 2.75a2.75 2.75 0 0 0 2.74 2.751z"/><use xlink:href="#K"/><path d="M1183 474.381a2.75 2.75 0 0 0 2.74-2.751c0-1.519-1.23-2.75-2.74-2.75s-2.74 1.231-2.74 2.75a2.75 2.75 0 0 0 2.74 2.751zm33.63 0a2.75 2.75 0 0 0 2.74-2.751c0-1.519-1.23-2.75-2.74-2.75s-2.74 1.231-2.74 2.75a2.75 2.75 0 0 0 2.74 2.751zm36.37-2.751a2.74 2.74 0 0 1-2.74 2.751c-1.51 0-2.74-1.228-2.74-2.751s1.23-2.75 2.74-2.75c1.52 0 2.74 1.227 2.74 2.75zm-134.55 29.619c0 1.523-1.22 2.751-2.73 2.751a2.74 2.74 0 0 1-2.74-2.751c0-1.523 1.22-2.75 2.74-2.75 1.51 0 2.73 1.227 2.73 2.75z"/><use xlink:href="#L"/><path d="M1185.72 501.249c0 1.524-1.23 2.751-2.74 2.751-1.52 0-2.74-1.227-2.74-2.751s1.22-2.75 2.74-2.75c1.51 0 2.74 1.227 2.74 2.75zm33.65 0c0 1.524-1.22 2.751-2.74 2.751s-2.74-1.227-2.74-2.751 1.22-2.75 2.74-2.75 2.74 1.227 2.74 2.75zm33.63 0c0 1.524-1.22 2.751-2.74 2.751-1.51 0-2.74-1.227-2.74-2.751s1.23-2.75 2.74-2.75c1.52 0 2.74 1.227 2.74 2.75z"/></g><g clip-path="url(#F)" class="C"><use xlink:href="#M"/><use xlink:href="#N"/><path d="M254 410.105a1.56 1.56 0 0 0 1.565-1.552 1.56 1.56 0 0 0-3.13 0 1.56 1.56 0 0 0 1.565 1.552z"/><use xlink:href="#O"/><use xlink:href="#P"/><use xlink:href="#Q"/><use xlink:href="#R"/><path d="M254 426.826a1.56 1.56 0 0 0 1.565-1.553 1.56 1.56 0 0 0-3.13 0 1.56 1.56 0 0 0 1.565 1.553z"/><use xlink:href="#S"/><use xlink:href="#T"/><path d="M215.565 443.546a1.56 1.56 0 0 0 1.565-1.552 1.565 1.565 0 0 0-3.13 0 1.56 1.56 0 0 0 1.565 1.552zm19.217 0a1.56 1.56 0 0 0 1.565-1.552 1.564 1.564 0 0 0-3.129 0c0 .857.7 1.552 1.564 1.552zm19.218 0a1.56 1.56 0 0 0 1.565-1.552 1.565 1.565 0 0 0-3.13 0 1.56 1.56 0 0 0 1.565 1.552zm19.218 0c.864 0 1.564-.695 1.564-1.552a1.565 1.565 0 0 0-3.129 0 1.56 1.56 0 0 0 1.565 1.552zM294 441.994c0 .859-.698 1.552-1.565 1.552s-1.565-.693-1.565-1.552.699-1.553 1.565-1.553 1.565.693 1.565 1.553zm-78.435 18.286a1.56 1.56 0 0 0 1.565-1.553 1.565 1.565 0 0 0-3.13 0 1.56 1.56 0 0 0 1.565 1.553zm19.217 0a1.56 1.56 0 0 0 1.565-1.553 1.564 1.564 0 0 0-3.129 0 1.56 1.56 0 0 0 1.564 1.553zm19.218 0a1.56 1.56 0 0 0 1.565-1.553 1.565 1.565 0 0 0-3.13 0A1.56 1.56 0 0 0 254 460.28zm19.218 0a1.56 1.56 0 0 0 1.564-1.553 1.565 1.565 0 0 0-3.129 0 1.56 1.56 0 0 0 1.565 1.553zM294 458.727c0 .86-.698 1.553-1.565 1.553s-1.565-.693-1.565-1.553.699-1.553 1.565-1.553 1.565.693 1.565 1.553zm-76.883 16.72c0 .86-.699 1.553-1.565 1.553s-1.565-.693-1.565-1.553.698-1.552 1.565-1.552 1.565.693 1.565 1.552zm19.217 0c0 .86-.698 1.553-1.565 1.553s-1.564-.693-1.564-1.553.698-1.552 1.564-1.552 1.565.693 1.565 1.552z"/><use xlink:href="#U"/><path d="M274.782 475.447c0 .86-.698 1.553-1.564 1.553s-1.565-.693-1.565-1.553.698-1.552 1.565-1.552 1.564.693 1.564 1.552zm19.218 0c0 .86-.698 1.553-1.565 1.553s-1.565-.693-1.565-1.553.699-1.552 1.565-1.552 1.565.693 1.565 1.552z"/></g></g><g filter="url(#B)" class="C"><ellipse cx="720" cy="751" rx="839" ry="144"/></g><path d="M677 697c167.895 0 304-10.745 304-24s-136.105-24-304-24-304 10.745-304 24 136.105 24 304 24z" fill="#f5f5f5" fill-opacity=".6"/><g clip-path="url(#G)"><path d="M813.154 664.85c0-.15 0-.282-.113-.433s-.113-.433-.189-.658l-.226-.622-.244-.545-23.674-52.379-4.162-9.203-3.277-7.227h-72.676l1.242 7.227 1.601 9.203 8.306 47.993c0 .17 0 .339.075.509v.489.621l-.151.433-.131.527c-.019.132-.076.245-.113.357v.207a2.82 2.82 0 0 1-.208.415 3.57 3.57 0 0 1-.263.451l-.076.113-.263.32a3.73 3.73 0 0 1-.358.414c-.226.226-.471.433-.716.621a4.56 4.56 0 0 1-.659.395c-.151.095-.301.17-.471.226-.169.076-.339.132-.508.189h-.076a2.11 2.11 0 0 1-.47.112c-.396.076-.791.132-1.187.113h-31.96c-.301 0-.602.038-.904.132l-.565.245c-.433.244-.809.564-1.092.978-.113.17-.207.339-.282.527a2.93 2.93 0 0 0-.245 1.205v3.425a2.93 2.93 0 0 0 .245 1.205c.075.188.169.357.282.527.283.414.659.734 1.092.979a7.41 7.41 0 0 0 .565.244c.283.094.603.132.904.132H810.14c.66 0 1.319-.207 1.865-.583a2.12 2.12 0 0 0 .49-.415c.15-.15.301-.319.414-.489s.207-.357.301-.546c.17-.433.264-.884.264-1.336v-3.557a11.93 11.93 0 0 0-.301-2.579l-.019.038z" class="B"/><path d="M679.119 668.031v3.444a3.08 3.08 0 0 0 3.051 3.087h127.952c1.845 0 3.333-1.487 3.352-3.332v-3.576c0-.941-.113-1.882-.32-2.804-.189-.809-.452-1.581-.772-2.334l-31.132-68.79h-72.658l11.15 64.424a5.81 5.81 0 0 1 .094 1.148 5.8 5.8 0 0 1-5.838 5.684h-31.81c-1.694 0-3.069 1.355-3.088 3.049h.019z" class="C F"/><path d="M816.487 662.516l-31.112-68.809h-4.124l31.112 68.809c.734 1.6 1.111 3.35 1.111 5.12v3.557a3.36 3.36 0 0 1-3.352 3.35h4.124c1.846 0 3.334-1.487 3.334-3.331v-3.576c0-1.77-.377-3.501-1.093-5.12z" class="B"/><path d="M781.269 593.726h-72.677l2.863 16.45h77.235l-7.421-16.45z" class="D L"/><path d="M924.496 365.731l-17.44 199.67-2.109 24.204a12.61 12.61 0 0 1-12.317 11.33H582.544c-5.65.094-10.302-4.404-10.396-10.051 0-.433 0-.847.057-1.279l2.128-24.204 17.439-199.67a12.61 12.61 0 0 1 12.317-11.33h310.03c2.429-.019 4.802.79 6.704 2.334.264.207.49.433.716.677.697.697 1.3 1.487 1.752 2.372a9.35 9.35 0 0 1 .772 1.844c.414 1.318.565 2.71.433 4.103z" class="B"/><use xlink:href="#V" class="E"/><use xlink:href="#V" opacity=".6" class="C"/><path d="M896.095 558.569H586.479c-3.051.056-5.575-2.371-5.631-5.439 0-.226 0-.471.037-.697l16.197-185.027c.339-3.463 3.239-6.098 6.704-6.154h309.597c3.051-.057 5.575 2.371 5.631 5.439 0 .245 0 .489-.037.715L902.78 552.433c-.358 3.445-3.22 6.08-6.685 6.136z" class="E"/><use xlink:href="#W" class="B"/><g class="F C"><use xlink:href="#W" class="F"/></g><g class="H C"><path d="M702.396 361.252h-11.902l-41.96 197.317h11.902l41.96-197.317zm-65.915 197.317l41.979-197.317h-44.748l-41.979 197.317h44.748z" class="H"/></g><path d="M791.364 668.068v3.275c0 1.769-1.431 3.219-3.221 3.237H682.207a3.09 3.09 0 0 1-3.088-3.086v-3.426a3.09 3.09 0 0 1 3.088-3.086h31.828a6.21 6.21 0 0 0 1.187-.113h72.94c1.771 0 3.202 1.449 3.202 3.218v-.019z" class="C F"/><path d="M813.154 664.85h-97.895a5.86 5.86 0 0 0 4.633-5.552h90.813l2.449 5.552z" class="D F"/><path d="M905.756 393.831H756.749V565.382H905.756V393.831Z" class="D L"/><path d="M897.903 375.725H749.178V557.891H897.903V375.725Z" class="C"/><path d="M897.903 375.725H749.178V386.49H897.903V375.725Z" class="B"/><path d="M897.903 386.49h-107.5v171.383h107.5V386.49z" class="D H"/><path d="M825.885 390.593h-30.19v34.894h30.19v-34.894zm68.402 0h-62.639v14.361h62.639v-14.361zm0 20.534h-62.639v77.485h62.639v-77.485zm0 83.64h-62.639v57.986h62.639v-57.986z" class="D H"/><path d="M831.648 438.831h-41.584v13.344h41.584v-13.344zm-40.887-27.704h-41.583v13.344h41.583v-13.344z" class="E"/><path d="M894.287 507.471h-62.639v6.926h62.639v-6.926z" class="D"/><path d="M837.938 396.409l1.3-2.635 1.299 2.635 2.919.414-2.109 2.07.489 2.899-2.598-1.374-2.599 1.374.508-2.899-2.128-2.051 2.919-.433zm11.865 0l1.299-2.635 1.319 2.635 2.9.414-2.109 2.07.508 2.899-2.618-1.374-2.599 1.374.49-2.899-2.109-2.051 2.919-.433zm11.865 0l1.299-2.635 1.3 2.635 2.9.414-2.091 2.07.509 2.899-2.618-1.374-2.599 1.374.49-2.899-2.109-2.051 2.919-.433z" class="E"/><path d="M873.514 396.409l1.299-2.635 1.319 2.635 2.919.414-2.11 2.07.49 2.899-2.599-1.374-2.599 1.374.49-2.899-2.11-2.051 2.901-.433zm11.865 0l1.299-2.635 1.318 2.635 2.901.414-2.091 2.07.49 2.899-2.618-1.374-2.599 1.374.509-2.899-2.11-2.051 2.901-.433z" class="D"/><path d="M860.745 417.959h-24.634v1.336h24.634v-1.336z" class="B"/><use xlink:href="#X" class="B"/><path d="M855.547 439.584h-19.436v1.336h19.436v-1.336zm0 10.088h-19.436v1.336h19.436v-1.336zm0 10.069h-19.436v1.336h19.436v-1.336zm0 10.088h-19.436v1.336h19.436v-1.336zm0 10.088h-19.436v1.336h19.436v-1.336z" class="B"/><use xlink:href="#Y" class="B"/><path d="M877.676 439.584H858.24v1.336h19.436v-1.336zm0 10.088H858.24v1.336h19.436v-1.336zm0 10.069H858.24v1.336h19.436v-1.336zm0 10.088H858.24v1.336h19.436v-1.336zm0 10.088H858.24v1.336h19.436v-1.336zm0-58.119h-41.565v1.337h41.565v-1.337zm0 79.594h-41.565v1.336h41.565v-1.336z" class="B"/><use xlink:href="#Z" class="B"/><path d="M825.885 458.856h-30.19v1.337h30.19v-1.337zm0 11.236h-30.19v1.337h30.19v-1.337zm0 11.218h-30.19v1.336h30.19v-1.336zm0 11.217h-30.19v1.336h30.19v-1.336zm0 11.236h-30.19v1.336h30.19v-1.336zm0 11.217h-30.19v1.336h30.19v-1.336zm0 11.236h-30.19v1.336h30.19v-1.336zm0 11.217h-30.19v1.336h30.19v-1.336zM810.8 433.825h-15.105v1.336H810.8v-1.336zm-25.237-40.728h-31.187v1.336h31.187v-1.336zm0 8.657h-31.187v1.336h31.187v-1.336zm0 32.071h-31.187v1.336h31.187v-1.336z" class="B"/><path d="M795.752 425.318v-4.254c9.454-3.369 19.756-3.482 29.285-.301l.904.301v4.254h-30.189z" class="C"/><path d="M809.349 424.17c2.392-.283 4.577-1.468 6.084-3.35a1.65 1.65 0 0 0-.17-2.071c-2.147-2.54-2.542-8.168-2.505-11.499l-2.41 3.086-3.277 4.216c.226.527.433 1.054.621 1.581a6.09 6.09 0 0 1 .283 1.186c.282 1.506-.396 3.03-1.695 3.821-.735.489-.942 1.486-.452 2.22.188.283.452.49.753.621a5.83 5.83 0 0 0 2.787.17l-.019.019z" class="N"/><path d="M807.052 414.571l.621 1.581c.132.376.226.772.283 1.186 1.657-.81 2.787-2.409 2.957-4.254a7.18 7.18 0 0 0-.283-1.543l-3.559 3.03h-.019z" class="D F"/><path d="M804.039 406.798c-.509.866-1.62 1.167-2.486.678-.283-.17-.509-.396-.678-.678 1.148-2.39.282-2.616.207-4.404-.245-2.108.715-4.159 2.448-5.364h1.846c6.61 1.374-1.337 9.749-1.337 9.749v.019z" class="B"/><path d="M814.66 401.095a6.51 6.51 0 0 0-7.891-4.761c-5.141 1.129-7.288 8.168-7.119 12.685a6.48 6.48 0 0 0 1.187 3.632c2.053 2.899 6.064 3.557 8.964 1.506 2.976-2.07 3.485-4.931 4.765-9.712.302-1.091.339-2.239.076-3.35h.018z" class="N"/><path d="M801.91 409.414a22.48 22.48 0 0 1 5.01-.433c-.301 1.412-1.582 2.391-3.013 2.278a1.86 1.86 0 0 1-1.978-1.675s0-.113-.019-.17z" class="B"/><path d="M804.735 410.261c-.734-.038-1.45.188-2.034.64.358.245.773.358 1.206.339a3.06 3.06 0 0 0 2.034-.64c-.358-.245-.772-.358-1.187-.339h-.019z" class="O"/><path d="M802.08 409.377a.79.79 0 0 0 .621.583c1.093-.019 2.185-.151 3.258-.376.358-.057.66-.302.791-.622-1.563 0-3.126.151-4.67.415z" class="C"/><path d="M812.89 410.769s-2.128-4.818-1.959-6.399c.095-1.92 1.338-3.576 3.145-4.216l1.79.377c7.815 3.237-2.976 10.219-2.976 10.219v.019z" class="B"/><path d="M803.097 407.946c-.678.057-1.318-.188-1.789-.677a15.72 15.72 0 0 0 2.58-2.993l-.772 3.651-.019.019z" class="O"/><path d="M814.547 405.631c-1.243-.188-2.542 1.336-3.088 2.447s-.189 2.409 1.111 2.127a4.59 4.59 0 0 0 2.561-1.788c.791-1.13.622-2.598-.584-2.767v-.019z" class="N"/><path d="M806.732 404.182c-.264 0-.547.282-.622.64s.075.715.339.753.49-.245.603-.621-.076-.659-.32-.772zm-4.426-.979c-.264 0-.527.226-.622.621s.076.753.321.791.527-.245.621-.64-.075-.734-.32-.772zm.979-1.524s-.15.037-.207 0c-.584-.188-1.224-.113-1.733.226-.094.094-.226.094-.32 0-.075-.094-.075-.245 0-.339.641-.433 1.432-.546 2.166-.301.113.037.188.169.151.301 0 .038 0 .075-.038.113h-.019zm4.803 1.92s-.151-.038-.208-.095c-.339-.508-.885-.828-1.487-.884-.132 0-.226-.094-.245-.207 0-.132.113-.226.226-.245.772.038 1.469.433 1.883 1.073.075.094.075.245 0 .339-.056.037-.113.037-.169.019zm-5.82-4.009a7.13 7.13 0 0 1-.226-2.673c.283-.903.923-1.656 1.789-2.051 1.338-.433 2.807-.433 4.144 0 .32.056.64.15.922.32.302.169.49.47.49.809a.93.93 0 0 1-.584.753c-.301.15-2.674.715-3.747 1.091-1.055.339-1.997.941-2.769 1.751h-.019z" class="B"/><path d="M817.372 396.992c1.771 1.657 2.354 4.235 1.45 6.494l-1.243 2.258-3.333-2.277a7.32 7.32 0 0 1-3.333-3.727c-.697-1.731-2.543-2.71-4.389-2.333-.452.094-1.092.188-1.337-.245s.471-1.336.98-1.732c1.996-1.769 5.687-2.729 11.205 1.562z" class="B"/><path d="M810.856 399.514c-1.243-2.145-2.806-2.352-4.878-2.032.038-.527.264-.998.678-1.336 1.639-1.337 3.861 1.806 4.219 3.368h-.019z" class="D F"/><path d="M805.056 397.143c-.17.169-.283.395-.339.621-.321 1.205-.113 2.484.527 3.557-.528-.583-.923-1.298-1.111-2.07-.17-.471-.245-.979-.264-1.468 0-.508.207-.979.565-1.336.358-.339.885-.452 1.337-.264.264.132.716.64.396.885s-.716-.32-1.149.113l.038-.038z" class="B"/><path d="M802.08 357.055v135.961H653.091V321.465h141.154v35.59h7.835z" class="D L"/><path d="M794.245 303.34H645.521V485.507H794.245V303.34Z" class="C"/><path d="M794.245 303.34H645.521v10.766h148.724V303.34z" class="B"/><path d="M794.264 314.106H686.765V485.488H794.264V314.106Z" class="D H"/><path d="M722.228 318.209h-30.19v34.893h30.19v-34.893zm68.401 0h-62.638v14.36h62.638v-14.36zm0 20.533h-62.638v77.485h62.638v-77.485zm0 83.64h-62.638v57.986h62.638v-57.986z" class="D H"/><path d="M727.991 366.465h-41.584v13.344h41.584v-13.344zm-40.887-27.723h-41.583v13.344h41.583v-13.344z" class="E"/><path d="M790.629 435.086h-62.638v6.926h62.638v-6.926z" class="D"/><path d="M734.281 324.024l1.299-2.635 1.3 2.635 2.919.433-2.109 2.052.508 2.898-2.618-1.374-2.599 1.393.509-2.917-2.109-2.052 2.9-.433zm11.865 0l1.299-2.635 1.318 2.635 2.901.433-2.11 2.052.509 2.898-2.618-1.374-2.599 1.393.509-2.917-2.128-2.052 2.919-.433zm11.864 0l1.3-2.635 1.299 2.635 2.92.433-2.11 2.052.509 2.898-2.618-1.374-2.599 1.393.49-2.917-2.11-2.052 2.919-.433z" class="E"/><path d="M769.875 324.024l1.3-2.635 1.299 2.635 2.919.433-2.109 2.052.509 2.898-2.618-1.374-2.599 1.393.49-2.917-2.11-2.052 2.919-.433zm11.846 0l1.319-2.635 1.299 2.635 2.919.433-2.109 2.052.49 2.898-2.599-1.374-2.618 1.393.508-2.917-2.109-2.052 2.9-.433z" class="D"/><path d="M757.088 345.574h-24.634v1.336h24.634v-1.336zm-5.198 11.556h-19.436v1.336h19.436v-1.336zm0 10.088h-19.436v1.336h19.436v-1.336zm0 10.069h-19.436v1.336h19.436v-1.336zm0 10.088h-19.436v1.336h19.436v-1.336zm0 10.088h-19.436v1.336h19.436v-1.336zm0 10.088h-19.436v1.336h19.436v-1.336zm22.129-50.421h-19.436v1.336h19.436v-1.336zm0 10.088h-19.436v1.336h19.436v-1.336zm0 10.069h-19.436v1.336h19.436v-1.336zm0 10.088h-19.436v1.336h19.436v-1.336zm0 10.088h-19.436v1.336h19.436v-1.336zm0 10.088h-19.436v1.336h19.436v-1.336zm0-58.119h-41.565v1.337h41.565v-1.337zm0 79.593h-41.565v1.337h41.565v-1.337zm-51.791-71.895h-30.19v1.336h30.19v-1.336zm0 29.342h-30.19v1.336h30.19v-1.336zm0 11.236h-30.19v1.336h30.19v-1.336zm0 11.236h-30.19v1.336h30.19v-1.336zm0 11.217h-30.19v1.336h30.19v-1.336zm0 11.217h-30.19v1.336h30.19v-1.336zm0 11.236h-30.19v1.336h30.19v-1.336zm0 11.217h-30.19v1.337h30.19v-1.337zm0 11.236h-30.19v1.337h30.19v-1.337zm-15.086-103.608h-15.104v1.336h15.104v-1.336zm-25.236-40.747h-31.188v1.336h31.188v-1.336zm0 8.676h-31.188v1.336h31.188v-1.336zm0 32.071h-31.188v1.336h31.188v-1.336zm10.226-8.47v-4.253c9.455-3.369 19.756-3.482 29.267-.301l.904.301v4.253h-30.189.018z" class="B"/><path d="M711.794 337.707l-3.183 2.522-4.312 3.425a4.75 4.75 0 0 1 .452 1.6c.282 1.242-.377 2.484-1.564 2.955-.583.15-1.337 2.917 2.204 3.294 2.053.357 4.181-.17 5.838-1.431.81-.753 1.074-1.186.584-2.277-1.413-3.049-.848-7.001-.038-10.069l.019-.019z" class="P"/><path d="M705.353 342.826l2.787-2.541v.301c.038.452.038.904 0 1.337-.452 1.694-1.713 3.068-3.371 3.67v-.32c-.075-.508-.207-1.016-.395-1.506v-.075l.979-.866z" class="D F"/><path d="M703.169 335.467c-1.507-4.536-.678-6.869-2.43-9.373-1.055-.677-3.314 1.092-2.561 4.8s4.991 4.592 4.991 4.592v-.019z" class="B"/><path d="M712.585 332.136c-.49 4.931-.584 7.829-3.183 10.201-3.936 3.576-9.925.922-10.866-4.028-.867-4.517.15-11.801 5.085-13.4 3.616-1.186 7.495.771 8.682 4.366.301.922.395 1.901.301 2.861h-.019z" class="P"/><path d="M712.491 336.559l-2.147.113-.414-3.275-1.978-1.581-.565-5.138h6.272c.621 0 2.467 1.976 2.674 2.672.508 2.09-.188 4.31-1.827 5.703-.621.565-1.299 1.073-2.034 1.487l.019.019z" class="B"/><path d="M712.566 328.729c-1.262.659-2.825-.075-4.181-.432l-4.105-1.054c-1.206-.245-2.486-.057-3.56.564-1.073.659-1.488 2.014-.979 3.181a5.25 5.25 0 0 1-2.222-7.077 5.02 5.02 0 0 1 1.205-1.524 7.06 7.06 0 0 1 4.35-1.562c1.582 0 3.146.15 4.671.489 2.053.358 5.01.339 6.893 1.205s1.714 4.215-2.109 6.21h.037z" class="B"/><path d="M714.45 336.032a4.52 4.52 0 0 1-1.94 2.578c-1.224.753-2.279-.527-2.166-1.919s1.055-2.955 2.392-3.125 2.071 1.148 1.714 2.466z" class="P"/><path d="M704.751 333.679c0 .414-.208.753-.49.772s-.471-.301-.49-.715.226-.772.49-.772.49.301.49.715zm-4.652.151c0 .414-.207.771-.49.771s-.489-.319-.489-.715.226-.753.489-.771.49.301.49.715z" class="B"/><path d="M701.587 334.074c-.339 1.111-.848 2.184-1.469 3.162.508.301 1.13.358 1.695.151l-.208-3.313h-.018z" class="O"/><path d="M702.246 339.796c.96 0 1.883-.395 2.561-1.092.038-.056.038-.131 0-.169s-.132-.038-.169 0c-.735.753-1.79 1.11-2.825.997-.057 0-.132.019-.151.095 0 0 .038.131.113.15.169 0 .339.019.49 0l-.019.019zm3.427-7.604h.113c.095-.094.095-.225 0-.32-.47-.621-1.205-.959-1.977-.903a.24.24 0 0 0-.226.264c0 .131.132.225.264.207.602-.019 1.186.244 1.563.715.075.075.188.094.263.037zm-5.612-1.054v-.113c0-.131-.132-.225-.264-.207a2.27 2.27 0 0 0-1.864 1.13c-.075.113-.038.263.094.338.132.057.264 0 .339-.094.32-.527.866-.847 1.469-.865.094 0 .188-.057.226-.151v-.038z" class="B"/><path d="M739.629 394.226H590.622V565.777H739.629V394.226Z" class="D L"/><path d="M731.757 376.101H583.032V558.268H731.757V376.101Z" class="C"/><path d="M731.757 376.101H583.032v10.766h148.725v-10.766z" class="B"/><path d="M731.795 386.886H624.296V558.268H731.795V386.886Z" class="D H"/><path d="M659.758 390.989h-30.189v34.893h30.189v-34.893zm68.402 0h-62.639v14.36h62.639v-14.36zm0 20.514h-62.639v77.486h62.639v-77.486zm0 83.659h-62.639v57.987h62.639v-57.987z" class="D H"/><path d="M665.521 439.226h-41.583v13.344h41.583v-13.344zm-40.905-27.723h-41.584v13.344h41.584v-13.344z" class="E"/><path d="M728.16 507.847h-62.639v6.926h62.639v-6.926z" class="D"/><path d="M671.812 396.804l1.299-2.635 1.3 2.635 2.919.414-2.11 2.052.509 2.917-2.618-1.374-2.599 1.374.49-2.898-2.11-2.052 2.92-.433zm11.864 0l1.3-2.635 1.299 2.635 2.919.414-2.109 2.052.49 2.917-2.599-1.374-2.599 1.374.489-2.898-2.109-2.052 2.919-.433zm11.865 0l1.3-2.635 1.299 2.635 2.919.414-2.109 2.052.49 2.917-2.599-1.374-2.618 1.374.508-2.898-2.109-2.052 2.919-.433zm11.865 0l1.299-2.635 1.3 2.635 2.9.414-2.09 2.052.489 2.917-2.599-1.374-2.598 1.374.489-2.898-2.109-2.052 2.919-.433z" class="E"/><path d="M719.252 396.804l1.299-2.635 1.319 2.635 2.9.414-2.09 2.052.489 2.917-2.599-1.374-2.599 1.374.471-2.898-2.09-2.052 2.9-.433z" class="D"/><path d="M694.6 418.354h-24.634v1.336H694.6v-1.336zm-5.198 11.537h-19.436v1.336h19.436v-1.336zm0 10.107h-19.436v1.336h19.436v-1.336zm0 10.069h-19.436v1.336h19.436v-1.336zm0 10.069h-19.436v1.337h19.436v-1.337zm0 10.107h-19.436v1.336h19.436v-1.336zm0 10.069h-19.436v1.336h19.436v-1.336z" class="B"/><use xlink:href="#a" class="B"/><path d="M711.549 439.998h-19.435v1.336h19.435v-1.336zm0 10.069h-19.435v1.336h19.435v-1.336zm0 10.069h-19.435v1.337h19.435v-1.337zm0 10.107h-19.435v1.336h19.435v-1.336zm0 10.069h-19.435v1.336h19.435v-1.336zm-.019-58.1h-41.564v1.337h41.564v-1.337zm0 79.575h-41.564v1.336h41.564v-1.336z" class="B"/><use xlink:href="#b" class="B"/><path d="M659.758 459.252h-30.189v1.336h30.189v-1.336zm0 11.236h-30.189v1.336h30.189v-1.336zm0 11.217h-30.189v1.336h30.189v-1.336zm0 11.236h-30.189v1.336h30.189v-1.336zm0 11.217h-30.189v1.336h30.189v-1.336zm0 11.217h-30.189v1.337h30.189v-1.337zm0 11.236h-30.189v1.337h30.189v-1.337zm0 11.218h-30.189v1.336h30.189v-1.336zM644.673 434.22h-15.104v1.336h15.104v-1.336zm-25.236-40.709h-31.188v1.336h31.188v-1.336zm0 8.638h-31.188v1.337h31.188v-1.337zm0 32.071h-31.188v1.336h31.188v-1.336z" class="B"/><path d="M629.569 425.882v-4.253c9.454-3.369 19.756-3.463 29.285-.301l.904.301v4.253h-30.189z" class="E"/><path d="M642.036 395.393a6.45 6.45 0 0 0-5.649 1.091c-1.582 1.224-2.807 2.861-3.522 4.724a3.16 3.16 0 0 0 0 3.162c.715.904 2.071.847 3.239.715 1.789-3.369 3.898-6.455 5.932-9.711v.019z" class="B"/><path d="M640.963 415.757c.866 2.07 1.337 4.366-1.337 6.211-.546.376-.961.941-1.149 1.581-.283 1.054.075 2.22 3.955 1.016 5.612-1.75 5.989-5.138 5.989-5.138-2.392-1.412-2.674-7.209-2.467-10.446l-4.972 6.776h-.019z" class="Q"/><path d="M644.579 413.574c0 1.411-1.846 3.199-3.108 3.783-.113-.546-.301-1.092-.527-1.6l2.976-4.028c.339.565.565 1.186.659 1.845z" class="D F"/><path d="M649.061 401.19c-1.13-3.708-5.028-5.797-8.738-4.687-5.236 1.562-6.705 9.109-6.102 13.852.678 5.289 6.817 7.416 11.111 3.802 2.882-2.409 3.126-4.592 3.936-9.712.189-1.072.113-2.183-.207-3.237v-.018z" class="Q"/><path d="M637.328 408.774c-.546.076-1.111-.075-1.544-.433.753-.809 1.375-1.693 1.864-2.672l-.32 3.124v-.019z" fill="#ed893e"/><path d="M641.283 409.508s.038-.131 0-.169c-.038-.057-.132-.057-.169 0-.716.79-1.771 1.167-2.825 1.035-.076 0-.113.056-.132.113 0 0 .037.113.113.132h.602a3.53 3.53 0 0 0 2.43-1.111h-.019zm-4.011-12.384c1.921-.132 3.747.941 4.557 2.673.32.828.546 1.694.697 2.578s.527 1.732 1.111 2.409c.622.678 1.601.885 2.449.508.489 1.6 1.826 2.824 3.465 3.162l-3.748 5.101.866 2.861c2.901-.923 5.311-2.974 6.705-5.684 1.337-2.673 1.638-6.042-.904-6.117.904-1.807-.753-5.609-2.109-7.096-2.543-2.277-6.008-3.274-9.379-2.672-1.469.301-2.769 1.11-3.71 2.277z" class="B"/><path d="M650.474 408.059c.094-.922-.584-1.75-1.507-1.863-1.337-.113-2.26 1.43-2.542 2.541s.395 2.333 1.657 1.901a3.88 3.88 0 0 0 2.166-1.92c.113-.207.188-.433.207-.678l.019.019z" class="Q"/><path d="M642.281 403.128h.113c.094-.094.094-.263 0-.358-.602-.752-1.525-1.185-2.486-1.11-.132 0-.226.132-.226.264 0 .15.132.244.264.225.791-.037 1.563.32 2.053.941.075.057.169.076.263.038h.019zm-7.759.264s.075-.038.113-.076a2.52 2.52 0 0 1 2.034-.96c.132 0 .264-.094.283-.225a.27.27 0 0 0-.245-.283c-.961-.037-1.884.395-2.486 1.148-.094.094-.113.245 0 .339.075.094.207.113.301.057zm6.535.997c0 .452-.282.828-.584.809s-.527-.395-.508-.865.282-.81.584-.81.527.396.527.866h-.019zm-4.671.395c0 .433-.263.791-.565.772s-.489-.376-.489-.828.264-.791.565-.772.508.339.489.828z" class="B"/><path d="M636.029 403.975l-1.055-.358s.508.866 1.055.358zm4.633-.414l-1.093-.377s.528.904 1.093.377zM469.77 455.205c-10.377 0-10.377-8.883-10.377-8.883l88.177-94.725.452-2.052 5.047 4.705s-.075.132-.132.207c-.282.527-77.328 100.748-83.167 100.748z" class="B"/><g class="G C"><path opacity=".4" d="M602.506 329.972c-11.564 17.879-30.943 31.6-43.147 25.238.057-.056.113-.132.132-.207l-6.705-3.651c-4.501-4.028-7.024-9.937-7.665-16.863-1.017-10.728 2.373-23.696 9.775-35.722 13.051-21.193 34.314-30.622 44.126-24.769 1.6.96 3.145 1.995 4.633 3.144h.075c1.299.846 2.524 1.806 3.691 2.841.546.527 1.036 1.13 1.469 1.751 2.505 3.651 3.917 7.923 4.106 12.327.904 10.408-2.543 23.658-10.509 35.911h.019z"/></g><path d="M613.015 293.798l-60.21 57.215c-4.501-4.027-7.024-9.937-7.684-16.863v-.113l63.75-52.567c2.505 3.633 3.936 7.905 4.144 12.328z" class="C F"/><path d="M607.101 331.797c14.633-23.62 12.806-51.287-4.143-61.77s-42.525.207-57.159 23.809c-14.256 23.017-12.9 49.837 2.806 60.904.434.338.867.602 1.338.903a25.73 25.73 0 0 0 5.857 2.673c16.535 5.307 38.25-5.477 51.301-26.538v.019zm-49.079 22.077c-.942-.264-1.846-.64-2.674-1.129-.132-.057-.264-.113-.377-.207l-.565-.358-.169-.113a14.43 14.43 0 0 1-2.26-1.75c-10.415-9.467-9.379-32.165 2.938-51.908 13.126-21.155 34.615-30.527 43.655-25.182 1.469.884 2.9 1.825 4.256 2.861.697.489 1.356 1.035 1.94 1.656 8.041 8.394 5.555 29.059-6.498 48.539s-29.116 30.79-40.246 27.553v.038z" class="B"/><g opacity=".4" class="D"><path opacity=".4" d="M602.468 329.614c-11.582 17.917-30.943 31.638-43.146 25.239.056-.057.113-.132.131-.207l-1.431-.791c11.112 3.256 28.325-8.206 40.303-27.516s14.596-40.088 6.497-48.52c-.263-.282-.546-.565-.847-.809a29.8 29.8 0 0 1 3.465 2.672c.546.527 1.036 1.111 1.469 1.732 2.486 3.651 3.917 7.905 4.124 12.309.81 10.37-2.617 23.657-10.565 35.872v.019z"/></g><use xlink:href="#c" class="B"/><use xlink:href="#c" class="D F"/><path d="M514.762 326.998c.49-.075 1.036.452 1.187 1.223s-.132 1.487-.64 1.562-1.036-.433-1.187-1.223.132-1.468.64-1.562z" class="B"/><path d="M516.118 337.18c1.319.094 2.618-.395 3.56-1.336a29.17 29.17 0 0 1-4.953-5.891l1.393 7.227z" fill="#b74d3c"/><path d="M510.808 324.758c.753-.922 1.902-1.43 3.088-1.336h.17c.244 0 .47-.207.47-.452 0-.263-.188-.47-.452-.489-1.469-.17-2.919.395-3.917 1.487-.075.075-.113.188-.113.301 0 .244.17.47.433.489.113.038.226.057.339 0h-.018z" class="B"/><path d="M504.762 371.396c-13.202-.132-15.085-7.359-15.085-7.359 4.03-3.745 4.35-10.803 3.653-17.108 1.036 1.506 2.336 2.823 3.842 3.839 2.788 1.977 6.291 2.673 9.624 1.939h.17a1.21 1.21 0 0 0-.076.376c-.904 5.026-.301 10.408 4.953 12.065 0 0 7.477 6.399-7.081 6.248z" class="I"/><path d="M507.361 350.806c-.169.602-.301 1.224-.395 1.845h-.17c-3.333.752-6.836.056-9.624-1.939-1.506-1.035-2.825-2.334-3.842-3.839l-.696-4.593 14.219 8.15.527.357-.019.019z" class="I"/><use xlink:href="#d" class="B"/><use xlink:href="#d" class="C G"/><path d="M517.041 340.229c-.169 4.611-2.712 8.789-6.704 11.104h-.076c-1.017.621-2.109 1.073-3.277 1.336h-.169c-3.333.753-6.836.057-9.624-1.938-1.506-1.035-2.825-2.334-3.842-3.84-2.523-3.594-3.503-8.356-5.216-15.056-1.884-7.039 2.297-14.266 9.341-16.148 1.958-.527 4.011-.584 6.008-.189 9.981 2.033 13.974 15.81 13.578 24.731h-.019z" class="I"/><path d="M510.243 351.333c-1.017.621-2.11 1.073-3.277 1.336l.489-5.872s2.091 4.536 2.788 4.536z" class="D F"/><path d="M485.628 328.391c-1.337 2.672-4.351 5.721-5.613 8.394a7.73 7.73 0 0 0-1.13 4.498c.245 1.713 1.808 2.898 3.522 2.672-1.337 1.901-.358 5.044 1.695 6.343 2.185 1.299 4.991.903 6.705-.979 1.337 1.449 2.354 2.522 4.388 2.541 2.015.019 3.955-.772 5.367-2.202 1.884 2.014 4.84 2.635 7.383 1.562 2.429-1.148 3.71-3.839 3.089-6.437-.735-2.22-1.074-4.535-.999-6.869 0 0 2.882-4.235 1.695-6.794l-1.261-8.037c-2.242-1.713-5.029-2.56-7.854-2.447-2.806.132-5.574.753-8.173 1.826-3.635 1.43-7.232 2.635-8.814 5.929z" class="B"/><path d="M507.549 327.901c2.75.866 4.125 5.007 4.181 7.604.076 2.861-1.883 4.63-4.35 2.672-1.846-1.524-3.164-3.613-3.71-5.928-.622-2.786 1.111-5.157 3.879-4.348z" class="I"/><path d="M481.484 667.353c-1.337-.075-2.599-.32-2.956-.941a.85.85 0 0 1 .113-1.054c.188-.282.489-.47.828-.527 1.752-.376 5.179 1.864 5.368 1.958.075.056.113.15.094.263 0 .113-.113.188-.207.188-1.074.132-2.147.17-3.221.113h-.019zm-1.45-2.07c-.15-.019-.32-.019-.471 0-.207.019-.395.151-.527.32-.188.301-.151.433 0 .527.414.678 3.032.828 4.972.678-1.186-.772-2.524-1.299-3.936-1.544h-.057l.019.019z" class="E"/><path d="M484.63 667.203h-.113c-1.187-.621-3.447-2.955-3.146-4.122 0-.282.302-.602.98-.64.489-.019.979.151 1.337.489 1.281 1.167 1.224 3.934 1.224 4.028s-.056.169-.132.207c-.037.038-.094.057-.169.057l.019-.019zm-2.129-4.273h-.188c-.433 0-.49.207-.508.264-.17.696 1.337 2.522 2.542 3.369 0-1.167-.377-2.296-1.073-3.237-.208-.245-.509-.396-.829-.396h.075-.019z" class="E"/><path d="M497.248 643.846l-10.283-.546-1.262 23.715 10.321.545 1.224-23.714z" class="I"/><path d="M483.292 666.487c-7.42 3.915-9.586 4.028-17.872 5.364-1.808.302-1.074 4.63 3.183 4.856 7.043.395 7.797.094 13.804.414 5.142.283 11.018.828 15.104 1.111.132.018.245.018.377 0 .848-.113 1.45-.885 1.337-1.751l-1.167-9.26c-.057-.414-.396-.715-.81-.752l-11.3-.603c-.923-.037-1.827.17-2.637.603l-.019.018z" class="B"/><path d="M497.248 643.865l-.754 14.323-10.32-.546.791-14.342 10.283.565z" class="D F"/><use xlink:href="#e" class="E"/><use xlink:href="#e" class="B"/><use xlink:href="#e" opacity=".6" class="C"/><path d="M502.615 649.36l-1.186 6.362-21.225-1.148-.264-7.227 22.675 2.013z" class="B"/><g class="G C"><path d="M502.615 649.36l-1.186 6.362-21.225-1.148-.264-7.227 22.675 2.013z" class="G"/></g><path d="M587.703 665.434c-.113-1.337-.075-2.616.49-3.106.301-.263.734-.301 1.073-.113.302.151.528.395.622.715.621 1.638-1.055 5.477-1.149 5.666-.038.094-.132.169-.245.15a.22.22 0 0 1-.207-.169 17.53 17.53 0 0 1-.584-3.125v-.018zm1.846-1.864v-.47a.65.65 0 0 0-.396-.433c-.32-.132-.471 0-.527.075-.622.546-.396 3.143.075 5.007a11.29 11.29 0 0 0 .904-4.16h-.037l-.019-.019z" class="E"/><path d="M588.249 668.483v-.095c.433-1.336 2.43-4.027 3.616-4.027.283 0 .64.169.772.809.113.489 0 .998-.282 1.412-.942 1.486-3.71 2.032-3.805 2.07-.094 0-.169 0-.226-.075-.037-.038-.056-.076-.056-.113l-.019.019zm3.899-2.974v-.17c0-.432-.264-.432-.321-.432-.715 0-2.297 1.844-2.938 3.18a6.03 6.03 0 0 0 3.051-1.712c.189-.264.283-.584.264-.904h-.056v.038z" class="E"/><path d="M580.716 645.295l-9.906 1.826 7.665 23.243 9.981-1.825-7.74-23.244z" class="I"/><path d="M590.754 666.939c2.994 2.917 4.595 4.404 12.693 6.004 1.789.357.603 4.667-3.653 4.761-7.025.17-3.183-.263-9.172-.113-5.123.113-11.017.49-15.085.64a1.52 1.52 0 0 1-.415 0 1.48 1.48 0 0 1-1.13-1.75v-.038l2.072-9.241c.094-.414.452-.715.885-.715l11.262-.263c.904-.113 1.827.131 2.543.715z" class="B"/><path d="M580.735 645.314l3.973 11.951-9.962 1.807-3.936-11.951 9.925-1.807z" class="D F"/><path d="M511.241 482.006l-3.466 66.343c0 .753-.113 1.506-.131 2.353-4.294-24.467-10.735-64.329 1.148-68.432.791-.226 1.62-.302 2.449-.264z" class="D L"/><use xlink:href="#f" class="B"/><use xlink:href="#f" opacity=".6" class="C"/><path d="M590.547 646.368l.226 6.437-21.809 3.256-1.883-6.964 23.485-2.729h-.019z" class="B"/><g class="G C"><path d="M590.547 646.368l.226 6.437-21.809 3.256-1.883-6.964 23.485-2.729h-.019z" class="G"/></g><path d="M486.645 422.476c-.904 2.277-3.051 6.813-6.347 9.504-.753.621-1.77.791-2.674.433 0 0-5.782-3.557-6.234-5.176a.8.8 0 0 1 0-.301l1.431-6.7.17-.075c1.054-.358 6.704-2.07 9.096-1.111l3.748 1.506c.716.207 1.13.941.923 1.656-.019.094-.057.17-.113.264z" class="I"/><path d="M477.209 381.239l-19.624 19.103 15.443 19.894-.169.075-1.431 6.701a.8.8 0 0 0 0 .301c-.98.357-2.016.451-3.051.282 0 0-29.267-23.752-27.628-27.855 1.563-3.237 3.371-6.38 5.367-9.373l.207-.301c2.58-4.291 18.871-28.645 31.112-28.494 9.681.075 9.153 11.217-.207 19.724l-.019-.057z" class="E"/><path d="M477.209 381.239l-19.624 19.103 15.443 19.894-.169.075-1.431 6.701a.8.8 0 0 0 0 .301c-.98.357-2.016.451-3.051.282 0 0-29.644-20.326-27.628-27.855.565-2.164 3.145-5.947 5.367-9.373l.207-.301c2.58-4.291 18.871-28.645 31.112-28.494 9.681.075 9.153 11.217-.207 19.724l-.019-.057z" class="D G"/><path d="M471.428 427.237a.8.8 0 0 1 0-.301l1.431-6.7.169-.075.49.207s1.563 5.477-2.09 6.869z" class="B"/><use xlink:href="#g" class="E"/><use xlink:href="#g" class="D G"/><path d="M531.147 394.997c-.301 7.868-1.205 18.144-3.088 32.353-1.149-12.44-3.202-24.636-10.585-49.592l13.41 4.272c.263 4.14.301 8.545.263 12.967z" class="D F"/><path d="M524.48 340.869c-.301-.828-1.111-1.374-1.996-1.336-2.825-.226-4.313-.433-6.949.602a1.09 1.09 0 0 0-.509.357 1.27 1.27 0 0 0-.113.527l-.151 4.687a1.63 1.63 0 0 0 .867 1.75c1.45 1.016 8.305 4.498 8.305 4.498 1.337.151 4.238-2.446 5.443-3.124l-4.915-7.961h.018z" class="I"/><use xlink:href="#h" class="E"/><g class="G D"><use xlink:href="#h" class="G"/></g><use xlink:href="#i" class="E"/><use xlink:href="#i" class="D G"/><path d="M514.631 320.881l-4.257 1.016-27.722 6.607a3.81 3.81 0 0 1-.169-.622c-.302-1.242-.528-2.503-.66-3.783l-.169-2.672c-.17-9.373 4.407-17.428 11.639-19.122s14.916 3.331 19.021 11.801c.358.752.697 1.562.998 2.352a28.71 28.71 0 0 1 1.168 3.746c.019.282.113.489.151.677z" class="B"/><path d="M514.499 320.881l-4.256 1.054-27.723 6.606c0-.188-.113-.414-.169-.621-.302-1.242-.509-2.503-.641-3.783l31.452-7.603c.471 1.223.866 2.465 1.167 3.745.17.207.17.433.17.621v-.019z" class="D G"/><path d="M524.876 321.088c.395 1.656-.622 3.313-2.279 3.708h-.056l-43.712 10.445c-1.657.396-3.333-.64-3.729-2.296-.207-.809-.075-1.675.377-2.39a3.05 3.05 0 0 1 1.921-1.336l43.749-10.446c1.657-.395 3.333.64 3.729 2.296v.019z" class="B"/></g><path d="M69.743 87.795h-1.746c-9.645 0-17.45-7.895-17.319-17.582.096-7.138 4.561-13.243 10.785-15.808.37-.153.66-.865 1.039-.989a15.6 15.6 0 0 1 2.349-.59c1.074-.188 2.378.271 3.506.293a17.26 17.26 0 0 1 9.096 2.808c5.033 2.597 7.93 7.974 8.838 13.84a6.48 6.48 0 0 0 .296-1.902c0-14.58-13.364-26.036-28.5-22.758-7.876 1.707-15.821 9.659-17.523 17.544-3.276 15.151 8.166 28.534 22.731 28.534 4.503 0 8.707-1.28 12.271-3.494.144-.089.367-.246.638-.44.335-.242.048-.759-.335-.609-.252.099-.507.191-.768.278-1.68.571-3.484.877-5.358.877z" class="M"/><path d="M86.552 66.533c-.242 3.335-1.683 5.259-2.798 6.347-1.087 1.063-2.68 2.515-6.419 2.537-5.026.032-9.176-4.375-8.79-10.683V48.667H54.769v-.335 14.554 7.71c.045 2.237 1.527 14.49 14.913 14.998 19.082.724 16.87-19.06 16.87-19.06zM65.861 55.563c.449 0 .813.364.813.814s-.363.814-.813.814-.813-.364-.813-.814a.81.81 0 0 1 .813-.814zM64.098 53.3a.51.51 0 0 1 0 1.021.51.51 0 0 1 0-1.021zm-.223 5.109a1.87 1.87 0 0 1 1.868 1.87c0 1.034-.835 1.87-1.868 1.87a1.87 1.87 0 0 1 0-3.74zm10.887 25.838c-7.955 2.097-15.977-2.237-18.4-9.943-.433-1.385-.605-2.875-.707-4.333-.118-1.713-.029-4.017-.057-5.741l.606-.265c1.383-.539 2.751-.495 4.153-.115.743.201 1.472.456 2.209.692 2.311.737 3.06.922 5.147.15-.328 4.815 1.371 8.702 5.833 10.747 4.29 1.966 8.427.801 11.812-2.917-.061.731-.66 8.638-10.594 11.724z" class="M"/><path d="M68.548 43.925v4.742-4.493l4.312-.753c1.166-.204 1.609-1.647.759-2.47L62.728 30.408c-.551-.533-1.421-.546-1.986-.026L49.53 40.693c-.87.801-.468 2.253.692 2.489l4.542.909.006 4.241v-4.407h13.778z" class="M"/><path d="M68.548 48.67v-4.745H54.77v4.407.338h13.778zm-6.7 18.556a.54.54 0 0 0-.539.539.54.54 0 0 0 .539.539.54.54 0 0 0 .539-.539.54.54 0 0 0-.539-.539zm-3.276-.696a.941.941 0 1 0 0-1.883.941.941 0 1 0 0 1.883zm197 .434c2.138.587 3.333 1.93 3.617 4.005.526 3.836-1.635 6.615-5.597 6.982-2.447.227-4.924.134-7.387.175l-2.802.003v-21.44c.045-.022.112-.08.175-.08l8.959.172c1.24.086 2.528.594 3.637 1.197 3.028 1.637 3.27 7.023-.162 8.696-.128.057-.233.15-.44.29zm-7.956 1.758l.02 5.763c.003.115.29.326.446.326l3.958-.022c2.996-.207 3.344-2.342 2.786-4.385-.249-.913-.912-1.599-1.836-1.653-1.753-.102-3.519-.029-5.374-.029zm.039-3.009l4.643-.326c1.301-.214 1.954-1.232 1.961-2.546.006-1.407-.596-2.422-1.913-2.655-1.52-.268-3.088-.271-4.691-.396v5.923zM146.13 67.746c.115.077.188.15.277.182 2.19.766 3.006 2.467 3.127 4.627l.013 1.87c.006 1.289.197 2.524 1.23 3.708h-1.179-2.018c-1.689 0-1.931-.175-2.145-1.895-.127-1.037-.124-2.09-.143-3.137-.048-2.47-1.112-3.548-3.583-3.574l-3.789-.003v8.549h-4.236V56.708c.086-.048.131-.093.172-.093l9.782.176c2.425.179 4.43 1.366 5.357 3.816 1.1 2.907.169 5.399-2.524 6.928l-.341.211zm-8.204-1.618l4.791-.032c1.561-.147 2.336-1.149 2.441-2.725.102-1.56-.615-2.948-1.998-3.188-1.712-.297-3.481-.271-5.237-.386l.003 6.331zm49.985-9.397l9.778.045c2.432.137 4.507 1.261 5.444 3.695 1.049 2.716.507 5.578-2.464 7.068-.105.054-.204.124-.325.198.086.07.134.134.201.159 2.311.814 3.152 2.585 3.181 4.886l.022 1.947c.067 1.171.258 2.313 1.211 3.392-1.613 0-3.021.045-4.42-.041-.252-.016-.609-.539-.679-.878-.185-.922-.265-1.87-.348-2.808-.073-.843-.019-1.701-.159-2.531-.21-1.241-1.144-2.163-2.384-2.24-1.584-.096-3.178-.022-4.88-.022v8.495h-4.184l.006-21.364zm4.166 9.378l4.921-.038c1.635-.175 2.396-1.299 2.374-2.996-.022-1.647-.947-2.824-2.495-3.051-.832-.121-1.683-.112-2.528-.121-.717-.006-1.737-.23-2.068.14-.383.428-.185 1.401-.195 2.138l-.009 3.928zm86.111-3.261h-4.057l-.118-.581c-.188-1.059-.762-1.841-1.747-2.266-1.319-.571-2.671-.558-3.99 0-.947.402-1.501 1.152-1.568 2.189-.067 1.021.484 1.739 1.354 2.135 1.151.526 2.336.986 3.535 1.391 1.66.558 3.286 1.168 4.66 2.294a5.61 5.61 0 0 1-.781 9.276c-3.286 1.873-8.52 1.436-11.442-.954-1.495-1.222-2.152-2.811-2.126-4.79h4.111l.064.514c.175 1.503.994 2.47 2.448 2.869 1.271.351 2.559.402 3.821-.041.905-.319 1.53-.929 1.67-1.924.153-1.072-.111-2.042-1.067-2.604-.848-.498-1.798-.833-2.71-1.219-1.644-.696-3.352-1.264-4.936-2.077-3.825-1.966-3.851-7.381.127-9.589 3.104-1.723 7.783-1.541 10.416.526 1.536 1.206 2.416 2.751 2.336 4.85zM167.921 78.095h-14.432v-21.45h14.429v3.217l-.797.035c-2.891.003-5.782.019-8.669-.013-.634-.006-.807.198-.787.807v3.966c-.016.555.156.734.717.728l7.101-.013h.949v3.296h-8.707v6.12h10.196v3.306zm15.726-12.723v3.309h-8.724v6.12h10.206v3.29h-14.416V56.638h14.384v3.223l-.791.035c-2.891.003-5.781.016-8.669-.01-.57-.006-.794.134-.771.747l.003 4.04c-.016.578.194.715.736.708l7.101-.01h.941zm-52.038 12.742h-4.274l-1.246-4.037c-.134-.463-.347-.613-.832-.606l-6.275.003c-.447-.006-.66.124-.788.568l-1.255 4.069h-4.278l7.312-21.514 3.917-.013c.513-.013.545.338.65.654l4.979 14.714 2.09 6.162zm-9.376-16.373l-.172-.032-2.614 8.411h5.374l-2.588-8.38zm119.006 16.366h-4.188l-1.23-3.982c-.141-.485-.351-.664-.88-.657l-6.833.016-1.45 4.611h-4.265l1.552-4.605 5.473-16.134c.204-.613.481-.804 1.102-.775l3.063.032c.204.006.52.207.58.386l7.073 20.876c.016.045.003.099.003.233zm-12.07-7.99h5.377l-2.601-8.386-.172.013-2.604 8.373zm-117.833-6.146h-4.019l-.208-1.414c-.274-1.347-.984-2.339-2.358-2.722-1.514-.421-2.974-.402-4.191.769a4.89 4.89 0 0 0-1.543 3.395l.01 6.577c.048.881.408 1.809.854 2.588 1.099 1.924 3.678 2.556 5.622 1.487 1.205-.661 1.559-1.812 1.718-3.063.029-.22.029-.447.051-.779h1.992 2.218c-.15.951-.197 1.867-.446 2.725-.65 2.221-2.164 3.67-4.335 4.391-2.011.667-4.079.756-6.106.131-3.296-1.021-5.297-3.344-5.705-6.711-.303-2.505-.306-5.096-.048-7.607.504-4.927 4.449-7.946 9.364-7.381 1.026.118 2.078.338 3.034.721 2.795 1.114 4.526 4.084 4.096 6.893zM211.91 74.808h9.387v3.274h-13.613V56.648h4.223l.003 18.16zm65.73-26.519v-.781h5.454v.781h-2.287v6.491h-.88v-6.491h-2.287zm6.813-.781h1.051l2.472 6.037h.085l2.472-6.037h1.051v7.273h-.824v-5.526h-.071l-2.273 5.526h-.795l-2.273-5.526h-.071v5.526h-.824v-7.273z" class="M"/><path d="M328.793 120.728V146h-6.156v-15.156L316.985 146h-4.968l-5.688-15.192V146h-6.156v-25.272h7.272l7.092 17.496 7.02-17.496h7.236zm3.203 15.192c0-2.064.384-3.876 1.152-5.436.792-1.56 1.86-2.76 3.204-3.6s2.844-1.26 4.5-1.26c1.416 0 2.652.288 3.708.864 1.08.576 1.908 1.332 2.484 2.268v-2.844h6.156V146h-6.156v-2.844c-.6.936-1.44 1.692-2.52 2.268-1.056.576-2.292.864-3.708.864-1.632 0-3.12-.42-4.464-1.26-1.344-.864-2.412-2.076-3.204-3.636-.768-1.584-1.152-3.408-1.152-5.472zm15.048.036c0-1.536-.432-2.748-1.296-3.636-.84-.888-1.872-1.332-3.096-1.332s-2.268.444-3.132 1.332c-.84.864-1.26 2.064-1.26 3.6s.42 2.76 1.26 3.672c.864.888 1.908 1.332 3.132 1.332s2.256-.444 3.096-1.332c.864-.888 1.296-2.1 1.296-3.636zM369.93 146l-6.12-8.424V146h-6.156v-26.64h6.156v14.724l6.084-8.172h7.596l-8.352 10.08L377.562 146h-7.632zm28.914-10.368c0 .576-.036 1.176-.108 1.8h-13.932c.096 1.248.492 2.208 1.188 2.88.72.648 1.596.972 2.628.972 1.536 0 2.604-.648 3.204-1.944h6.552c-.336 1.32-.948 2.508-1.836 3.564-.864 1.056-1.956 1.884-3.276 2.484s-2.796.9-4.428.9c-1.968 0-3.72-.42-5.256-1.26a8.96 8.96 0 0 1-3.6-3.6c-.864-1.56-1.296-3.384-1.296-5.472s.42-3.912 1.26-5.472a8.96 8.96 0 0 1 3.6-3.6c1.536-.84 3.3-1.26 5.292-1.26 1.944 0 3.672.408 5.184 1.224a8.67 8.67 0 0 1 3.528 3.492c.864 1.512 1.296 3.276 1.296 5.292zm-6.3-1.62c0-1.056-.36-1.896-1.08-2.52s-1.62-.936-2.7-.936c-1.032 0-1.908.3-2.628.9-.696.6-1.128 1.452-1.296 2.556h7.704zm35.356-13.284v4.932h-6.696V146h-6.156v-20.34h-6.696v-4.932H427.9zm15.438 4.968c2.304 0 4.152.768 5.544 2.304 1.392 1.512 2.088 3.6 2.088 6.264V146h-6.12v-10.908c0-1.344-.348-2.388-1.044-3.132s-1.632-1.116-2.808-1.116-2.112.372-2.808 1.116-1.044 1.788-1.044 3.132V146h-6.156v-26.64h6.156v9.252c.624-.888 1.476-1.596 2.556-2.124s2.292-.792 3.636-.792zm30.846 9.936c0 .576-.036 1.176-.108 1.8h-13.932c.096 1.248.492 2.208 1.188 2.88.72.648 1.596.972 2.628.972 1.536 0 2.604-.648 3.204-1.944h6.552c-.336 1.32-.948 2.508-1.836 3.564-.864 1.056-1.956 1.884-3.276 2.484s-2.796.9-4.428.9c-1.968 0-3.72-.42-5.256-1.26a8.96 8.96 0 0 1-3.6-3.6c-.864-1.56-1.296-3.384-1.296-5.472s.42-3.912 1.26-5.472a8.96 8.96 0 0 1 3.6-3.6c1.536-.84 3.3-1.26 5.292-1.26 1.944 0 3.672.408 5.184 1.224a8.67 8.67 0 0 1 3.528 3.492c.864 1.512 1.296 3.276 1.296 5.292zm-6.3-1.62c0-1.056-.36-1.896-1.08-2.52s-1.62-.936-2.7-.936c-1.032 0-1.908.3-2.628.9-.696.6-1.128 1.452-1.296 2.556h7.704zm32.908 7.524h-9.432L489.848 146h-6.444l9.144-25.272h7.128L508.82 146h-6.516l-1.512-4.464zm-1.584-4.752l-3.132-9.252-3.096 9.252h6.228zm18.551-8.028c.6-.936 1.428-1.692 2.484-2.268s2.292-.864 3.708-.864c1.656 0 3.156.42 4.5 1.26s2.4 2.04 3.168 3.6c.792 1.56 1.188 3.372 1.188 5.436s-.396 3.888-1.188 5.472c-.768 1.56-1.824 2.772-3.168 3.636-1.344.84-2.844 1.26-4.5 1.26-1.392 0-2.628-.288-3.708-.864-1.056-.576-1.884-1.32-2.484-2.232v12.384h-6.156v-29.664h6.156v2.844zm8.784 7.164c0-1.536-.432-2.736-1.296-3.6-.84-.888-1.884-1.332-3.132-1.332-1.224 0-2.268.444-3.132 1.332-.84.888-1.26 2.1-1.26 3.636s.42 2.748 1.26 3.636c.864.888 1.908 1.332 3.132 1.332s2.268-.444 3.132-1.332c.864-.912 1.296-2.136 1.296-3.672zm15.65-7.164c.6-.936 1.428-1.692 2.484-2.268s2.292-.864 3.708-.864c1.656 0 3.156.42 4.5 1.26s2.4 2.04 3.168 3.6c.792 1.56 1.188 3.372 1.188 5.436s-.396 3.888-1.188 5.472c-.768 1.56-1.824 2.772-3.168 3.636-1.344.84-2.844 1.26-4.5 1.26-1.392 0-2.628-.288-3.708-.864-1.056-.576-1.884-1.32-2.484-2.232v12.384h-6.156v-29.664h6.156v2.844zm8.784 7.164c0-1.536-.432-2.736-1.296-3.6-.84-.888-1.884-1.332-3.132-1.332-1.224 0-2.268.444-3.132 1.332-.84.888-1.26 2.1-1.26 3.636s.42 2.748 1.26 3.636c.864.888 1.908 1.332 3.132 1.332s2.268-.444 3.132-1.332c.864-.912 1.296-2.136 1.296-3.672zm15.649-16.56V146h-6.156v-26.64h6.156zm7.557 4.464c-1.08 0-1.968-.312-2.664-.936a3.17 3.17 0 0 1-1.008-2.376c0-.96.336-1.752 1.008-2.376.696-.648 1.584-.972 2.664-.972 1.056 0 1.92.324 2.592.972.696.624 1.044 1.416 1.044 2.376a3.12 3.12 0 0 1-1.044 2.376c-.672.624-1.536.936-2.592.936zm3.06 2.088V146h-6.156v-20.088h6.156zm3.238 10.044c0-2.088.42-3.912 1.26-5.472.864-1.56 2.052-2.76 3.564-3.6 1.536-.84 3.288-1.26 5.256-1.26 2.52 0 4.62.66 6.3 1.98 1.704 1.32 2.82 3.18 3.348 5.58h-6.552c-.552-1.536-1.62-2.304-3.204-2.304a3.21 3.21 0 0 0-2.7 1.332c-.672.864-1.008 2.112-1.008 3.744s.336 2.892 1.008 3.78c.672.864 1.572 1.296 2.7 1.296 1.584 0 2.652-.768 3.204-2.304h6.552c-.528 2.352-1.644 4.2-3.348 5.544s-3.804 2.016-6.3 2.016c-1.968 0-3.72-.42-5.256-1.26-1.512-.84-2.7-2.04-3.564-3.6-.84-1.56-1.26-3.384-1.26-5.472zm21.797-.036c0-2.064.384-3.876 1.152-5.436.792-1.56 1.86-2.76 3.204-3.6s2.844-1.26 4.5-1.26c1.416 0 2.652.288 3.708.864 1.08.576 1.908 1.332 2.484 2.268v-2.844h6.156V146h-6.156v-2.844c-.6.936-1.44 1.692-2.52 2.268-1.056.576-2.292.864-3.708.864-1.632 0-3.12-.42-4.464-1.26-1.344-.864-2.412-2.076-3.204-3.636-.768-1.584-1.152-3.408-1.152-5.472zm15.048.036c0-1.536-.432-2.748-1.296-3.636-.84-.888-1.872-1.332-3.096-1.332s-2.268.444-3.132 1.332c-.84.864-1.26 2.064-1.26 3.6s.42 2.76 1.26 3.672c.864.888 1.908 1.332 3.132 1.332s2.256-.444 3.096-1.332c.864-.888 1.296-2.1 1.296-3.636zm21.805 4.824V146h-3.132c-2.232 0-3.972-.54-5.22-1.62-1.248-1.104-1.872-2.892-1.872-5.364v-7.992h-2.448v-5.112h2.448v-4.896h6.156v4.896h4.032v5.112h-4.032v8.064c0 .6.144 1.032.432 1.296s.768.396 1.44.396h2.196zm6.525-16.956c-1.08 0-1.968-.312-2.664-.936a3.17 3.17 0 0 1-1.008-2.376c0-.96.336-1.752 1.008-2.376.696-.648 1.584-.972 2.664-.972 1.056 0 1.92.324 2.592.972.696.624 1.044 1.416 1.044 2.376a3.12 3.12 0 0 1-1.044 2.376c-.672.624-1.536.936-2.592.936zm3.06 2.088V146h-6.156v-20.088h6.156zm13.605 20.376c-1.968 0-3.744-.42-5.328-1.26-1.56-.84-2.796-2.04-3.708-3.6-.888-1.56-1.332-3.384-1.332-5.472 0-2.064.456-3.876 1.368-5.436.912-1.584 2.16-2.796 3.744-3.636s3.36-1.26 5.328-1.26 3.744.42 5.328 1.26 2.832 2.052 3.744 3.636c.912 1.56 1.368 3.372 1.368 5.436s-.468 3.888-1.404 5.472c-.912 1.56-2.172 2.76-3.78 3.6-1.584.84-3.36 1.26-5.328 1.26zm0-5.328a3.95 3.95 0 0 0 2.988-1.296c.84-.864 1.26-2.1 1.26-3.708s-.408-2.844-1.224-3.708a3.84 3.84 0 0 0-2.952-1.296c-1.2 0-2.196.432-2.988 1.296-.792.84-1.188 2.076-1.188 3.708 0 1.608.384 2.844 1.152 3.708a3.84 3.84 0 0 0 2.952 1.296zm26.018-15.264c2.352 0 4.224.768 5.616 2.304 1.416 1.512 2.124 3.6 2.124 6.264V146h-6.12v-10.908c0-1.344-.348-2.388-1.044-3.132s-1.632-1.116-2.808-1.116-2.112.372-2.808 1.116-1.044 1.788-1.044 3.132V146h-6.156v-20.088h6.156v2.664c.624-.888 1.464-1.584 2.52-2.088 1.056-.528 2.244-.792 3.564-.792zm38.907 3.168c0 1.464-.336 2.808-1.008 4.032-.672 1.2-1.704 2.172-3.096 2.916s-3.12 1.116-5.184 1.116h-3.816V146h-6.156v-25.272h9.972c2.016 0 3.72.348 5.112 1.044s2.436 1.656 3.132 2.88 1.044 2.628 1.044 4.212zm-9.756 3.168c1.176 0 2.052-.276 2.628-.828s.864-1.332.864-2.34-.288-1.788-.864-2.34-1.452-.828-2.628-.828h-3.348v6.336h3.348zm19.117-2.772c.72-1.104 1.62-1.968 2.7-2.592 1.08-.648 2.28-.972 3.6-.972v6.516h-1.692c-1.536 0-2.688.336-3.456 1.008-.768.648-1.152 1.8-1.152 3.456V146h-6.156v-20.088h6.156v3.348zm18.386 17.028c-1.968 0-3.744-.42-5.328-1.26-1.56-.84-2.796-2.04-3.708-3.6-.888-1.56-1.332-3.384-1.332-5.472 0-2.064.456-3.876 1.368-5.436.912-1.584 2.16-2.796 3.744-3.636s3.36-1.26 5.328-1.26 3.744.42 5.328 1.26 2.832 2.052 3.744 3.636c.912 1.56 1.368 3.372 1.368 5.436s-.468 3.888-1.404 5.472c-.912 1.56-2.172 2.76-3.78 3.6-1.584.84-3.36 1.26-5.328 1.26zm0-5.328a3.95 3.95 0 0 0 2.988-1.296c.84-.864 1.26-2.1 1.26-3.708s-.408-2.844-1.224-3.708a3.84 3.84 0 0 0-2.952-1.296c-1.2 0-2.196.432-2.988 1.296-.792.84-1.188 2.076-1.188 3.708 0 1.608.384 2.844 1.152 3.708a3.84 3.84 0 0 0 2.952 1.296zm12.554-5.004c0-2.088.42-3.912 1.26-5.472.864-1.56 2.052-2.76 3.564-3.6 1.536-.84 3.288-1.26 5.256-1.26 2.52 0 4.62.66 6.3 1.98 1.704 1.32 2.82 3.18 3.348 5.58h-6.552c-.552-1.536-1.62-2.304-3.204-2.304a3.21 3.21 0 0 0-2.7 1.332c-.672.864-1.008 2.112-1.008 3.744s.336 2.892 1.008 3.78c.672.864 1.572 1.296 2.7 1.296 1.584 0 2.652-.768 3.204-2.304h6.552c-.528 2.352-1.644 4.2-3.348 5.544s-3.804 2.016-6.3 2.016c-1.968 0-3.72-.42-5.256-1.26-1.512-.84-2.7-2.04-3.564-3.6-.84-1.56-1.26-3.384-1.26-5.472zm41.957-.324c0 .576-.036 1.176-.108 1.8h-13.932c.096 1.248.492 2.208 1.188 2.88.72.648 1.596.972 2.628.972 1.536 0 2.604-.648 3.204-1.944h6.552c-.336 1.32-.948 2.508-1.836 3.564-.864 1.056-1.956 1.884-3.276 2.484s-2.796.9-4.428.9c-1.968 0-3.72-.42-5.256-1.26a8.96 8.96 0 0 1-3.6-3.6c-.864-1.56-1.296-3.384-1.296-5.472s.42-3.912 1.26-5.472a8.96 8.96 0 0 1 3.6-3.6c1.536-.84 3.3-1.26 5.292-1.26 1.944 0 3.672.408 5.184 1.224a8.67 8.67 0 0 1 3.528 3.492c.864 1.512 1.296 3.276 1.296 5.292zm-6.3-1.62c0-1.056-.36-1.896-1.08-2.52s-1.62-.936-2.7-.936c-1.032 0-1.908.3-2.628.9-.696.6-1.128 1.452-1.296 2.556h7.704zm17.72 12.276c-1.752 0-3.312-.3-4.68-.9s-2.448-1.416-3.24-2.448c-.792-1.056-1.236-2.232-1.332-3.528h6.084c.072.696.396 1.26.972 1.692s1.284.648 2.124.648c.768 0 1.356-.144 1.764-.432.432-.312.648-.708.648-1.188 0-.576-.3-.996-.9-1.26-.6-.288-1.572-.6-2.916-.936-1.44-.336-2.64-.684-3.6-1.044-.96-.384-1.788-.972-2.484-1.764-.696-.816-1.044-1.908-1.044-3.276 0-1.152.312-2.196.936-3.132.648-.96 1.584-1.716 2.808-2.268 1.248-.552 2.724-.828 4.428-.828 2.52 0 4.5.624 5.94 1.872 1.464 1.248 2.304 2.904 2.52 4.968h-5.688c-.096-.696-.408-1.248-.936-1.656-.504-.408-1.176-.612-2.016-.612-.72 0-1.272.144-1.656.432-.384.264-.576.636-.576 1.116 0 .576.3 1.008.9 1.296.624.288 1.584.576 2.88.864 1.488.384 2.7.768 3.636 1.152.936.36 1.752.96 2.448 1.8.72.816 1.092 1.92 1.116 3.312 0 1.176-.336 2.232-1.008 3.168-.648.912-1.596 1.632-2.844 2.16-1.224.528-2.652.792-4.284.792zm20.074 0c-1.752 0-3.312-.3-4.68-.9s-2.448-1.416-3.24-2.448c-.792-1.056-1.236-2.232-1.332-3.528h6.084c.072.696.396 1.26.972 1.692s1.284.648 2.124.648c.768 0 1.356-.144 1.764-.432.432-.312.648-.708.648-1.188 0-.576-.3-.996-.9-1.26-.6-.288-1.572-.6-2.916-.936-1.44-.336-2.64-.684-3.6-1.044-.96-.384-1.788-.972-2.484-1.764-.696-.816-1.044-1.908-1.044-3.276 0-1.152.312-2.196.936-3.132.648-.96 1.584-1.716 2.808-2.268 1.248-.552 2.724-.828 4.428-.828 2.52 0 4.5.624 5.94 1.872 1.464 1.248 2.304 2.904 2.52 4.968h-5.688c-.096-.696-.408-1.248-.936-1.656-.504-.408-1.176-.612-2.016-.612-.72 0-1.272.144-1.656.432-.384.264-.576.636-.576 1.116 0 .576.3 1.008.9 1.296.624.288 1.584.576 2.88.864 1.488.384 2.7.768 3.636 1.152.936.36 1.752.96 2.448 1.8.72.816 1.092 1.92 1.116 3.312 0 1.176-.336 2.232-1.008 3.168-.648.912-1.596 1.632-2.844 2.16-1.224.528-2.652.792-4.284.792zm25.687-20.628v5.112h8.244v4.752h-8.244v5.544h9.324V146h-15.48v-25.272h15.48v4.932h-9.324zm12.096 10.26c0-2.064.384-3.876 1.152-5.436.792-1.56 1.86-2.76 3.204-3.6s2.844-1.26 4.5-1.26c1.416 0 2.652.288 3.708.864 1.08.576 1.908 1.332 2.484 2.268v-2.844h6.156V146h-6.156v-2.844c-.6.936-1.44 1.692-2.52 2.268-1.056.576-2.292.864-3.708.864-1.632 0-3.12-.42-4.464-1.26-1.344-.864-2.412-2.076-3.204-3.636-.768-1.584-1.152-3.408-1.152-5.472zm15.048.036c0-1.536-.432-2.748-1.296-3.636-.84-.888-1.872-1.332-3.096-1.332s-2.268.444-3.132 1.332c-.84.864-1.26 2.064-1.26 3.6s.42 2.76 1.26 3.672c.864.888 1.908 1.332 3.132 1.332s2.256-.444 3.096-1.332c.864-.888 1.296-2.1 1.296-3.636zm18.782 10.332c-1.752 0-3.312-.3-4.68-.9s-2.448-1.416-3.24-2.448c-.792-1.056-1.236-2.232-1.332-3.528h6.084c.072.696.396 1.26.972 1.692s1.284.648 2.124.648c.768 0 1.356-.144 1.764-.432.432-.312.648-.708.648-1.188 0-.576-.3-.996-.9-1.26-.6-.288-1.572-.6-2.916-.936-1.44-.336-2.64-.684-3.6-1.044-.96-.384-1.788-.972-2.484-1.764-.696-.816-1.044-1.908-1.044-3.276 0-1.152.312-2.196.936-3.132.648-.96 1.584-1.716 2.808-2.268 1.248-.552 2.724-.828 4.428-.828 2.52 0 4.5.624 5.94 1.872 1.464 1.248 2.304 2.904 2.52 4.968h-5.688c-.096-.696-.408-1.248-.936-1.656-.504-.408-1.176-.612-2.016-.612-.72 0-1.272.144-1.656.432-.384.264-.576.636-.576 1.116 0 .576.3 1.008.9 1.296.624.288 1.584.576 2.88.864 1.488.384 2.7.768 3.636 1.152.936.36 1.752.96 2.448 1.8.72.816 1.092 1.92 1.116 3.312 0 1.176-.336 2.232-1.008 3.168-.648.912-1.596 1.632-2.844 2.16-1.224.528-2.652.792-4.284.792zm14.998-22.464c-1.08 0-1.968-.312-2.664-.936a3.17 3.17 0 0 1-1.008-2.376c0-.96.336-1.752 1.008-2.376.696-.648 1.584-.972 2.664-.972 1.056 0 1.92.324 2.592.972.696.624 1.044 1.416 1.044 2.376a3.12 3.12 0 0 1-1.044 2.376c-.672.624-1.536.936-2.592.936zm3.06 2.088V146h-6.156v-20.088h6.156zm23.397 9.72c0 .576-.036 1.176-.108 1.8h-13.932c.096 1.248.492 2.208 1.188 2.88.72.648 1.596.972 2.628.972 1.536 0 2.604-.648 3.204-1.944h6.552c-.336 1.32-.948 2.508-1.836 3.564-.864 1.056-1.956 1.884-3.276 2.484s-2.796.9-4.428.9c-1.968 0-3.72-.42-5.256-1.26a8.96 8.96 0 0 1-3.6-3.6c-.864-1.56-1.296-3.384-1.296-5.472s.42-3.912 1.26-5.472a8.96 8.96 0 0 1 3.6-3.6c1.536-.84 3.3-1.26 5.292-1.26 1.944 0 3.672.408 5.184 1.224a8.67 8.67 0 0 1 3.528 3.492c.864 1.512 1.296 3.276 1.296 5.292zm-6.3-1.62c0-1.056-.36-1.896-1.08-2.52s-1.62-.936-2.7-.936c-1.032 0-1.908.3-2.628.9-.696.6-1.128 1.452-1.296 2.556h7.704zm15.704-4.752c.72-1.104 1.62-1.968 2.7-2.592 1.08-.648 2.28-.972 3.6-.972v6.516h-1.692c-1.536 0-2.688.336-3.456 1.008-.768.648-1.152 1.8-1.152 3.456V146h-6.156v-20.088h6.156v3.348zm51.65-8.532L1008.53 146h-7.45l-4.035-16.632L992.869 146h-7.452l-6.408-25.272h6.588l3.636 18.396 4.5-18.396h6.767l4.32 18.396 3.67-18.396h6.63zm6.18 3.096c-1.08 0-1.97-.312-2.66-.936-.68-.648-1.01-1.44-1.01-2.376 0-.96.33-1.752 1.01-2.376.69-.648 1.58-.972 2.66-.972 1.06 0 1.92.324 2.59.972.7.624 1.05 1.416 1.05 2.376 0 .936-.35 1.728-1.05 2.376-.67.624-1.53.936-2.59.936zm3.06 2.088V146h-6.16v-20.088h6.16zm15.66 14.868V146h-3.13c-2.24 0-3.98-.54-5.22-1.62-1.25-1.104-1.88-2.892-1.88-5.364v-7.992h-2.44v-5.112h2.44v-4.896h6.16v4.896h4.03v5.112h-4.03v8.064c0 .6.14 1.032.43 1.296s.77.396 1.44.396h2.2zm15.77-15.084c2.31 0 4.16.768 5.55 2.304 1.39 1.512 2.09 3.6 2.09 6.264V146h-6.12v-10.908c0-1.344-.35-2.388-1.05-3.132-.69-.744-1.63-1.116-2.81-1.116-1.17 0-2.11.372-2.8 1.116-.7.744-1.05 1.788-1.05 3.132V146h-6.15v-26.64h6.15v9.252c.63-.888 1.48-1.596 2.56-2.124s2.29-.792 3.63-.792zm31.5 20.556c-2.38 0-4.56-.552-6.56-1.656-1.96-1.104-3.54-2.64-4.71-4.608-1.15-1.992-1.73-4.224-1.73-6.696s.58-4.692 1.73-6.66c1.17-1.968 2.75-3.504 4.71-4.608 2-1.104 4.18-1.656 6.56-1.656 2.37 0 4.54.552 6.51 1.656a12.02 12.02 0 0 1 4.68 4.608c1.15 1.968 1.73 4.188 1.73 6.66s-.58 4.704-1.73 6.696c-1.15 1.968-2.71 3.504-4.68 4.608s-4.14 1.656-6.51 1.656zm0-5.616c2.01 0 3.62-.672 4.82-2.016 1.22-1.344 1.84-3.12 1.84-5.328 0-2.232-.62-4.008-1.84-5.328-1.2-1.344-2.81-2.016-4.82-2.016-2.04 0-3.68.66-4.9 1.98-1.2 1.32-1.8 3.108-1.8 5.364 0 2.232.6 4.02 1.8 5.364 1.22 1.32 2.86 1.98 4.9 1.98zm36.18-14.724V146h-6.16v-2.736c-.62.888-1.47 1.608-2.55 2.16-1.06.528-2.23.792-3.53.792-1.54 0-2.89-.336-4.07-1.008-1.17-.696-2.09-1.692-2.73-2.988-.65-1.296-.98-2.82-.98-4.572v-11.736h6.12v10.908c0 1.344.35 2.388 1.05 3.132.69.744 1.63 1.116 2.81 1.116 1.2 0 2.14-.372 2.84-1.116s1.04-1.788 1.04-3.132v-10.908h6.16zm10.58 3.348c.72-1.104 1.62-1.968 2.7-2.592 1.08-.648 2.28-.972 3.6-.972v6.516h-1.69c-1.54 0-2.69.336-3.46 1.008-.77.648-1.15 1.8-1.15 3.456V146h-6.16v-20.088h6.16v3.348zm-916.609 83.38h-16l-2.432 7.36h-13.184l16.448-45.12h14.464L233.121 220h-13.248l-2.432-7.36zm-3.136-9.6l-4.864-14.592-4.8 14.592h9.664zm20.856-1.024c0-3.712.661-6.955 1.984-9.728 1.365-2.773 3.221-4.907 5.568-6.4s4.949-2.24 7.808-2.24c2.304 0 4.352.491 6.144 1.472 1.835.939 3.264 2.24 4.288 3.904V172.64h12.608V220h-12.608v-4.992c-.981 1.664-2.368 2.987-4.16 3.968s-3.904 1.472-6.336 1.472c-2.859 0-5.461-.747-7.808-2.24-2.304-1.493-4.139-3.627-5.504-6.4-1.323-2.816-1.984-6.08-1.984-9.792zm25.856 0c0-2.304-.64-4.117-1.92-5.44-1.237-1.323-2.773-1.984-4.608-1.984-1.877 0-3.435.661-4.672 1.984-1.237 1.28-1.856 3.093-1.856 5.44 0 2.304.619 4.139 1.856 5.504 1.237 1.323 2.795 1.984 4.672 1.984 1.835 0 3.371-.661 4.608-1.984 1.28-1.323 1.92-3.157 1.92-5.504zm66.604-18.24c4.523 0 8.064 1.365 10.624 4.096 2.603 2.731 3.904 6.464 3.904 11.2V220h-12.544v-19.264c0-1.92-.533-3.413-1.6-4.48s-2.517-1.6-4.352-1.6-3.285.533-4.352 1.6-1.6 2.56-1.6 4.48V220h-12.544v-19.264c0-1.92-.533-3.413-1.6-4.48-1.024-1.067-2.453-1.6-4.288-1.6-1.877 0-3.349.533-4.416 1.6s-1.6 2.56-1.6 4.48V220h-12.544v-35.904h12.544v4.736c1.109-1.536 2.539-2.752 4.288-3.648 1.792-.939 3.84-1.408 6.144-1.408 2.645 0 4.992.576 7.04 1.728 2.091 1.152 3.733 2.773 4.928 4.864 1.28-1.963 2.965-3.541 5.056-4.736 2.091-1.237 4.395-1.856 6.912-1.856zm27.737-3.008c-2.219 0-4.011-.597-5.376-1.792-1.323-1.237-1.984-2.773-1.984-4.608 0-1.877.661-3.435 1.984-4.672 1.365-1.237 3.157-1.856 5.376-1.856 2.176 0 3.925.619 5.248 1.856 1.365 1.237 2.048 2.795 2.048 4.672 0 1.835-.683 3.371-2.048 4.608-1.323 1.195-3.072 1.792-5.248 1.792zm6.208 3.328V220h-12.544v-35.904h12.544zm22.439 36.352c-3.243 0-6.144-.533-8.704-1.6-2.517-1.109-4.523-2.603-6.016-4.48-1.451-1.92-2.261-4.075-2.432-6.464h12.16c.171 1.152.704 2.048 1.6 2.688s2.005.96 3.328.96c1.024 0 1.835-.213 2.432-.64s.896-.981.896-1.664c0-.896-.491-1.557-1.472-1.984s-2.603-.896-4.864-1.408c-2.56-.512-4.693-1.088-6.4-1.728s-3.2-1.685-4.48-3.136c-1.237-1.451-1.856-3.413-1.856-5.888 0-2.133.576-4.053 1.728-5.76 1.152-1.749 2.837-3.136 5.056-4.16 2.261-1.024 4.971-1.536 8.128-1.536 4.693 0 8.384 1.152 11.072 3.456s4.245 5.333 4.672 9.088h-11.328c-.213-1.152-.725-2.027-1.536-2.624-.768-.64-1.813-.96-3.136-.96-1.024 0-1.813.192-2.368.576-.512.384-.768.917-.768 1.6 0 .853.491 1.515 1.472 1.984.981.427 2.56.875 4.736 1.344 2.603.555 4.757 1.173 6.464 1.856 1.749.683 3.264 1.792 4.544 3.328 1.323 1.493 1.984 3.541 1.984 6.144a9.2 9.2 0 0 1-1.856 5.632c-1.195 1.664-2.923 2.987-5.184 3.968-2.219.939-4.843 1.408-7.872 1.408zm36.375 0c-3.243 0-6.144-.533-8.704-1.6-2.517-1.109-4.523-2.603-6.016-4.48-1.451-1.92-2.261-4.075-2.432-6.464h12.16c.171 1.152.704 2.048 1.6 2.688s2.005.96 3.328.96c1.024 0 1.835-.213 2.432-.64s.896-.981.896-1.664c0-.896-.491-1.557-1.472-1.984s-2.603-.896-4.864-1.408c-2.56-.512-4.693-1.088-6.4-1.728s-3.2-1.685-4.48-3.136c-1.237-1.451-1.856-3.413-1.856-5.888 0-2.133.576-4.053 1.728-5.76 1.152-1.749 2.837-3.136 5.056-4.16 2.261-1.024 4.971-1.536 8.128-1.536 4.693 0 8.384 1.152 11.072 3.456s4.245 5.333 4.672 9.088H423.9c-.213-1.152-.725-2.027-1.536-2.624-.768-.64-1.813-.96-3.136-.96-1.024 0-1.813.192-2.368.576-.512.384-.768.917-.768 1.6 0 .853.491 1.515 1.472 1.984.981.427 2.56.875 4.736 1.344 2.603.555 4.757 1.173 6.464 1.856 1.749.683 3.264 1.792 4.544 3.328 1.323 1.493 1.984 3.541 1.984 6.144a9.2 9.2 0 0 1-1.856 5.632c-1.195 1.664-2.923 2.987-5.184 3.968-2.219.939-4.843 1.408-7.872 1.408zm27.415-39.68c-2.219 0-4.011-.597-5.376-1.792-1.323-1.237-1.984-2.773-1.984-4.608 0-1.877.661-3.435 1.984-4.672 1.365-1.237 3.157-1.856 5.376-1.856 2.176 0 3.925.619 5.248 1.856 1.365 1.237 2.048 2.795 2.048 4.672 0 1.835-.683 3.371-2.048 4.608-1.323 1.195-3.072 1.792-5.248 1.792zm6.208 3.328V220h-12.544v-35.904h12.544zm23.848 36.352c-3.584 0-6.806-.747-9.664-2.24-2.816-1.493-5.035-3.627-6.656-6.4s-2.432-6.037-2.432-9.792c0-3.712.81-6.955 2.432-9.728 1.664-2.773 3.904-4.907 6.72-6.4 2.858-1.493 6.08-2.24 9.664-2.24s6.784.747 9.6 2.24c2.858 1.493 5.098 3.627 6.72 6.4 1.664 2.773 2.496 6.016 2.496 9.728s-.832 6.976-2.496 9.792c-1.622 2.773-3.862 4.907-6.72 6.4s-6.08 2.24-9.664 2.24zm0-10.88c1.749 0 3.2-.64 4.352-1.92 1.194-1.323 1.792-3.2 1.792-5.632s-.598-4.288-1.792-5.568c-1.152-1.28-2.582-1.92-4.288-1.92s-3.136.64-4.288 1.92-1.728 3.136-1.728 5.568c0 2.475.554 4.352 1.663 5.632s2.539 1.92 4.289 1.92zm47.471-25.792c4.139 0 7.424 1.387 9.856 4.16 2.432 2.731 3.648 6.443 3.648 11.136V220h-12.544v-19.264c0-2.048-.533-3.648-1.6-4.8-1.067-1.195-2.496-1.792-4.288-1.792-1.877 0-3.349.597-4.416 1.792-1.067 1.152-1.6 2.752-1.6 4.8V220h-12.544v-35.904h12.544v5.12c1.109-1.621 2.603-2.923 4.48-3.904 1.877-1.024 4.032-1.536 6.464-1.536zm35.683 36.672c-3.243 0-6.144-.533-8.704-1.6-2.517-1.109-4.523-2.603-6.016-4.48-1.451-1.92-2.261-4.075-2.432-6.464h12.16c.171 1.152.704 2.048 1.6 2.688s2.005.96 3.328.96c1.024 0 1.835-.213 2.432-.64s.896-.981.896-1.664c0-.896-.491-1.557-1.472-1.984s-2.603-.896-4.864-1.408c-2.56-.512-4.693-1.088-6.4-1.728s-3.2-1.685-4.48-3.136c-1.237-1.451-1.856-3.413-1.856-5.888 0-2.133.576-4.053 1.728-5.76 1.152-1.749 2.837-3.136 5.056-4.16 2.261-1.024 4.971-1.536 8.128-1.536 4.693 0 8.384 1.152 11.072 3.456s4.245 5.333 4.672 9.088h-11.328c-.213-1.152-.725-2.027-1.536-2.624-.768-.64-1.813-.96-3.136-.96-1.024 0-1.813.192-2.368.576-.512.384-.768.917-.768 1.6 0 .853.491 1.515 1.472 1.984.981.427 2.56.875 4.736 1.344 2.603.555 4.757 1.173 6.464 1.856 1.749.683 3.264 1.792 4.544 3.328 1.323 1.493 1.984 3.541 1.984 6.144a9.2 9.2 0 0 1-1.856 5.632c-1.195 1.664-2.923 2.987-5.184 3.968-2.219.939-4.843 1.408-7.872 1.408zm31.793-23.104c0-4.437.917-8.384 2.752-11.84 1.877-3.499 4.523-6.208 7.936-8.128 3.413-1.963 7.339-2.944 11.776-2.944 5.632 0 10.368 1.515 14.208 4.544 3.84 2.987 6.315 7.061 7.424 12.224H623.39c-.811-1.707-1.941-3.008-3.392-3.904-1.408-.896-3.051-1.344-4.928-1.344-2.901 0-5.227 1.045-6.976 3.136-1.707 2.048-2.56 4.8-2.56 8.256 0 3.499.853 6.293 2.56 8.384 1.749 2.048 4.075 3.072 6.976 3.072 1.877 0 3.52-.448 4.928-1.344 1.451-.896 2.581-2.197 3.392-3.904h13.504c-1.109 5.163-3.584 9.259-7.424 12.288-3.84 2.987-8.576 4.48-14.208 4.48-4.437 0-8.363-.96-11.776-2.88a20.48 20.48 0 0 1-7.936-8.128c-1.835-3.499-2.752-7.488-2.752-11.968zm66.74 23.104c-3.584 0-6.805-.747-9.664-2.24-2.816-1.493-5.035-3.627-6.656-6.4s-2.432-6.037-2.432-9.792c0-3.712.811-6.955 2.432-9.728 1.664-2.773 3.904-4.907 6.72-6.4 2.859-1.493 6.08-2.24 9.664-2.24s6.784.747 9.6 2.24c2.859 1.493 5.099 3.627 6.72 6.4 1.664 2.773 2.496 6.016 2.496 9.728s-.832 6.976-2.496 9.792c-1.621 2.773-3.861 4.907-6.72 6.4s-6.08 2.24-9.664 2.24zm0-10.88c1.749 0 3.2-.64 4.352-1.92 1.195-1.323 1.792-3.2 1.792-5.632s-.597-4.288-1.792-5.568c-1.152-1.28-2.581-1.92-4.288-1.92s-3.136.64-4.288 1.92-1.728 3.136-1.728 5.568c0 2.475.555 4.352 1.664 5.632s2.539 1.92 4.288 1.92zm47.472-25.792c4.138 0 7.424 1.387 9.856 4.16 2.432 2.731 3.648 6.443 3.648 11.136V220H707.97v-19.264c0-2.048-.534-3.648-1.6-4.8-1.067-1.195-2.496-1.792-4.288-1.792-1.878 0-3.35.597-4.416 1.792-1.067 1.152-1.6 2.752-1.6 4.8V220h-12.544v-35.904h12.544v5.12c1.109-1.621 2.602-2.923 4.48-3.904 1.877-1.024 4.032-1.536 6.464-1.536zm35.683 36.672c-3.243 0-6.144-.533-8.704-1.6-2.518-1.109-4.523-2.603-6.016-4.48a11.91 11.91 0 0 1-2.432-6.464h12.16c.17 1.152.704 2.048 1.6 2.688s2.005.96 3.327.96c1.025 0 1.835-.213 2.433-.64s.896-.981.896-1.664c0-.896-.491-1.557-1.472-1.984s-2.603-.896-4.864-1.408c-2.56-.512-4.694-1.088-6.401-1.728s-3.199-1.685-4.479-3.136c-1.238-1.451-1.856-3.413-1.856-5.888 0-2.133.576-4.053 1.728-5.76 1.152-1.749 2.837-3.136 5.056-4.16 2.261-1.024 4.97-1.536 8.128-1.536 4.693 0 8.384 1.152 11.072 3.456s4.245 5.333 4.672 9.088h-11.328c-.214-1.152-.726-2.027-1.536-2.624-.768-.64-1.814-.96-3.136-.96-1.024 0-1.814.192-2.368.576-.512.384-.768.917-.768 1.6 0 .853.49 1.515 1.472 1.984.981.427 2.56.875 4.736 1.344 2.602.555 4.757 1.173 6.464 1.856 1.749.683 3.264 1.792 4.544 3.328 1.322 1.493 1.983 3.541 1.983 6.144a9.2 9.2 0 0 1-1.855 5.632c-1.195 1.664-2.923 2.987-5.184 3.968-2.219.939-4.843 1.408-7.872 1.408zm57.815-36.352V220H787.9v-5.12c-1.067 1.621-2.539 2.944-4.416 3.968-1.878.981-4.032 1.472-6.464 1.472-4.182 0-7.488-1.365-9.92-4.096-2.39-2.773-3.584-6.528-3.584-11.264v-20.864h12.48v19.264c0 2.048.533 3.669 1.6 4.864 1.109 1.152 2.56 1.728 4.352 1.728 1.834 0 3.285-.576 4.352-1.728 1.066-1.195 1.6-2.816 1.6-4.864v-19.264h12.608zm19.683-11.456V220h-12.544v-47.36h12.544zm28.327 36.672V220h-5.44c-9.173 0-13.76-4.544-13.76-13.632v-11.84h-4.416v-10.432h4.416v-8.704h12.608v8.704h6.528v10.432h-6.528v12.032c0 .981.213 1.685.64 2.112.469.427 1.237.64 2.304.64h3.648zm12.09-28.544c-2.219 0-4.011-.597-5.376-1.792-1.323-1.237-1.984-2.773-1.984-4.608 0-1.877.661-3.435 1.984-4.672 1.365-1.237 3.157-1.856 5.376-1.856 2.176 0 3.925.619 5.248 1.856 1.365 1.237 2.048 2.795 2.048 4.672 0 1.835-.683 3.371-2.048 4.608-1.323 1.195-3.072 1.792-5.248 1.792zm6.208 3.328V220h-12.544v-35.904h12.544zm30.631-.32c4.139 0 7.424 1.387 9.856 4.16 2.432 2.731 3.648 6.443 3.648 11.136V220h-12.544v-19.264c0-2.048-.533-3.648-1.6-4.8-1.067-1.195-2.496-1.792-4.288-1.792-1.877 0-3.349.597-4.416 1.792-1.067 1.152-1.6 2.752-1.6 4.8V220h-12.544v-35.904h12.544v5.12c1.109-1.621 2.603-2.923 4.48-3.904 1.877-1.024 4.032-1.536 6.464-1.536zm33.635-.128c2.432 0 4.544.491 6.336 1.472 1.835.981 3.243 2.304 4.224 3.968v-4.992h12.544v35.52c0 3.371-.64 6.4-1.92 9.088-1.28 2.731-3.285 4.907-6.016 6.528-2.688 1.621-6.101 2.432-10.24 2.432-5.547 0-9.984-1.301-13.312-3.904s-5.227-6.144-5.696-10.624h12.352c.256 1.152.896 2.048 1.92 2.688s2.347.96 3.968.96c4.267 0 6.4-2.389 6.4-7.168v-4.608c-.981 1.664-2.389 2.987-4.224 3.968-1.792.981-3.904 1.472-6.336 1.472-2.859 0-5.461-.747-7.808-2.24-2.304-1.493-4.139-3.627-5.504-6.4-1.323-2.816-1.984-6.08-1.984-9.792s.661-6.955 1.984-9.728c1.365-2.773 3.2-4.907 5.504-6.4 2.347-1.493 4.949-2.24 7.808-2.24zm10.56 18.368c0-2.304-.64-4.117-1.92-5.44-1.237-1.323-2.773-1.984-4.608-1.984-1.877 0-3.435.661-4.672 1.984-1.237 1.28-1.856 3.093-1.856 5.44 0 2.304.619 4.139 1.856 5.504 1.237 1.323 2.795 1.984 4.672 1.984 1.835 0 3.371-.661 4.608-1.984 1.28-1.323 1.92-3.157 1.92-5.504zm48.966 18.432c-5.248 0-9.557-1.237-12.928-3.712-3.371-2.517-5.184-6.101-5.44-10.752h13.376c.128 1.579.597 2.731 1.408 3.456s1.856 1.088 3.136 1.088c1.152 0 2.091-.277 2.816-.832.768-.597 1.152-1.408 1.152-2.432 0-1.323-.619-2.347-1.856-3.072s-3.243-1.536-6.016-2.432c-2.944-.981-5.333-1.92-7.168-2.816-1.792-.939-3.371-2.283-4.736-4.032-1.323-1.792-1.984-4.117-1.984-6.976 0-2.901.725-5.376 2.176-7.424 1.451-2.091 3.456-3.669 6.016-4.736s5.461-1.6 8.704-1.6c5.248 0 9.429 1.237 12.546 3.712 3.16 2.432 4.84 5.867 5.05 10.304h-13.628c-.043-1.365-.469-2.389-1.28-3.072-.768-.683-1.771-1.024-3.008-1.024-.939 0-1.707.277-2.304.832s-.896 1.344-.896 2.368c0 .853.32 1.6.96 2.24.683.597 1.515 1.131 2.496 1.6.981.427 2.432.981 4.352 1.664 2.859.981 5.205 1.963 7.038 2.944 1.88.939 3.48 2.283 4.8 4.032 1.37 1.707 2.05 3.883 2.05 6.528 0 2.688-.68 5.099-2.05 7.232-1.32 2.133-3.26 3.819-5.822 5.056-2.517 1.237-5.504 1.856-8.96 1.856zm56.972-18.816a22.4 22.4 0 0 1-.2 2.944h-23.74c.13 1.963.66 3.435 1.6 4.416.98.939 2.22 1.408 3.71 1.408 2.09 0 3.59-.939 4.48-2.816h13.38c-.56 2.475-1.65 4.693-3.27 6.656-1.58 1.92-3.58 3.435-6.01 4.544s-5.12 1.664-8.07 1.664c-3.54 0-6.7-.747-9.47-2.24-2.73-1.493-4.88-3.627-6.46-6.4-1.54-2.773-2.31-6.037-2.31-9.792s.77-6.997 2.31-9.728c1.53-2.773 3.67-4.907 6.4-6.4 2.77-1.493 5.95-2.24 9.53-2.24 3.54 0 6.68.725 9.41 2.176s4.87 3.541 6.4 6.272c1.54 2.688 2.31 5.867 2.31 9.536zm-12.8-3.136c0-1.536-.52-2.731-1.54-3.584-1.02-.896-2.3-1.344-3.84-1.344s-2.8.427-3.78 1.28c-.98.811-1.62 2.027-1.92 3.648h11.08zm30.47-8.064c1.41-2.048 3.12-3.669 5.12-4.864 2.01-1.195 4.16-1.792 6.47-1.792v13.376h-3.52c-2.73 0-4.76.533-6.08 1.6-1.33 1.067-1.99 2.923-1.99 5.568V220h-12.54v-35.904h12.54v6.336zm33.3 17.728l6.72-24.064h13.38L1106.29 220h-15.61l-12.35-35.904h13.37l6.85 24.064zm30.68-27.392c-2.22 0-4.01-.597-5.37-1.792-1.33-1.237-1.99-2.773-1.99-4.608 0-1.877.66-3.435 1.99-4.672 1.36-1.237 3.15-1.856 5.37-1.856 2.18 0 3.93.619 5.25 1.856 1.37 1.237 2.05 2.795 2.05 4.672 0 1.835-.68 3.371-2.05 4.608-1.32 1.195-3.07 1.792-5.25 1.792zm6.21 3.328V220h-12.54v-35.904h12.54zm5.1 17.92c0-3.712.76-6.955 2.3-9.728s3.67-4.907 6.4-6.4c2.77-1.493 5.93-2.24 9.47-2.24 4.57 0 8.41 1.259 11.52 3.776 3.12 2.475 5.12 5.952 6.02 10.432h-13.31c-.77-2.347-2.27-3.52-4.48-3.52-1.58 0-2.84.661-3.78 1.984-.9 1.28-1.34 3.179-1.34 5.696s.44 4.437 1.34 5.76c.94 1.323 2.2 1.984 3.78 1.984 2.26 0 3.75-1.173 4.48-3.52h13.31c-.9 4.437-2.9 7.915-6.02 10.432-3.11 2.517-6.95 3.776-11.52 3.776-3.54 0-6.7-.747-9.47-2.24-2.73-1.493-4.86-3.627-6.4-6.4s-2.3-6.037-2.3-9.792zm75.22-.384c0 .981-.06 1.963-.19 2.944h-23.74c.13 1.963.66 3.435 1.6 4.416.98.939 2.22 1.408 3.71 1.408 2.09 0 3.58-.939 4.48-2.816H1215c-.56 2.475-1.65 4.693-3.27 6.656-1.58 1.92-3.58 3.435-6.01 4.544-2.44 1.109-5.12 1.664-8.07 1.664-3.54 0-6.7-.747-9.47-2.24-2.73-1.493-4.89-3.627-6.46-6.4-1.54-2.773-2.31-6.037-2.31-9.792s.77-6.997 2.31-9.728c1.53-2.773 3.66-4.907 6.4-6.4 2.77-1.493 5.95-2.24 9.53-2.24 3.54 0 6.68.725 9.41 2.176s4.86 3.541 6.4 6.272c1.54 2.688 2.3 5.867 2.3 9.536zm-12.8-3.136c0-1.536-.51-2.731-1.53-3.584-1.03-.896-2.31-1.344-3.84-1.344-1.54 0-2.8.427-3.78 1.28-.98.811-1.62 2.027-1.92 3.648h11.07zm33.23 21.952c-3.24 0-6.14-.533-8.7-1.6-2.52-1.109-4.52-2.603-6.02-4.48-1.45-1.92-2.26-4.075-2.43-6.464h12.16c.17 1.152.7 2.048 1.6 2.688s2.01.96 3.33.96c1.02 0 1.83-.213 2.43-.64s.9-.981.9-1.664c0-.896-.49-1.557-1.48-1.984-.98-.427-2.6-.896-4.86-1.408-2.56-.512-4.69-1.088-6.4-1.728s-3.2-1.685-4.48-3.136c-1.24-1.451-1.86-3.413-1.86-5.888 0-2.133.58-4.053 1.73-5.76 1.15-1.749 2.84-3.136 5.06-4.16 2.26-1.024 4.97-1.536 8.13-1.536 4.69 0 8.38 1.152 11.07 3.456s4.24 5.333 4.67 9.088h-11.33c-.21-1.152-.72-2.027-1.53-2.624-.77-.64-1.82-.96-3.14-.96-1.02 0-1.81.192-2.37.576-.51.384-.77.917-.77 1.6 0 .853.5 1.515 1.48 1.984.98.427 2.56.875 4.73 1.344 2.61.555 4.76 1.173 6.47 1.856 1.75.683 3.26 1.792 4.54 3.328 1.32 1.493 1.98 3.541 1.98 6.144 0 2.091-.61 3.968-1.85 5.632-1.2 1.664-2.92 2.987-5.19 3.968-2.21.939-4.84 1.408-7.87 1.408z" class="C"/></g><defs><filter id="B" x="-144" y="561" width="1728" height="338" filterUnits="userSpaceOnUse" color-interpolation-filters="sRGB"><feFlood flood-opacity="0" result="A"/><feColorMatrix in="SourceAlpha" values="0 0 0 0 0 0 0 0 0 0 0 0 0 0 0 0 0 0 127 0" result="B"/><feOffset dy="-21"/><feGaussianBlur stdDeviation="12.5"/><feComposite in2="B" operator="out"/><feColorMatrix values="0 0 0 0 0 0 0 0 0 0.0175 0 0 0 0 0.4375 0 0 0 0.1 0"/><feBlend in2="A"/><feBlend in="SourceGraphic"/></filter><linearGradient id="C" x1="1859.67" y1="-753.911" x2="1859.67" y2="928.921" gradientUnits="userSpaceOnUse"><stop stop-color="#8d8dff"/><stop offset=".99" stop-color="#2b00d9"/></linearGradient><clipPath id="D"><path d="M0 0h1440v960H0z" class="C"/></clipPath><clipPath id="E"><path transform="translate(1113 380)" d="M0 0h140v124H0z" class="C"/></clipPath><clipPath id="F"><path transform="translate(214 407)" d="M0 0h80v70H0z" class="C"/></clipPath><clipPath id="G"><path transform="translate(417 266)" d="M0 0h520v422H0z" class="C"/></clipPath><path id="H" d="M1115.74 385.501c1.51 0 2.74-1.231 2.74-2.75s-1.23-2.751-2.74-2.751-2.74 1.231-2.74 2.751 1.23 2.75 2.74 2.75z"/><path id="I" d="M1115.74 415.12c1.51 0 2.74-1.231 2.74-2.75a2.75 2.75 0 0 0-2.74-2.751 2.75 2.75 0 0 0-2.74 2.751c0 1.519 1.23 2.75 2.74 2.75z"/><path id="J" d="M1253 412.37c0 1.523-1.22 2.75-2.74 2.75-1.51 0-2.74-1.227-2.74-2.75s1.23-2.751 2.74-2.751a2.74 2.74 0 0 1 2.74 2.751z"/><path id="K" d="M1149.37 474.381a2.75 2.75 0 0 0 2.74-2.751c0-1.519-1.23-2.75-2.74-2.75s-2.74 1.231-2.74 2.75a2.75 2.75 0 0 0 2.74 2.751z"/><path id="L" d="M1152.09 501.249c0 1.524-1.23 2.751-2.74 2.751-1.52 0-2.74-1.227-2.74-2.751s1.22-2.75 2.74-2.75c1.51 0 2.74 1.227 2.74 2.75z"/><path id="M" d="M215.565 410.105a1.56 1.56 0 0 0 1.565-1.552 1.56 1.56 0 0 0-3.13 0 1.56 1.56 0 0 0 1.565 1.552z"/><path id="N" d="M234.782 410.105a1.56 1.56 0 0 0 1.565-1.552 1.56 1.56 0 0 0-3.129 0c0 .857.7 1.552 1.564 1.552z"/><path id="O" d="M273.218 410.105c.864 0 1.564-.695 1.564-1.552a1.56 1.56 0 0 0-3.129 0 1.56 1.56 0 0 0 1.565 1.552z"/><path id="P" d="M294 408.553c0 .859-.698 1.552-1.565 1.552s-1.565-.693-1.565-1.552.699-1.553 1.565-1.553 1.565.693 1.565 1.553z"/><path id="Q" d="M215.565 426.826a1.56 1.56 0 0 0 1.565-1.553 1.56 1.56 0 0 0-3.13 0 1.56 1.56 0 0 0 1.565 1.553z"/><path id="R" d="M234.782 426.826a1.56 1.56 0 0 0 1.565-1.553 1.56 1.56 0 0 0-3.129 0 1.56 1.56 0 0 0 1.564 1.553z"/><path id="S" d="M273.218 426.826a1.56 1.56 0 0 0 1.564-1.553 1.56 1.56 0 0 0-3.129 0 1.56 1.56 0 0 0 1.565 1.553z"/><path id="T" d="M294 425.273c0 .86-.698 1.553-1.565 1.553s-1.565-.693-1.565-1.553.699-1.553 1.565-1.553 1.565.693 1.565 1.553z"/><path id="U" d="M255.552 475.447c0 .86-.698 1.553-1.565 1.553s-1.565-.693-1.565-1.553.699-1.552 1.565-1.552 1.565.693 1.565 1.552z"/><path id="V" d="M574.332 565.401l-2.166 24.203c-.603 5.628 3.465 10.672 9.077 11.274.415.038.848.057 1.262.057h310.068a12.61 12.61 0 0 0 12.317-11.331l2.109-24.203H574.332z"/><path id="W" d="M921.011 354.42h-6.912c5.65-.094 10.302 4.385 10.396 10.031 0 .433 0 .866-.057 1.299L904.89 589.623a12.61 12.61 0 0 1-12.317 11.33h6.855c6.384-.113 11.695-4.987 12.336-11.33L931.35 365.75c.622-5.59-3.409-10.634-9.021-11.255-.433-.056-.885-.075-1.318-.056v-.019z"/><path id="X" d="M855.547 429.496h-19.436v1.336h19.436v-1.336z"/><path id="Y" d="M877.676 429.496H858.24v1.336h19.436v-1.336z"/><path id="Z" d="M825.885 429.496h-30.19v1.336h30.19v-1.336z"/><path id="a" d="M711.549 429.891h-19.435v1.336h19.435v-1.336z"/><path id="b" d="M659.758 429.891h-30.189v1.336h30.189v-1.336z"/><path id="c" d="M434.722 539.184c.527 3.519 4.03 5.684 7.326 7.057 5.914 2.447 12.223 3.878 18.626 4.198a315.7 315.7 0 0 0 10.113-52.548c-15.801 9.805-38.815 22.924-36.065 41.293z"/><path id="d" d="M485.628 365.166s2.203-6.399 5.367-8.356 16.969.433 19.116 1.336 4.237 5.929 4.237 5.929l-28.72 1.091z"/><path id="e" d="M511.542 437.005s-.866 68.433-3.183 100.692l-8.889 117.611-17.439-.96L478 533.744l-1.751-98.075 35.274 1.318.019.018z"/><path id="f" d="M480.976 440.186s2.298 23.846 6.027 34.31c5.254 14.812 11.808 19.574 16.855 28.439 8.889 15.621 13.842 29.021 19.831 41.443 18.777 38.865 44.767 107.298 44.767 107.298l18.776-1.337-66.499-211.282-39.738 1.148-.019-.019z"/><path id="g" d="M568.324 540.256c-30.152 7.322-27.176-17.428-68.609-1.336-12.204 4.743-19.304-7.509-25.896-9.523-13.145-4.028-27.778-2.786-39.38 4.63a340.74 340.74 0 0 1 40.021-95.911c.96-7.001 3.747-21.795-3.842-63.163-1.337-7.603 6.497-14.115 14.2-14.511l4.859-.357a196.41 196.41 0 0 1 22.091.226c2.448.244 4.84.621 6.968 1.016 5.631 1.054 10.038 5.477 11.055 11.104 1.319 7.434 1.752 15 1.337 22.548-.301 7.867-1.205 18.143-3.088 32.353l-1.601 11.48 41.885 101.444z"/><path id="h" d="M522.07 352.124l7.702-4.122 21.131 27.516c9.379 16.525-3.522 16.073-7.175 13.796-8.4-5.214-7.59-12.742-10.886-19.329l-10.772-17.843v-.018z"/><path id="i" d="M526.948 364.828c8.7 6.474 17.816 12.346 27.289 17.597l.47 1.976c.735 2.974-1.111 5.985-4.086 6.701a5.51 5.51 0 0 1-2.976-.095l-2.335-.715s-30.547-8.356-31.225-17.146c-4.068-5.025 3.502-16.863 12.844-8.3l.019-.018z"/></defs></svg>