<svg width="708" height="354" viewBox="0 0 708 354" fill="none" xmlns="http://www.w3.org/2000/svg">
<circle cx="72" cy="293" r="9" fill="#4F35F2" stroke="white" stroke-width="2"/>
<circle cx="72" cy="293" r="5.33333" fill="white"/>
<circle cx="637" cy="293" r="9" fill="#4F35F2" stroke="white" stroke-width="2"/>
<circle cx="637" cy="293" r="5.33333" fill="white"/>
<path d="M637 290C637 252.048 629.693 214.468 615.496 179.404C601.299 144.341 580.49 112.482 554.258 85.6461C528.025 58.81 496.883 37.5224 462.608 22.9988C428.334 8.4752 391.598 0.999998 354.5 1C317.402 1 280.666 8.47521 246.392 22.9988C212.117 37.5224 180.975 58.81 154.742 85.6462C128.51 112.482 107.701 144.341 93.504 179.405C79.3071 214.468 72 252.048 72 290" stroke="white" stroke-width="2" stroke-linecap="round"/>
<path d="M158.129 174.152L153.737 191H148.769L146.081 179.912L143.297 191H138.329L134.057 174.152H138.449L140.873 186.416L143.873 174.152H148.385L151.265 186.416L153.713 174.152H158.129ZM159.371 184.28C159.371 182.904 159.627 181.696 160.139 180.656C160.667 179.616 161.379 178.816 162.275 178.256C163.171 177.696 164.171 177.416 165.275 177.416C166.219 177.416 167.043 177.608 167.747 177.992C168.467 178.376 169.019 178.88 169.403 179.504V177.608H173.507V191H169.403V189.104C169.003 189.728 168.443 190.232 167.723 190.616C167.019 191 166.195 191.192 165.251 191.192C164.163 191.192 163.171 190.912 162.275 190.352C161.379 189.776 160.667 188.968 160.139 187.928C159.627 186.872 159.371 185.656 159.371 184.28ZM169.403 184.304C169.403 183.28 169.115 182.472 168.539 181.88C167.979 181.288 167.291 180.992 166.475 180.992C165.659 180.992 164.963 181.288 164.387 181.88C163.827 182.456 163.547 183.256 163.547 184.28C163.547 185.304 163.827 186.12 164.387 186.728C164.963 187.32 165.659 187.616 166.475 187.616C167.291 187.616 167.979 187.32 168.539 186.728C169.115 186.136 169.403 185.328 169.403 184.304ZM184.636 177.464C186.204 177.464 187.452 177.976 188.38 179C189.324 180.008 189.796 181.4 189.796 183.176V191H185.716V183.728C185.716 182.832 185.484 182.136 185.02 181.64C184.556 181.144 183.932 180.896 183.148 180.896C182.364 180.896 181.74 181.144 181.276 181.64C180.812 182.136 180.58 182.832 180.58 183.728V191H176.476V177.608H180.58V179.384C180.996 178.792 181.556 178.328 182.26 177.992C182.964 177.64 183.756 177.464 184.636 177.464ZM200.112 187.52V191H198.024C196.536 191 195.376 190.64 194.544 189.92C193.712 189.184 193.296 187.992 193.296 186.344V181.016H191.664V177.608H193.296V174.344H197.4V177.608H200.088V181.016H197.4V186.392C197.4 186.792 197.496 187.08 197.688 187.256C197.88 187.432 198.2 187.52 198.648 187.52H200.112ZM214.948 187.52V191H212.86C211.372 191 210.212 190.64 209.38 189.92C208.548 189.184 208.132 187.992 208.132 186.344V181.016H206.5V177.608H208.132V174.344H212.236V177.608H214.924V181.016H212.236V186.392C212.236 186.792 212.332 187.08 212.524 187.256C212.716 187.432 213.036 187.52 213.484 187.52H214.948ZM223.33 191.192C222.018 191.192 220.834 190.912 219.778 190.352C218.738 189.792 217.914 188.992 217.306 187.952C216.714 186.912 216.418 185.696 216.418 184.304C216.418 182.928 216.722 181.72 217.33 180.68C217.938 179.624 218.77 178.816 219.826 178.256C220.882 177.696 222.066 177.416 223.378 177.416C224.69 177.416 225.874 177.696 226.93 178.256C227.986 178.816 228.818 179.624 229.426 180.68C230.034 181.72 230.338 182.928 230.338 184.304C230.338 185.68 230.026 186.896 229.402 187.952C228.794 188.992 227.954 189.792 226.882 190.352C225.826 190.912 224.642 191.192 223.33 191.192ZM223.33 187.64C224.114 187.64 224.778 187.352 225.322 186.776C225.882 186.2 226.162 185.376 226.162 184.304C226.162 183.232 225.89 182.408 225.346 181.832C224.818 181.256 224.162 180.968 223.378 180.968C222.578 180.968 221.914 181.256 221.386 181.832C220.858 182.392 220.594 183.216 220.594 184.304C220.594 185.376 220.85 186.2 221.362 186.776C221.89 187.352 222.546 187.64 223.33 187.64ZM242.689 177.416C243.633 177.416 244.457 177.608 245.161 177.992C245.881 178.376 246.433 178.88 246.817 179.504V177.608H250.921V190.976C250.921 192.208 250.673 193.32 250.177 194.312C249.697 195.32 248.953 196.12 247.945 196.712C246.953 197.304 245.713 197.6 244.225 197.6C242.241 197.6 240.633 197.128 239.401 196.184C238.169 195.256 237.465 193.992 237.289 192.392H241.345C241.473 192.904 241.777 193.304 242.257 193.592C242.737 193.896 243.329 194.048 244.033 194.048C244.881 194.048 245.553 193.8 246.049 193.304C246.561 192.824 246.817 192.048 246.817 190.976V189.08C246.417 189.704 245.865 190.216 245.161 190.616C244.457 191 243.633 191.192 242.689 191.192C241.585 191.192 240.585 190.912 239.689 190.352C238.793 189.776 238.081 188.968 237.553 187.928C237.041 186.872 236.785 185.656 236.785 184.28C236.785 182.904 237.041 181.696 237.553 180.656C238.081 179.616 238.793 178.816 239.689 178.256C240.585 177.696 241.585 177.416 242.689 177.416ZM246.817 184.304C246.817 183.28 246.529 182.472 245.953 181.88C245.393 181.288 244.705 180.992 243.889 180.992C243.073 180.992 242.377 181.288 241.801 181.88C241.241 182.456 240.961 183.256 240.961 184.28C240.961 185.304 241.241 186.12 241.801 186.728C242.377 187.32 243.073 187.616 243.889 187.616C244.705 187.616 245.393 187.32 245.953 186.728C246.529 186.136 246.817 185.328 246.817 184.304ZM266.514 184.088C266.514 184.472 266.49 184.872 266.442 185.288H257.154C257.218 186.12 257.482 186.76 257.946 187.208C258.426 187.64 259.01 187.856 259.698 187.856C260.722 187.856 261.434 187.424 261.834 186.56H266.202C265.978 187.44 265.57 188.232 264.978 188.936C264.402 189.64 263.674 190.192 262.794 190.592C261.914 190.992 260.93 191.192 259.842 191.192C258.53 191.192 257.362 190.912 256.338 190.352C255.314 189.792 254.514 188.992 253.938 187.952C253.362 186.912 253.074 185.696 253.074 184.304C253.074 182.912 253.354 181.696 253.914 180.656C254.49 179.616 255.29 178.816 256.314 178.256C257.338 177.696 258.514 177.416 259.842 177.416C261.138 177.416 262.29 177.688 263.298 178.232C264.306 178.776 265.09 179.552 265.65 180.56C266.226 181.568 266.514 182.744 266.514 184.088ZM262.314 183.008C262.314 182.304 262.074 181.744 261.594 181.328C261.114 180.912 260.514 180.704 259.794 180.704C259.106 180.704 258.522 180.904 258.042 181.304C257.578 181.704 257.29 182.272 257.178 183.008H262.314ZM276.143 187.52V191H274.055C272.567 191 271.407 190.64 270.575 189.92C269.743 189.184 269.327 187.992 269.327 186.344V181.016H267.695V177.608H269.327V174.344H273.431V177.608H276.119V181.016H273.431V186.392C273.431 186.792 273.527 187.08 273.719 187.256C273.911 187.432 274.231 187.52 274.679 187.52H276.143ZM289.611 191.192C288.299 191.192 287.115 190.912 286.059 190.352C285.019 189.792 284.195 188.992 283.587 187.952C282.995 186.912 282.699 185.696 282.699 184.304C282.699 182.928 283.003 181.72 283.611 180.68C284.219 179.624 285.051 178.816 286.107 178.256C287.163 177.696 288.347 177.416 289.659 177.416C290.971 177.416 292.155 177.696 293.211 178.256C294.267 178.816 295.099 179.624 295.707 180.68C296.315 181.72 296.619 182.928 296.619 184.304C296.619 185.68 296.307 186.896 295.683 187.952C295.075 188.992 294.235 189.792 293.163 190.352C292.107 190.912 290.923 191.192 289.611 191.192ZM289.611 187.64C290.395 187.64 291.059 187.352 291.603 186.776C292.163 186.2 292.443 185.376 292.443 184.304C292.443 183.232 292.171 182.408 291.627 181.832C291.099 181.256 290.443 180.968 289.659 180.968C288.859 180.968 288.195 181.256 287.667 181.832C287.139 182.392 286.875 183.216 286.875 184.304C286.875 185.376 287.131 186.2 287.643 186.776C288.171 187.352 288.827 187.64 289.611 187.64ZM306.957 177.464C308.525 177.464 309.773 177.976 310.701 179C311.645 180.008 312.117 181.4 312.117 183.176V191H308.037V183.728C308.037 182.832 307.805 182.136 307.341 181.64C306.877 181.144 306.253 180.896 305.469 180.896C304.685 180.896 304.061 181.144 303.597 181.64C303.133 182.136 302.901 182.832 302.901 183.728V191H298.797V177.608H302.901V179.384C303.317 178.792 303.877 178.328 304.581 177.992C305.285 177.64 306.077 177.464 306.957 177.464ZM319.072 179.504C319.456 178.88 320.008 178.376 320.728 177.992C321.448 177.608 322.272 177.416 323.2 177.416C324.304 177.416 325.304 177.696 326.2 178.256C327.096 178.816 327.8 179.616 328.312 180.656C328.84 181.696 329.104 182.904 329.104 184.28C329.104 185.656 328.84 186.872 328.312 187.928C327.8 188.968 327.096 189.776 326.2 190.352C325.304 190.912 324.304 191.192 323.2 191.192C322.256 191.192 321.432 191.008 320.728 190.64C320.024 190.256 319.472 189.752 319.072 189.128V191H314.968V173.24H319.072V179.504ZM324.928 184.28C324.928 183.256 324.64 182.456 324.064 181.88C323.504 181.288 322.808 180.992 321.976 180.992C321.16 180.992 320.464 181.288 319.888 181.88C319.328 182.472 319.048 183.28 319.048 184.304C319.048 185.328 319.328 186.136 319.888 186.728C320.464 187.32 321.16 187.616 321.976 187.616C322.792 187.616 323.488 187.32 324.064 186.728C324.64 186.12 324.928 185.304 324.928 184.28ZM337.354 191.192C336.042 191.192 334.858 190.912 333.802 190.352C332.762 189.792 331.938 188.992 331.33 187.952C330.738 186.912 330.442 185.696 330.442 184.304C330.442 182.928 330.746 181.72 331.354 180.68C331.962 179.624 332.794 178.816 333.85 178.256C334.906 177.696 336.09 177.416 337.402 177.416C338.714 177.416 339.898 177.696 340.954 178.256C342.01 178.816 342.842 179.624 343.45 180.68C344.058 181.72 344.362 182.928 344.362 184.304C344.362 185.68 344.05 186.896 343.426 187.952C342.818 188.992 341.978 189.792 340.906 190.352C339.85 190.912 338.666 191.192 337.354 191.192ZM337.354 187.64C338.138 187.64 338.802 187.352 339.346 186.776C339.906 186.2 340.186 185.376 340.186 184.304C340.186 183.232 339.914 182.408 339.37 181.832C338.842 181.256 338.186 180.968 337.402 180.968C336.602 180.968 335.938 181.256 335.41 181.832C334.882 182.392 334.618 183.216 334.618 184.304C334.618 185.376 334.874 186.2 335.386 186.776C335.914 187.352 336.57 187.64 337.354 187.64ZM345.723 184.28C345.723 182.904 345.979 181.696 346.491 180.656C347.019 179.616 347.731 178.816 348.627 178.256C349.523 177.696 350.523 177.416 351.627 177.416C352.571 177.416 353.395 177.608 354.099 177.992C354.819 178.376 355.371 178.88 355.755 179.504V177.608H359.859V191H355.755V189.104C355.355 189.728 354.795 190.232 354.075 190.616C353.371 191 352.547 191.192 351.603 191.192C350.515 191.192 349.523 190.912 348.627 190.352C347.731 189.776 347.019 188.968 346.491 187.928C345.979 186.872 345.723 185.656 345.723 184.28ZM355.755 184.304C355.755 183.28 355.467 182.472 354.891 181.88C354.331 181.288 353.643 180.992 352.827 180.992C352.011 180.992 351.315 181.288 350.739 181.88C350.179 182.456 349.899 183.256 349.899 184.28C349.899 185.304 350.179 186.12 350.739 186.728C351.315 187.32 352.011 187.616 352.827 187.616C353.643 187.616 354.331 187.32 354.891 186.728C355.467 186.136 355.755 185.328 355.755 184.304ZM366.932 179.84C367.412 179.104 368.012 178.528 368.732 178.112C369.452 177.68 370.252 177.464 371.132 177.464V181.808H370.004C368.98 181.808 368.212 182.032 367.7 182.48C367.188 182.912 366.932 183.68 366.932 184.784V191H362.828V177.608H366.932V179.84ZM372.277 184.28C372.277 182.904 372.533 181.696 373.045 180.656C373.573 179.616 374.285 178.816 375.181 178.256C376.077 177.696 377.077 177.416 378.181 177.416C379.061 177.416 379.861 177.6 380.581 177.968C381.317 178.336 381.893 178.832 382.309 179.456V173.24H386.413V191H382.309V189.08C381.925 189.72 381.373 190.232 380.653 190.616C379.949 191 379.125 191.192 378.181 191.192C377.077 191.192 376.077 190.912 375.181 190.352C374.285 189.776 373.573 188.968 373.045 187.928C372.533 186.872 372.277 185.656 372.277 184.28ZM382.309 184.304C382.309 183.28 382.021 182.472 381.445 181.88C380.885 181.288 380.197 180.992 379.381 180.992C378.565 180.992 377.869 181.288 377.293 181.88C376.733 182.456 376.453 183.256 376.453 184.28C376.453 185.304 376.733 186.12 377.293 186.728C377.869 187.32 378.565 187.616 379.381 187.616C380.197 187.616 380.885 187.32 381.445 186.728C382.021 186.136 382.309 185.328 382.309 184.304ZM401.932 187.52V191H399.844C398.356 191 397.196 190.64 396.364 189.92C395.532 189.184 395.116 187.992 395.116 186.344V181.016H393.484V177.608H395.116V174.344H399.22V177.608H401.908V181.016H399.22V186.392C399.22 186.792 399.316 187.08 399.508 187.256C399.7 187.432 400.02 187.52 400.468 187.52H401.932ZM410.314 191.192C409.002 191.192 407.818 190.912 406.762 190.352C405.722 189.792 404.898 188.992 404.29 187.952C403.698 186.912 403.402 185.696 403.402 184.304C403.402 182.928 403.706 181.72 404.314 180.68C404.922 179.624 405.754 178.816 406.81 178.256C407.866 177.696 409.05 177.416 410.362 177.416C411.674 177.416 412.858 177.696 413.914 178.256C414.97 178.816 415.802 179.624 416.41 180.68C417.018 181.72 417.322 182.928 417.322 184.304C417.322 185.68 417.01 186.896 416.386 187.952C415.778 188.992 414.938 189.792 413.866 190.352C412.81 190.912 411.626 191.192 410.314 191.192ZM410.314 187.64C411.098 187.64 411.762 187.352 412.306 186.776C412.866 186.2 413.146 185.376 413.146 184.304C413.146 183.232 412.874 182.408 412.33 181.832C411.802 181.256 411.146 180.968 410.362 180.968C409.562 180.968 408.898 181.256 408.37 181.832C407.842 182.392 407.578 183.216 407.578 184.304C407.578 185.376 407.834 186.2 408.346 186.776C408.874 187.352 409.53 187.64 410.314 187.64ZM423.77 184.28C423.77 182.904 424.026 181.696 424.538 180.656C425.066 179.616 425.778 178.816 426.674 178.256C427.57 177.696 428.57 177.416 429.674 177.416C430.618 177.416 431.442 177.608 432.146 177.992C432.866 178.376 433.418 178.88 433.802 179.504V177.608H437.906V191H433.802V189.104C433.402 189.728 432.842 190.232 432.122 190.616C431.418 191 430.594 191.192 429.65 191.192C428.562 191.192 427.57 190.912 426.674 190.352C425.778 189.776 425.066 188.968 424.538 187.928C424.026 186.872 423.77 185.656 423.77 184.28ZM433.802 184.304C433.802 183.28 433.514 182.472 432.938 181.88C432.378 181.288 431.69 180.992 430.874 180.992C430.058 180.992 429.362 181.288 428.786 181.88C428.226 182.456 427.946 183.256 427.946 184.28C427.946 185.304 428.226 186.12 428.786 186.728C429.362 187.32 430.058 187.616 430.874 187.616C431.69 187.616 432.378 187.32 432.938 186.728C433.514 186.136 433.802 185.328 433.802 184.304ZM451.409 191.192C450.241 191.192 449.201 190.992 448.289 190.592C447.377 190.192 446.657 189.648 446.129 188.96C445.601 188.256 445.305 187.472 445.241 186.608H449.297C449.345 187.072 449.561 187.448 449.945 187.736C450.329 188.024 450.801 188.168 451.361 188.168C451.873 188.168 452.265 188.072 452.537 187.88C452.825 187.672 452.969 187.408 452.969 187.088C452.969 186.704 452.769 186.424 452.369 186.248C451.969 186.056 451.321 185.848 450.425 185.624C449.465 185.4 448.665 185.168 448.025 184.928C447.385 184.672 446.833 184.28 446.369 183.752C445.905 183.208 445.673 182.48 445.673 181.568C445.673 180.8 445.881 180.104 446.297 179.48C446.729 178.84 447.353 178.336 448.169 177.968C449.001 177.6 449.985 177.416 451.121 177.416C452.801 177.416 454.121 177.832 455.081 178.664C456.057 179.496 456.617 180.6 456.761 181.976H452.969C452.905 181.512 452.697 181.144 452.345 180.872C452.009 180.6 451.561 180.464 451.001 180.464C450.521 180.464 450.153 180.56 449.897 180.752C449.641 180.928 449.513 181.176 449.513 181.496C449.513 181.88 449.713 182.168 450.113 182.36C450.529 182.552 451.169 182.744 452.033 182.936C453.025 183.192 453.833 183.448 454.457 183.704C455.081 183.944 455.625 184.344 456.089 184.904C456.569 185.448 456.817 186.184 456.833 187.112C456.833 187.896 456.609 188.6 456.161 189.224C455.729 189.832 455.097 190.312 454.265 190.664C453.449 191.016 452.497 191.192 451.409 191.192ZM472.567 177.608V191H468.463V189.176C468.047 189.768 467.479 190.248 466.759 190.616C466.055 190.968 465.271 191.144 464.407 191.144C463.383 191.144 462.479 190.92 461.695 190.472C460.911 190.008 460.303 189.344 459.871 188.48C459.439 187.616 459.223 186.6 459.223 185.432V177.608H463.303V184.88C463.303 185.776 463.535 186.472 463.999 186.968C464.463 187.464 465.087 187.712 465.871 187.712C466.671 187.712 467.303 187.464 467.767 186.968C468.231 186.472 468.463 185.776 468.463 184.88V177.608H472.567ZM474.699 184.304C474.699 182.912 474.979 181.696 475.539 180.656C476.115 179.616 476.907 178.816 477.915 178.256C478.939 177.696 480.107 177.416 481.419 177.416C483.099 177.416 484.499 177.856 485.619 178.736C486.755 179.616 487.499 180.856 487.851 182.456H483.483C483.115 181.432 482.403 180.92 481.347 180.92C480.595 180.92 479.995 181.216 479.547 181.808C479.099 182.384 478.875 183.216 478.875 184.304C478.875 185.392 479.099 186.232 479.547 186.824C479.995 187.4 480.595 187.688 481.347 187.688C482.403 187.688 483.115 187.176 483.483 186.152H487.851C487.499 187.72 486.755 188.952 485.619 189.848C484.483 190.744 483.083 191.192 481.419 191.192C480.107 191.192 478.939 190.912 477.915 190.352C476.907 189.792 476.115 188.992 475.539 187.952C474.979 186.912 474.699 185.696 474.699 184.304ZM489.231 184.304C489.231 182.912 489.511 181.696 490.071 180.656C490.647 179.616 491.439 178.816 492.447 178.256C493.471 177.696 494.639 177.416 495.951 177.416C497.631 177.416 499.031 177.856 500.151 178.736C501.287 179.616 502.031 180.856 502.383 182.456H498.015C497.647 181.432 496.935 180.92 495.879 180.92C495.127 180.92 494.527 181.216 494.079 181.808C493.631 182.384 493.407 183.216 493.407 184.304C493.407 185.392 493.631 186.232 494.079 186.824C494.527 187.4 495.127 187.688 495.879 187.688C496.935 187.688 497.647 187.176 498.015 186.152H502.383C502.031 187.72 501.287 188.952 500.151 189.848C499.015 190.744 497.615 191.192 495.951 191.192C494.639 191.192 493.471 190.912 492.447 190.352C491.439 189.792 490.647 188.992 490.071 187.952C489.511 186.912 489.231 185.696 489.231 184.304ZM517.202 184.088C517.202 184.472 517.178 184.872 517.13 185.288H507.842C507.906 186.12 508.17 186.76 508.634 187.208C509.114 187.64 509.698 187.856 510.386 187.856C511.41 187.856 512.122 187.424 512.522 186.56H516.89C516.666 187.44 516.258 188.232 515.666 188.936C515.09 189.64 514.362 190.192 513.482 190.592C512.602 190.992 511.618 191.192 510.53 191.192C509.218 191.192 508.05 190.912 507.026 190.352C506.002 189.792 505.202 188.992 504.626 187.952C504.05 186.912 503.762 185.696 503.762 184.304C503.762 182.912 504.042 181.696 504.602 180.656C505.178 179.616 505.978 178.816 507.002 178.256C508.026 177.696 509.202 177.416 510.53 177.416C511.826 177.416 512.978 177.688 513.986 178.232C514.994 178.776 515.778 179.552 516.338 180.56C516.914 181.568 517.202 182.744 517.202 184.088ZM513.002 183.008C513.002 182.304 512.762 181.744 512.282 181.328C511.802 180.912 511.202 180.704 510.482 180.704C509.794 180.704 509.21 180.904 508.73 181.304C508.266 181.704 507.978 182.272 507.866 183.008H513.002ZM524.815 191.192C523.647 191.192 522.607 190.992 521.695 190.592C520.783 190.192 520.063 189.648 519.535 188.96C519.007 188.256 518.711 187.472 518.647 186.608H522.703C522.751 187.072 522.967 187.448 523.351 187.736C523.735 188.024 524.207 188.168 524.767 188.168C525.279 188.168 525.671 188.072 525.943 187.88C526.231 187.672 526.375 187.408 526.375 187.088C526.375 186.704 526.175 186.424 525.775 186.248C525.375 186.056 524.727 185.848 523.831 185.624C522.871 185.4 522.071 185.168 521.431 184.928C520.791 184.672 520.239 184.28 519.775 183.752C519.311 183.208 519.079 182.48 519.079 181.568C519.079 180.8 519.287 180.104 519.703 179.48C520.135 178.84 520.759 178.336 521.575 177.968C522.407 177.6 523.391 177.416 524.527 177.416C526.207 177.416 527.527 177.832 528.487 178.664C529.463 179.496 530.023 180.6 530.167 181.976H526.375C526.311 181.512 526.103 181.144 525.751 180.872C525.415 180.6 524.967 180.464 524.407 180.464C523.927 180.464 523.559 180.56 523.303 180.752C523.047 180.928 522.919 181.176 522.919 181.496C522.919 181.88 523.119 182.168 523.519 182.36C523.935 182.552 524.575 182.744 525.439 182.936C526.431 183.192 527.239 183.448 527.863 183.704C528.487 183.944 529.031 184.344 529.495 184.904C529.975 185.448 530.223 186.184 530.239 187.112C530.239 187.896 530.015 188.6 529.567 189.224C529.135 189.832 528.503 190.312 527.671 190.664C526.855 191.016 525.903 191.192 524.815 191.192ZM538.198 191.192C537.03 191.192 535.99 190.992 535.078 190.592C534.166 190.192 533.446 189.648 532.918 188.96C532.39 188.256 532.094 187.472 532.03 186.608H536.086C536.134 187.072 536.35 187.448 536.734 187.736C537.118 188.024 537.59 188.168 538.15 188.168C538.662 188.168 539.054 188.072 539.326 187.88C539.614 187.672 539.758 187.408 539.758 187.088C539.758 186.704 539.558 186.424 539.158 186.248C538.758 186.056 538.11 185.848 537.214 185.624C536.254 185.4 535.454 185.168 534.814 184.928C534.174 184.672 533.622 184.28 533.158 183.752C532.694 183.208 532.462 182.48 532.462 181.568C532.462 180.8 532.67 180.104 533.086 179.48C533.518 178.84 534.142 178.336 534.958 177.968C535.79 177.6 536.774 177.416 537.91 177.416C539.59 177.416 540.91 177.832 541.87 178.664C542.846 179.496 543.406 180.6 543.55 181.976H539.758C539.694 181.512 539.486 181.144 539.134 180.872C538.798 180.6 538.35 180.464 537.79 180.464C537.31 180.464 536.942 180.56 536.686 180.752C536.43 180.928 536.302 181.176 536.302 181.496C536.302 181.88 536.502 182.168 536.902 182.36C537.318 182.552 537.958 182.744 538.822 182.936C539.814 183.192 540.622 183.448 541.246 183.704C541.87 183.944 542.414 184.344 542.878 184.904C543.358 185.448 543.606 186.184 543.622 187.112C543.622 187.896 543.398 188.6 542.95 189.224C542.518 189.832 541.886 190.312 541.054 190.664C540.238 191.016 539.286 191.192 538.198 191.192ZM552.853 181.016H550.645V191H546.541V181.016H545.053V177.608H546.541V177.224C546.541 175.576 547.013 174.328 547.957 173.48C548.901 172.616 550.285 172.184 552.109 172.184C552.413 172.184 552.637 172.192 552.781 172.208V175.688C551.997 175.64 551.445 175.752 551.125 176.024C550.805 176.296 550.645 176.784 550.645 177.488V177.608H552.853V181.016ZM568.005 177.608V191H563.901V189.176C563.485 189.768 562.917 190.248 562.197 190.616C561.493 190.968 560.709 191.144 559.845 191.144C558.821 191.144 557.917 190.92 557.133 190.472C556.349 190.008 555.741 189.344 555.309 188.48C554.877 187.616 554.661 186.6 554.661 185.432V177.608H558.741V184.88C558.741 185.776 558.973 186.472 559.437 186.968C559.901 187.464 560.525 187.712 561.309 187.712C562.109 187.712 562.741 187.464 563.205 186.968C563.669 186.472 563.901 185.776 563.901 184.88V177.608H568.005ZM575.057 173.24V191H570.953V173.24H575.057ZM263.153 218.36C264.129 218.568 264.913 219.056 265.505 219.824C266.097 220.576 266.393 221.44 266.393 222.416C266.393 223.824 265.897 224.944 264.905 225.776C263.929 226.592 262.561 227 260.801 227H252.953V210.152H260.537C262.249 210.152 263.585 210.544 264.545 211.328C265.521 212.112 266.009 213.176 266.009 214.52C266.009 215.512 265.745 216.336 265.217 216.992C264.705 217.648 264.017 218.104 263.153 218.36ZM257.057 216.968H259.745C260.417 216.968 260.929 216.824 261.281 216.536C261.649 216.232 261.833 215.792 261.833 215.216C261.833 214.64 261.649 214.2 261.281 213.896C260.929 213.592 260.417 213.44 259.745 213.44H257.057V216.968ZM260.081 223.688C260.769 223.688 261.297 223.536 261.665 223.232C262.049 222.912 262.241 222.456 262.241 221.864C262.241 221.272 262.041 220.808 261.641 220.472C261.257 220.136 260.721 219.968 260.033 219.968H257.057V223.688H260.081ZM279.093 216.872V220.28H268.533V216.872H279.093ZM288.791 227.168C287.559 227.168 286.455 226.968 285.479 226.568C284.503 226.168 283.719 225.576 283.127 224.792C282.551 224.008 282.247 223.064 282.215 221.96H286.583C286.647 222.584 286.863 223.064 287.231 223.4C287.599 223.72 288.079 223.88 288.671 223.88C289.279 223.88 289.759 223.744 290.111 223.472C290.463 223.184 290.639 222.792 290.639 222.296C290.639 221.88 290.495 221.536 290.207 221.264C289.935 220.992 289.591 220.768 289.175 220.592C288.775 220.416 288.199 220.216 287.447 219.992C286.359 219.656 285.471 219.32 284.783 218.984C284.095 218.648 283.503 218.152 283.007 217.496C282.511 216.84 282.263 215.984 282.263 214.928C282.263 213.36 282.831 212.136 283.967 211.256C285.103 210.36 286.583 209.912 288.407 209.912C290.263 209.912 291.759 210.36 292.895 211.256C294.031 212.136 294.639 213.368 294.719 214.952H290.279C290.247 214.408 290.047 213.984 289.679 213.68C289.311 213.36 288.839 213.2 288.263 213.2C287.767 213.2 287.367 213.336 287.063 213.608C286.759 213.864 286.607 214.24 286.607 214.736C286.607 215.28 286.863 215.704 287.375 216.008C287.887 216.312 288.687 216.64 289.775 216.992C290.863 217.36 291.743 217.712 292.415 218.048C293.103 218.384 293.695 218.872 294.191 219.512C294.687 220.152 294.935 220.976 294.935 221.984C294.935 222.944 294.687 223.816 294.191 224.6C293.711 225.384 293.007 226.008 292.079 226.472C291.151 226.936 290.055 227.168 288.791 227.168ZM296.645 220.304C296.645 218.912 296.925 217.696 297.485 216.656C298.061 215.616 298.853 214.816 299.861 214.256C300.885 213.696 302.053 213.416 303.365 213.416C305.045 213.416 306.445 213.856 307.565 214.736C308.701 215.616 309.445 216.856 309.797 218.456H305.429C305.061 217.432 304.349 216.92 303.293 216.92C302.541 216.92 301.941 217.216 301.493 217.808C301.045 218.384 300.821 219.216 300.821 220.304C300.821 221.392 301.045 222.232 301.493 222.824C301.941 223.4 302.541 223.688 303.293 223.688C304.349 223.688 305.061 223.176 305.429 222.152H309.797C309.445 223.72 308.701 224.952 307.565 225.848C306.429 226.744 305.029 227.192 303.365 227.192C302.053 227.192 300.885 226.912 299.861 226.352C298.853 225.792 298.061 224.992 297.485 223.952C296.925 222.912 296.645 221.696 296.645 220.304ZM320.224 213.464C321.76 213.464 322.992 213.976 323.92 215C324.848 216.008 325.312 217.4 325.312 219.176V227H321.232V219.728C321.232 218.832 321 218.136 320.536 217.64C320.072 217.144 319.448 216.896 318.664 216.896C317.88 216.896 317.256 217.144 316.792 217.64C316.328 218.136 316.096 218.832 316.096 219.728V227H311.992V209.24H316.096V215.408C316.512 214.816 317.08 214.344 317.8 213.992C318.52 213.64 319.328 213.464 320.224 213.464ZM334.26 227.192C332.948 227.192 331.764 226.912 330.708 226.352C329.668 225.792 328.844 224.992 328.236 223.952C327.644 222.912 327.348 221.696 327.348 220.304C327.348 218.928 327.652 217.72 328.26 216.68C328.868 215.624 329.7 214.816 330.756 214.256C331.812 213.696 332.996 213.416 334.308 213.416C335.62 213.416 336.804 213.696 337.86 214.256C338.916 214.816 339.748 215.624 340.356 216.68C340.964 217.72 341.268 218.928 341.268 220.304C341.268 221.68 340.956 222.896 340.332 223.952C339.724 224.992 338.884 225.792 337.812 226.352C336.756 226.912 335.572 227.192 334.26 227.192ZM334.26 223.64C335.044 223.64 335.708 223.352 336.252 222.776C336.812 222.2 337.092 221.376 337.092 220.304C337.092 219.232 336.82 218.408 336.276 217.832C335.748 217.256 335.092 216.968 334.308 216.968C333.508 216.968 332.844 217.256 332.316 217.832C331.788 218.392 331.524 219.216 331.524 220.304C331.524 221.376 331.78 222.2 332.292 222.776C332.82 223.352 333.476 223.64 334.26 223.64ZM349.541 227.192C348.229 227.192 347.045 226.912 345.989 226.352C344.949 225.792 344.125 224.992 343.517 223.952C342.925 222.912 342.629 221.696 342.629 220.304C342.629 218.928 342.933 217.72 343.541 216.68C344.149 215.624 344.981 214.816 346.037 214.256C347.093 213.696 348.277 213.416 349.589 213.416C350.901 213.416 352.085 213.696 353.141 214.256C354.197 214.816 355.029 215.624 355.637 216.68C356.245 217.72 356.549 218.928 356.549 220.304C356.549 221.68 356.237 222.896 355.613 223.952C355.005 224.992 354.165 225.792 353.093 226.352C352.037 226.912 350.853 227.192 349.541 227.192ZM349.541 223.64C350.325 223.64 350.989 223.352 351.533 222.776C352.093 222.2 352.373 221.376 352.373 220.304C352.373 219.232 352.101 218.408 351.557 217.832C351.029 217.256 350.373 216.968 349.589 216.968C348.789 216.968 348.125 217.256 347.597 217.832C347.069 218.392 346.805 219.216 346.805 220.304C346.805 221.376 347.061 222.2 347.573 222.776C348.101 223.352 348.757 223.64 349.541 223.64ZM362.83 209.24V227H358.726V209.24H362.83ZM381.378 224.024H375.09L374.082 227H369.786L375.882 210.152H380.634L386.73 227H382.386L381.378 224.024ZM380.322 220.856L378.234 214.688L376.17 220.856H380.322ZM387.77 220.28C387.77 218.904 388.026 217.696 388.538 216.656C389.066 215.616 389.778 214.816 390.674 214.256C391.57 213.696 392.57 213.416 393.674 213.416C394.554 213.416 395.354 213.6 396.074 213.968C396.81 214.336 397.386 214.832 397.802 215.456V209.24H401.906V227H397.802V225.08C397.418 225.72 396.866 226.232 396.146 226.616C395.442 227 394.618 227.192 393.674 227.192C392.57 227.192 391.57 226.912 390.674 226.352C389.778 225.776 389.066 224.968 388.538 223.928C388.026 222.872 387.77 221.656 387.77 220.28ZM397.802 220.304C397.802 219.28 397.514 218.472 396.938 217.88C396.378 217.288 395.69 216.992 394.874 216.992C394.058 216.992 393.362 217.288 392.786 217.88C392.226 218.456 391.946 219.256 391.946 220.28C391.946 221.304 392.226 222.12 392.786 222.728C393.362 223.32 394.058 223.616 394.874 223.616C395.69 223.616 396.378 223.32 396.938 222.728C397.514 222.136 397.802 221.328 397.802 220.304ZM421.963 213.464C423.627 213.464 424.947 213.968 425.923 214.976C426.915 215.984 427.411 217.384 427.411 219.176V227H423.331V219.728C423.331 218.864 423.099 218.2 422.635 217.736C422.187 217.256 421.563 217.016 420.763 217.016C419.963 217.016 419.331 217.256 418.867 217.736C418.419 218.2 418.195 218.864 418.195 219.728V227H414.115V219.728C414.115 218.864 413.883 218.2 413.419 217.736C412.971 217.256 412.347 217.016 411.547 217.016C410.747 217.016 410.115 217.256 409.651 217.736C409.203 218.2 408.979 218.864 408.979 219.728V227H404.875V213.608H408.979V215.288C409.395 214.728 409.939 214.288 410.611 213.968C411.283 213.632 412.043 213.464 412.891 213.464C413.899 213.464 414.795 213.68 415.579 214.112C416.379 214.544 417.003 215.16 417.451 215.96C417.915 215.224 418.547 214.624 419.347 214.16C420.147 213.696 421.019 213.464 421.963 213.464ZM432.345 212.216C431.625 212.216 431.033 212.008 430.569 211.592C430.121 211.16 429.897 210.632 429.897 210.008C429.897 209.368 430.121 208.84 430.569 208.424C431.033 207.992 431.625 207.776 432.345 207.776C433.049 207.776 433.625 207.992 434.073 208.424C434.537 208.84 434.769 209.368 434.769 210.008C434.769 210.632 434.537 211.16 434.073 211.592C433.625 212.008 433.049 212.216 432.345 212.216ZM434.385 213.608V227H430.281V213.608H434.385ZM444.823 223.52V227H442.735C441.247 227 440.087 226.64 439.255 225.92C438.423 225.184 438.007 223.992 438.007 222.344V217.016H436.375V213.608H438.007V210.344H442.111V213.608H444.799V217.016H442.111V222.392C442.111 222.792 442.207 223.08 442.399 223.256C442.591 223.432 442.911 223.52 443.359 223.52H444.823ZM452.029 209.216C453.741 209.216 455.109 209.664 456.133 210.56C457.173 211.456 457.693 212.72 457.693 214.352C457.693 215.856 457.197 217.032 456.205 217.88C455.229 218.712 453.933 219.136 452.317 219.152L452.197 220.952H448.597L448.477 216.488H449.917C451.149 216.488 452.085 216.336 452.725 216.032C453.381 215.728 453.709 215.176 453.709 214.376C453.709 213.816 453.557 213.376 453.253 213.056C452.949 212.736 452.525 212.576 451.981 212.576C451.405 212.576 450.957 212.744 450.637 213.08C450.317 213.4 450.157 213.84 450.157 214.4H446.293C446.261 213.424 446.461 212.544 446.893 211.76C447.341 210.976 447.997 210.36 448.861 209.912C449.741 209.448 450.797 209.216 452.029 209.216ZM450.445 227.192C449.725 227.192 449.133 226.984 448.669 226.568C448.221 226.136 447.997 225.608 447.997 224.984C447.997 224.344 448.221 223.808 448.669 223.376C449.133 222.944 449.725 222.728 450.445 222.728C451.149 222.728 451.725 222.944 452.173 223.376C452.637 223.808 452.869 224.344 452.869 224.984C452.869 225.608 452.637 226.136 452.173 226.568C451.725 226.984 451.149 227.192 450.445 227.192Z" fill="white"/>
<path d="M251.465 229.4H458.533V230.6H251.465V229.4Z" fill="white"/>
<g filter="url(#filter0_d_4_180)">
<rect x="4" y="308" width="137" height="38" rx="10" fill="#4F35F2"/>
<rect x="4.5" y="308.5" width="136" height="37" rx="9.5" stroke="white"/>
</g>
<path d="M34.8571 319.152V336H30.7531V325.896L26.9851 336H23.6731L19.8811 325.872V336H15.7771V319.152H20.6251L25.3531 330.816L30.0331 319.152H34.8571ZM48.0083 327.36C48.9843 327.568 49.7683 328.056 50.3603 328.824C50.9523 329.576 51.2483 330.44 51.2483 331.416C51.2483 332.824 50.7523 333.944 49.7603 334.776C48.7843 335.592 47.4163 336 45.6563 336H37.8083V319.152H45.3923C47.1043 319.152 48.4403 319.544 49.4003 320.328C50.3763 321.112 50.8643 322.176 50.8643 323.52C50.8643 324.512 50.6003 325.336 50.0723 325.992C49.5603 326.648 48.8723 327.104 48.0083 327.36ZM41.9123 325.968H44.6003C45.2723 325.968 45.7843 325.824 46.1363 325.536C46.5043 325.232 46.6883 324.792 46.6883 324.216C46.6883 323.64 46.5043 323.2 46.1363 322.896C45.7843 322.592 45.2723 322.44 44.6003 322.44H41.9123V325.968ZM44.9363 332.688C45.6243 332.688 46.1523 332.536 46.5203 332.232C46.9043 331.912 47.0963 331.456 47.0963 330.864C47.0963 330.272 46.8963 329.808 46.4963 329.472C46.1123 329.136 45.5763 328.968 44.8883 328.968H41.9123V332.688H44.9363ZM64.1166 333.024H57.8286L56.8206 336H52.5246L58.6206 319.152H63.3726L69.4686 336H65.1246L64.1166 333.024ZM63.0606 329.856L60.9726 323.688L58.9086 329.856H63.0606ZM75.8579 332.712C76.4019 332.28 76.6499 332.08 76.6019 332.112C78.1699 330.816 79.4019 329.752 80.2979 328.92C81.2099 328.088 81.9779 327.216 82.6019 326.304C83.2259 325.392 83.5379 324.504 83.5379 323.64C83.5379 322.984 83.3859 322.472 83.0819 322.104C82.7779 321.736 82.3219 321.552 81.7139 321.552C81.1059 321.552 80.6259 321.784 80.2739 322.248C79.9379 322.696 79.7699 323.336 79.7699 324.168H75.8099C75.8419 322.808 76.1299 321.672 76.6739 320.76C77.2339 319.848 77.9619 319.176 78.8579 318.744C79.7699 318.312 80.7779 318.096 81.8819 318.096C83.7859 318.096 85.2179 318.584 86.1779 319.56C87.1539 320.536 87.6419 321.808 87.6419 323.376C87.6419 325.088 87.0579 326.68 85.8899 328.152C84.7219 329.608 83.2339 331.032 81.4259 332.424H87.9059V335.76H75.8579V332.712ZM89.7128 327C89.7128 324.248 90.2408 322.08 91.2968 320.496C92.3688 318.912 94.0888 318.12 96.4568 318.12C98.8248 318.12 100.537 318.912 101.593 320.496C102.665 322.08 103.201 324.248 103.201 327C103.201 329.784 102.665 331.968 101.593 333.552C100.537 335.136 98.8248 335.928 96.4568 335.928C94.0888 335.928 92.3688 335.136 91.2968 333.552C90.2408 331.968 89.7128 329.784 89.7128 327ZM99.1688 327C99.1688 325.384 98.9928 324.144 98.6408 323.28C98.2888 322.4 97.5608 321.96 96.4568 321.96C95.3528 321.96 94.6248 322.4 94.2728 323.28C93.9208 324.144 93.7448 325.384 93.7448 327C93.7448 328.088 93.8088 328.992 93.9368 329.712C94.0648 330.416 94.3208 330.992 94.7048 331.44C95.1048 331.872 95.6888 332.088 96.4568 332.088C97.2248 332.088 97.8008 331.872 98.1848 331.44C98.5848 330.992 98.8488 330.416 98.9768 329.712C99.1048 328.992 99.1688 328.088 99.1688 327ZM105.225 332.712C105.769 332.28 106.017 332.08 105.969 332.112C107.537 330.816 108.769 329.752 109.665 328.92C110.577 328.088 111.345 327.216 111.969 326.304C112.593 325.392 112.905 324.504 112.905 323.64C112.905 322.984 112.753 322.472 112.449 322.104C112.145 321.736 111.689 321.552 111.081 321.552C110.473 321.552 109.993 321.784 109.641 322.248C109.305 322.696 109.137 323.336 109.137 324.168H105.177C105.209 322.808 105.497 321.672 106.041 320.76C106.601 319.848 107.329 319.176 108.225 318.744C109.137 318.312 110.145 318.096 111.249 318.096C113.153 318.096 114.585 318.584 115.545 319.56C116.521 320.536 117.009 321.808 117.009 323.376C117.009 325.088 116.425 326.68 115.257 328.152C114.089 329.608 112.601 331.032 110.793 332.424H117.273V335.76H105.225V332.712ZM118.936 332.712C119.48 332.28 119.728 332.08 119.68 332.112C121.248 330.816 122.48 329.752 123.376 328.92C124.288 328.088 125.056 327.216 125.68 326.304C126.304 325.392 126.616 324.504 126.616 323.64C126.616 322.984 126.464 322.472 126.16 322.104C125.856 321.736 125.4 321.552 124.792 321.552C124.184 321.552 123.704 321.784 123.352 322.248C123.016 322.696 122.848 323.336 122.848 324.168H118.888C118.92 322.808 119.208 321.672 119.752 320.76C120.312 319.848 121.04 319.176 121.936 318.744C122.848 318.312 123.856 318.096 124.96 318.096C126.864 318.096 128.296 318.584 129.256 319.56C130.232 320.536 130.72 321.808 130.72 323.376C130.72 325.088 130.136 326.68 128.968 328.152C127.8 329.608 126.312 331.032 124.504 332.424H130.984V335.76H118.936V332.712Z" fill="white"/>
<g filter="url(#filter1_d_4_180)">
<rect x="567" y="308" width="137" height="38" rx="10" fill="#4F35F2"/>
<rect x="567.5" y="308.5" width="136" height="37" rx="9.5" stroke="white"/>
</g>
<path d="M597.947 319.152V336H593.843V325.896L590.075 336H586.763L582.971 325.872V336H578.867V319.152H583.715L588.443 330.816L593.123 319.152H597.947ZM611.098 327.36C612.074 327.568 612.858 328.056 613.45 328.824C614.042 329.576 614.338 330.44 614.338 331.416C614.338 332.824 613.842 333.944 612.85 334.776C611.874 335.592 610.506 336 608.746 336H600.898V319.152H608.482C610.194 319.152 611.53 319.544 612.49 320.328C613.466 321.112 613.954 322.176 613.954 323.52C613.954 324.512 613.69 325.336 613.162 325.992C612.65 326.648 611.962 327.104 611.098 327.36ZM605.002 325.968H607.69C608.362 325.968 608.874 325.824 609.226 325.536C609.594 325.232 609.778 324.792 609.778 324.216C609.778 323.64 609.594 323.2 609.226 322.896C608.874 322.592 608.362 322.44 607.69 322.44H605.002V325.968ZM608.026 332.688C608.714 332.688 609.242 332.536 609.61 332.232C609.994 331.912 610.186 331.456 610.186 330.864C610.186 330.272 609.986 329.808 609.586 329.472C609.202 329.136 608.666 328.968 607.978 328.968H605.002V332.688H608.026ZM627.206 333.024H620.918L619.91 336H615.614L621.71 319.152H626.462L632.558 336H628.214L627.206 333.024ZM626.15 329.856L624.062 323.688L621.998 329.856H626.15ZM638.948 332.712C639.492 332.28 639.74 332.08 639.692 332.112C641.26 330.816 642.492 329.752 643.388 328.92C644.3 328.088 645.068 327.216 645.692 326.304C646.316 325.392 646.628 324.504 646.628 323.64C646.628 322.984 646.476 322.472 646.172 322.104C645.868 321.736 645.412 321.552 644.804 321.552C644.196 321.552 643.716 321.784 643.364 322.248C643.028 322.696 642.86 323.336 642.86 324.168H638.9C638.932 322.808 639.22 321.672 639.764 320.76C640.324 319.848 641.052 319.176 641.948 318.744C642.86 318.312 643.868 318.096 644.972 318.096C646.876 318.096 648.308 318.584 649.268 319.56C650.244 320.536 650.732 321.808 650.732 323.376C650.732 325.088 650.148 326.68 648.98 328.152C647.812 329.608 646.324 331.032 644.516 332.424H650.996V335.76H638.948V332.712ZM652.803 327C652.803 324.248 653.331 322.08 654.387 320.496C655.459 318.912 657.179 318.12 659.547 318.12C661.915 318.12 663.627 318.912 664.683 320.496C665.755 322.08 666.291 324.248 666.291 327C666.291 329.784 665.755 331.968 664.683 333.552C663.627 335.136 661.915 335.928 659.547 335.928C657.179 335.928 655.459 335.136 654.387 333.552C653.331 331.968 652.803 329.784 652.803 327ZM662.259 327C662.259 325.384 662.083 324.144 661.731 323.28C661.379 322.4 660.651 321.96 659.547 321.96C658.443 321.96 657.715 322.4 657.363 323.28C657.011 324.144 656.835 325.384 656.835 327C656.835 328.088 656.899 328.992 657.027 329.712C657.155 330.416 657.411 330.992 657.795 331.44C658.195 331.872 658.779 332.088 659.547 332.088C660.315 332.088 660.891 331.872 661.275 331.44C661.675 330.992 661.939 330.416 662.067 329.712C662.195 328.992 662.259 328.088 662.259 327ZM668.315 332.712C668.859 332.28 669.107 332.08 669.059 332.112C670.627 330.816 671.859 329.752 672.755 328.92C673.667 328.088 674.435 327.216 675.059 326.304C675.683 325.392 675.995 324.504 675.995 323.64C675.995 322.984 675.843 322.472 675.539 322.104C675.235 321.736 674.779 321.552 674.171 321.552C673.563 321.552 673.083 321.784 672.731 322.248C672.395 322.696 672.227 323.336 672.227 324.168H668.267C668.299 322.808 668.587 321.672 669.131 320.76C669.691 319.848 670.419 319.176 671.315 318.744C672.227 318.312 673.235 318.096 674.339 318.096C676.243 318.096 677.675 318.584 678.635 319.56C679.611 320.536 680.099 321.808 680.099 323.376C680.099 325.088 679.515 326.68 678.347 328.152C677.179 329.608 675.691 331.032 673.883 332.424H680.363V335.76H668.315V332.712ZM682.314 323.424C682.378 321.712 682.938 320.392 683.994 319.464C685.05 318.536 686.482 318.072 688.29 318.072C689.49 318.072 690.514 318.28 691.362 318.696C692.226 319.112 692.874 319.68 693.306 320.4C693.754 321.12 693.978 321.928 693.978 322.824C693.978 323.88 693.714 324.744 693.186 325.416C692.658 326.072 692.042 326.52 691.338 326.76V326.856C692.25 327.16 692.97 327.664 693.498 328.368C694.026 329.072 694.29 329.976 694.29 331.08C694.29 332.072 694.058 332.952 693.594 333.72C693.146 334.472 692.482 335.064 691.602 335.496C690.738 335.928 689.706 336.144 688.506 336.144C686.586 336.144 685.05 335.672 683.898 334.728C682.762 333.784 682.162 332.36 682.098 330.456H686.082C686.098 331.16 686.298 331.72 686.682 332.136C687.066 332.536 687.626 332.736 688.362 332.736C688.986 332.736 689.466 332.56 689.802 332.208C690.154 331.84 690.33 331.36 690.33 330.768C690.33 330 690.082 329.448 689.586 329.112C689.106 328.76 688.33 328.584 687.258 328.584H686.49V325.248H687.258C688.074 325.248 688.73 325.112 689.226 324.84C689.738 324.552 689.994 324.048 689.994 323.328C689.994 322.752 689.834 322.304 689.514 321.984C689.194 321.664 688.754 321.504 688.194 321.504C687.586 321.504 687.13 321.688 686.826 322.056C686.538 322.424 686.37 322.88 686.322 323.424H682.314Z" fill="white"/>
<defs>
<filter id="filter0_d_4_180" x="0" y="308" width="145" height="46" filterUnits="userSpaceOnUse" color-interpolation-filters="sRGB">
<feFlood flood-opacity="0" result="BackgroundImageFix"/>
<feColorMatrix in="SourceAlpha" type="matrix" values="0 0 0 0 0 0 0 0 0 0 0 0 0 0 0 0 0 0 127 0" result="hardAlpha"/>
<feOffset dy="4"/>
<feGaussianBlur stdDeviation="2"/>
<feComposite in2="hardAlpha" operator="out"/>
<feColorMatrix type="matrix" values="0 0 0 0 0 0 0 0 0 0 0 0 0 0 0 0 0 0 0.25 0"/>
<feBlend mode="normal" in2="BackgroundImageFix" result="effect1_dropShadow_4_180"/>
<feBlend mode="normal" in="SourceGraphic" in2="effect1_dropShadow_4_180" result="shape"/>
</filter>
<filter id="filter1_d_4_180" x="563" y="308" width="145" height="46" filterUnits="userSpaceOnUse" color-interpolation-filters="sRGB">
<feFlood flood-opacity="0" result="BackgroundImageFix"/>
<feColorMatrix in="SourceAlpha" type="matrix" values="0 0 0 0 0 0 0 0 0 0 0 0 0 0 0 0 0 0 127 0" result="hardAlpha"/>
<feOffset dy="4"/>
<feGaussianBlur stdDeviation="2"/>
<feComposite in2="hardAlpha" operator="out"/>
<feColorMatrix type="matrix" values="0 0 0 0 0 0 0 0 0 0 0 0 0 0 0 0 0 0 0.25 0"/>
<feBlend mode="normal" in2="BackgroundImageFix" result="effect1_dropShadow_4_180"/>
<feBlend mode="normal" in="SourceGraphic" in2="effect1_dropShadow_4_180" result="shape"/>
</filter>
</defs>
</svg>
