<svg width="302" height="88" viewBox="0 0 302 88" fill="none" xmlns="http://www.w3.org/2000/svg">
<g filter="url(#filter0_d_9_277)">
<rect x="10" y="6" width="282" height="68" rx="10" fill="#4F35F2"/>
</g>
<path d="M51.5911 48.248H59.6551V53H45.4351V27.728H51.5911V48.248ZM68.7474 32.66V37.772H76.9914V42.524H68.7474V48.068H78.0714V53H62.5914V27.728H78.0714V32.66H68.7474ZM97.7999 48.536H88.3679L86.8559 53H80.4119L89.5559 27.728H96.6839L105.828 53H99.3119L97.7999 48.536ZM96.2159 43.784L93.0839 34.532L89.9879 43.784H96.2159ZM121.499 53L116.243 43.46H114.767V53H108.611V27.728H118.943C120.935 27.728 122.627 28.076 124.019 28.772C125.435 29.468 126.491 30.428 127.187 31.652C127.883 32.852 128.231 34.196 128.231 35.684C128.231 37.364 127.751 38.864 126.791 40.184C125.855 41.504 124.463 42.44 122.615 42.992L128.447 53H121.499ZM114.767 39.104H118.583C119.711 39.104 120.551 38.828 121.103 38.276C121.679 37.724 121.967 36.944 121.967 35.936C121.967 34.976 121.679 34.22 121.103 33.668C120.551 33.116 119.711 32.84 118.583 32.84H114.767V39.104ZM154.703 53H148.547L138.251 37.412V53H132.095V27.728H138.251L148.547 43.388V27.728H154.703V53ZM189.403 53H183.247L172.951 37.412V53H166.795V27.728H172.951L183.247 43.388V27.728H189.403V53ZM205.817 53.252C203.441 53.252 201.257 52.7 199.265 51.596C197.297 50.492 195.725 48.956 194.549 46.988C193.397 44.996 192.821 42.764 192.821 40.292C192.821 37.82 193.397 35.6 194.549 33.632C195.725 31.664 197.297 30.128 199.265 29.024C201.257 27.92 203.441 27.368 205.817 27.368C208.193 27.368 210.365 27.92 212.333 29.024C214.325 30.128 215.885 31.664 217.013 33.632C218.165 35.6 218.741 37.82 218.741 40.292C218.741 42.764 218.165 44.996 217.013 46.988C215.861 48.956 214.301 50.492 212.333 51.596C210.365 52.7 208.193 53.252 205.817 53.252ZM205.817 47.636C207.833 47.636 209.441 46.964 210.641 45.62C211.865 44.276 212.477 42.5 212.477 40.292C212.477 38.06 211.865 36.284 210.641 34.964C209.441 33.62 207.833 32.948 205.817 32.948C203.777 32.948 202.145 33.608 200.921 34.928C199.721 36.248 199.121 38.036 199.121 40.292C199.121 42.524 199.721 44.312 200.921 45.656C202.145 46.976 203.777 47.636 205.817 47.636ZM256.942 27.728L250.354 53H242.902L238.87 36.368L234.694 53H227.242L220.834 27.728H227.422L231.058 46.124L235.558 27.728H242.326L246.646 46.124L250.318 27.728H256.942Z" fill="white"/>
<defs>
<filter id="filter0_d_9_277" x="0" y="0" width="302" height="88" filterUnits="userSpaceOnUse" color-interpolation-filters="sRGB">
<feFlood flood-opacity="0" result="BackgroundImageFix"/>
<feColorMatrix in="SourceAlpha" type="matrix" values="0 0 0 0 0 0 0 0 0 0 0 0 0 0 0 0 0 0 127 0" result="hardAlpha"/>
<feOffset dy="4"/>
<feGaussianBlur stdDeviation="5"/>
<feComposite in2="hardAlpha" operator="out"/>
<feColorMatrix type="matrix" values="0 0 0 0 0 0 0 0 0 0 0 0 0 0 0 0 0 0 0.4 0"/>
<feBlend mode="normal" in2="BackgroundImageFix" result="effect1_dropShadow_9_277"/>
<feBlend mode="normal" in="SourceGraphic" in2="effect1_dropShadow_9_277" result="shape"/>
</filter>
</defs>
</svg>
