<svg width="784" height="102" viewBox="0 0 784 102" fill="none" xmlns="http://www.w3.org/2000/svg">
<rect x="2" y="2" width="780" height="98" rx="18" fill="white" stroke="#4F35F2" stroke-width="4"/>
<path d="M62.7401 64.336C59.5721 64.336 56.6601 63.6 54.0041 62.128C51.3801 60.656 49.2841 58.608 47.7161 55.984C46.1801 53.328 45.4121 50.352 45.4121 47.056C45.4121 43.76 46.1801 40.8 47.7161 38.176C49.2841 35.552 51.3801 33.504 54.0041 32.032C56.6601 30.56 59.5721 29.824 62.7401 29.824C65.9081 29.824 68.8041 30.56 71.4281 32.032C74.0841 33.504 76.1641 35.552 77.6681 38.176C79.2041 40.8 79.9721 43.76 79.9721 47.056C79.9721 50.352 79.2041 53.328 77.6681 55.984C76.1321 58.608 74.0521 60.656 71.4281 62.128C68.8041 63.6 65.9081 64.336 62.7401 64.336ZM62.7401 56.848C65.4281 56.848 67.5721 55.952 69.1721 54.16C70.8041 52.368 71.6201 50 71.6201 47.056C71.6201 44.08 70.8041 41.712 69.1721 39.952C67.5721 38.16 65.4281 37.264 62.7401 37.264C60.0201 37.264 57.8441 38.144 56.2121 39.904C54.6121 41.664 53.8121 44.048 53.8121 47.056C53.8121 50.032 54.6121 52.416 56.2121 54.208C57.8441 55.968 60.0201 56.848 62.7401 56.848ZM110.987 37.216V64H102.779V60.352C101.947 61.536 100.811 62.496 99.3705 63.232C97.9625 63.936 96.3945 64.288 94.6665 64.288C92.6185 64.288 90.8105 63.84 89.2425 62.944C87.6745 62.016 86.4585 60.688 85.5945 58.96C84.7305 57.232 84.2985 55.2 84.2985 52.864V37.216H92.4585V51.76C92.4585 53.552 92.9225 54.944 93.8505 55.936C94.7785 56.928 96.0265 57.424 97.5945 57.424C99.1945 57.424 100.459 56.928 101.387 55.936C102.315 54.944 102.779 53.552 102.779 51.76V37.216H110.987ZM125.09 41.68C126.05 40.208 127.25 39.056 128.69 38.224C130.13 37.36 131.73 36.928 133.49 36.928V45.616H131.234C129.186 45.616 127.65 46.064 126.626 46.96C125.602 47.824 125.09 49.36 125.09 51.568V64H116.882V37.216H125.09V41.68ZM155.793 41.008C156.593 39.76 157.697 38.752 159.105 37.984C160.513 37.216 162.161 36.832 164.049 36.832C166.257 36.832 168.257 37.392 170.049 38.512C171.841 39.632 173.249 41.232 174.273 43.312C175.329 45.392 175.857 47.808 175.857 50.56C175.857 53.312 175.329 55.744 174.273 57.856C173.249 59.936 171.841 61.552 170.049 62.704C168.257 63.824 166.257 64.384 164.049 64.384C162.193 64.384 160.545 64 159.105 63.232C157.697 62.464 156.593 61.472 155.793 60.256V76.768H147.585V37.216H155.793V41.008ZM167.505 50.56C167.505 48.512 166.929 46.912 165.777 45.76C164.657 44.576 163.265 43.984 161.601 43.984C159.969 43.984 158.577 44.576 157.425 45.76C156.305 46.944 155.745 48.56 155.745 50.608C155.745 52.656 156.305 54.272 157.425 55.456C158.577 56.64 159.969 57.232 161.601 57.232C163.233 57.232 164.625 56.64 165.777 55.456C166.929 54.24 167.505 52.608 167.505 50.56ZM188.372 41.68C189.332 40.208 190.532 39.056 191.972 38.224C193.412 37.36 195.012 36.928 196.772 36.928V45.616H194.516C192.468 45.616 190.932 46.064 189.908 46.96C188.884 47.824 188.372 49.36 188.372 51.568V64H180.164V37.216H188.372V41.68ZM212.887 64.384C210.263 64.384 207.895 63.824 205.783 62.704C203.703 61.584 202.055 59.984 200.839 57.904C199.655 55.824 199.063 53.392 199.063 50.608C199.063 47.856 199.671 45.44 200.887 43.36C202.103 41.248 203.767 39.632 205.879 38.512C207.991 37.392 210.359 36.832 212.983 36.832C215.607 36.832 217.975 37.392 220.087 38.512C222.199 39.632 223.863 41.248 225.079 43.36C226.295 45.44 226.903 47.856 226.903 50.608C226.903 53.36 226.279 55.792 225.031 57.904C223.815 59.984 222.135 61.584 219.991 62.704C217.879 63.824 215.511 64.384 212.887 64.384ZM212.887 57.28C214.455 57.28 215.783 56.704 216.871 55.552C217.991 54.4 218.551 52.752 218.551 50.608C218.551 48.464 218.007 46.816 216.919 45.664C215.863 44.512 214.551 43.936 212.983 43.936C211.383 43.936 210.055 44.512 208.999 45.664C207.943 46.784 207.415 48.432 207.415 50.608C207.415 52.752 207.927 54.4 208.951 55.552C210.007 56.704 211.319 57.28 212.887 57.28ZM257.705 37.216V64H249.497V60.352C248.665 61.536 247.529 62.496 246.089 63.232C244.681 63.936 243.113 64.288 241.385 64.288C239.337 64.288 237.529 63.84 235.961 62.944C234.393 62.016 233.177 60.688 232.313 58.96C231.449 57.232 231.017 55.2 231.017 52.864V37.216H239.177V51.76C239.177 53.552 239.641 54.944 240.569 55.936C241.497 56.928 242.745 57.424 244.313 57.424C245.913 57.424 247.177 56.928 248.105 55.936C249.033 54.944 249.497 53.552 249.497 51.76V37.216H257.705ZM261.969 50.56C261.969 47.808 262.481 45.392 263.505 43.312C264.561 41.232 265.985 39.632 267.777 38.512C269.569 37.392 271.569 36.832 273.777 36.832C275.537 36.832 277.137 37.2 278.577 37.936C280.049 38.672 281.201 39.664 282.033 40.912V28.48H290.241V64H282.033V60.16C281.265 61.44 280.161 62.464 278.721 63.232C277.313 64 275.665 64.384 273.777 64.384C271.569 64.384 269.569 63.824 267.777 62.704C265.985 61.552 264.561 59.936 263.505 57.856C262.481 55.744 261.969 53.312 261.969 50.56ZM282.033 50.608C282.033 48.56 281.457 46.944 280.305 45.76C279.185 44.576 277.809 43.984 276.177 43.984C274.545 43.984 273.153 44.576 272.001 45.76C270.881 46.912 270.321 48.512 270.321 50.56C270.321 52.608 270.881 54.24 272.001 55.456C273.153 56.64 274.545 57.232 276.177 57.232C277.809 57.232 279.185 56.64 280.305 55.456C281.457 54.272 282.033 52.656 282.033 50.608ZM317.247 64.384C314.911 64.384 312.831 63.984 311.007 63.184C309.183 62.384 307.743 61.296 306.687 59.92C305.631 58.512 305.039 56.944 304.911 55.216H313.023C313.119 56.144 313.551 56.896 314.319 57.472C315.087 58.048 316.031 58.336 317.151 58.336C318.175 58.336 318.959 58.144 319.503 57.76C320.079 57.344 320.367 56.816 320.367 56.176C320.367 55.408 319.967 54.848 319.167 54.496C318.367 54.112 317.071 53.696 315.279 53.248C313.359 52.8 311.759 52.336 310.479 51.856C309.199 51.344 308.095 50.56 307.167 49.504C306.239 48.416 305.775 46.96 305.775 45.136C305.775 43.6 306.191 42.208 307.023 40.96C307.887 39.68 309.135 38.672 310.767 37.936C312.431 37.2 314.399 36.832 316.671 36.832C320.031 36.832 322.671 37.664 324.591 39.328C326.543 40.992 327.663 43.2 327.951 45.952H320.367C320.239 45.024 319.823 44.288 319.119 43.744C318.447 43.2 317.551 42.928 316.431 42.928C315.471 42.928 314.735 43.12 314.223 43.504C313.711 43.856 313.455 44.352 313.455 44.992C313.455 45.76 313.855 46.336 314.655 46.72C315.487 47.104 316.767 47.488 318.495 47.872C320.479 48.384 322.095 48.896 323.343 49.408C324.591 49.888 325.679 50.688 326.607 51.808C327.567 52.896 328.063 54.368 328.095 56.224C328.095 57.792 327.647 59.2 326.751 60.448C325.887 61.664 324.623 62.624 322.959 63.328C321.327 64.032 319.423 64.384 317.247 64.384ZM348.045 57.04V64H343.869C340.893 64 338.573 63.28 336.909 61.84C335.245 60.368 334.413 57.984 334.413 54.688V44.032H331.149V37.216H334.413V30.688H342.621V37.216H347.997V44.032H342.621V54.784C342.621 55.584 342.813 56.16 343.197 56.512C343.581 56.864 344.221 57.04 345.117 57.04H348.045ZM379.065 37.216V64H370.857V60.352C370.025 61.536 368.889 62.496 367.449 63.232C366.041 63.936 364.473 64.288 362.745 64.288C360.697 64.288 358.889 63.84 357.321 62.944C355.753 62.016 354.537 60.688 353.673 58.96C352.809 57.232 352.377 55.2 352.377 52.864V37.216H360.537V51.76C360.537 53.552 361.001 54.944 361.929 55.936C362.857 56.928 364.105 57.424 365.673 57.424C367.273 57.424 368.537 56.928 369.465 55.936C370.393 54.944 370.857 53.552 370.857 51.76V37.216H379.065ZM383.328 50.56C383.328 47.808 383.84 45.392 384.864 43.312C385.92 41.232 387.344 39.632 389.136 38.512C390.928 37.392 392.928 36.832 395.136 36.832C396.896 36.832 398.496 37.2 399.936 37.936C401.408 38.672 402.56 39.664 403.392 40.912V28.48H411.6V64H403.392V60.16C402.624 61.44 401.52 62.464 400.08 63.232C398.672 64 397.024 64.384 395.136 64.384C392.928 64.384 390.928 63.824 389.136 62.704C387.344 61.552 385.92 59.936 384.864 57.856C383.84 55.744 383.328 53.312 383.328 50.56ZM403.392 50.608C403.392 48.56 402.816 46.944 401.664 45.76C400.544 44.576 399.168 43.984 397.536 43.984C395.904 43.984 394.512 44.576 393.36 45.76C392.24 46.912 391.68 48.512 391.68 50.56C391.68 52.608 392.24 54.24 393.36 55.456C394.512 56.64 395.904 57.232 397.536 57.232C399.168 57.232 400.544 56.64 401.664 55.456C402.816 54.272 403.392 52.656 403.392 50.608ZM442.786 50.176C442.786 50.944 442.739 51.744 442.643 52.576H424.067C424.195 54.24 424.723 55.52 425.651 56.416C426.611 57.28 427.779 57.712 429.155 57.712C431.203 57.712 432.627 56.848 433.427 55.12H442.163C441.715 56.88 440.899 58.464 439.715 59.872C438.563 61.28 437.107 62.384 435.347 63.184C433.587 63.984 431.619 64.384 429.443 64.384C426.819 64.384 424.483 63.824 422.435 62.704C420.387 61.584 418.787 59.984 417.635 57.904C416.483 55.824 415.907 53.392 415.907 50.608C415.907 47.824 416.467 45.392 417.587 43.312C418.739 41.232 420.339 39.632 422.387 38.512C424.435 37.392 426.787 36.832 429.443 36.832C432.035 36.832 434.339 37.376 436.355 38.464C438.371 39.552 439.939 41.104 441.059 43.12C442.211 45.136 442.786 47.488 442.786 50.176ZM434.387 48.016C434.387 46.608 433.907 45.488 432.947 44.656C431.987 43.824 430.787 43.408 429.347 43.408C427.971 43.408 426.803 43.808 425.843 44.608C424.915 45.408 424.339 46.544 424.115 48.016H434.387ZM463.437 36.928C466.573 36.928 469.069 37.952 470.925 40C472.813 42.016 473.757 44.8 473.757 48.352V64H465.597V49.456C465.597 47.664 465.133 46.272 464.205 45.28C463.277 44.288 462.029 43.792 460.461 43.792C458.893 43.792 457.645 44.288 456.717 45.28C455.789 46.272 455.325 47.664 455.325 49.456V64H447.117V37.216H455.325V40.768C456.157 39.584 457.277 38.656 458.685 37.984C460.093 37.28 461.677 36.928 463.437 36.928ZM494.388 57.04V64H490.212C487.236 64 484.916 63.28 483.252 61.84C481.588 60.368 480.756 57.984 480.756 54.688V44.032H477.492V37.216H480.756V30.688H488.964V37.216H494.34V44.032H488.964V54.784C488.964 55.584 489.156 56.16 489.54 56.512C489.924 56.864 490.564 57.04 491.46 57.04H494.388ZM509.856 64.384C507.52 64.384 505.44 63.984 503.616 63.184C501.792 62.384 500.352 61.296 499.296 59.92C498.24 58.512 497.648 56.944 497.52 55.216H505.632C505.728 56.144 506.16 56.896 506.928 57.472C507.696 58.048 508.64 58.336 509.76 58.336C510.784 58.336 511.568 58.144 512.112 57.76C512.688 57.344 512.976 56.816 512.976 56.176C512.976 55.408 512.576 54.848 511.776 54.496C510.976 54.112 509.68 53.696 507.888 53.248C505.968 52.8 504.368 52.336 503.088 51.856C501.808 51.344 500.704 50.56 499.776 49.504C498.848 48.416 498.384 46.96 498.384 45.136C498.384 43.6 498.8 42.208 499.632 40.96C500.496 39.68 501.744 38.672 503.376 37.936C505.04 37.2 507.008 36.832 509.28 36.832C512.64 36.832 515.28 37.664 517.2 39.328C519.152 40.992 520.272 43.2 520.56 45.952H512.976C512.848 45.024 512.432 44.288 511.728 43.744C511.056 43.2 510.16 42.928 509.04 42.928C508.08 42.928 507.344 43.12 506.832 43.504C506.32 43.856 506.064 44.352 506.064 44.992C506.064 45.76 506.464 46.336 507.264 46.72C508.096 47.104 509.376 47.488 511.104 47.872C513.088 48.384 514.704 48.896 515.952 49.408C517.2 49.888 518.288 50.688 519.216 51.808C520.176 52.896 520.672 54.368 520.704 56.224C520.704 57.792 520.256 59.2 519.36 60.448C518.496 61.664 517.232 62.624 515.568 63.328C513.936 64.032 512.032 64.384 509.856 64.384ZM546.794 64.384C544.458 64.384 542.378 63.984 540.554 63.184C538.73 62.384 537.29 61.296 536.234 59.92C535.178 58.512 534.586 56.944 534.458 55.216H542.57C542.666 56.144 543.098 56.896 543.866 57.472C544.634 58.048 545.578 58.336 546.698 58.336C547.722 58.336 548.506 58.144 549.05 57.76C549.626 57.344 549.914 56.816 549.914 56.176C549.914 55.408 549.514 54.848 548.714 54.496C547.914 54.112 546.618 53.696 544.826 53.248C542.906 52.8 541.306 52.336 540.026 51.856C538.746 51.344 537.642 50.56 536.714 49.504C535.786 48.416 535.322 46.96 535.322 45.136C535.322 43.6 535.738 42.208 536.57 40.96C537.434 39.68 538.682 38.672 540.314 37.936C541.978 37.2 543.946 36.832 546.218 36.832C549.578 36.832 552.218 37.664 554.138 39.328C556.09 40.992 557.21 43.2 557.498 45.952H549.914C549.786 45.024 549.37 44.288 548.666 43.744C547.994 43.2 547.098 42.928 545.978 42.928C545.018 42.928 544.282 43.12 543.77 43.504C543.258 43.856 543.002 44.352 543.002 44.992C543.002 45.76 543.402 46.336 544.202 46.72C545.034 47.104 546.314 47.488 548.042 47.872C550.026 48.384 551.642 48.896 552.89 49.408C554.138 49.888 555.226 50.688 556.154 51.808C557.114 52.896 557.61 54.368 557.642 56.224C557.642 57.792 557.194 59.2 556.298 60.448C555.434 61.664 554.17 62.624 552.506 63.328C550.874 64.032 548.97 64.384 546.794 64.384ZM561.032 50.56C561.032 47.808 561.544 45.392 562.568 43.312C563.624 41.232 565.048 39.632 566.84 38.512C568.632 37.392 570.632 36.832 572.84 36.832C574.728 36.832 576.376 37.216 577.784 37.984C579.224 38.752 580.328 39.76 581.096 41.008V37.216H589.304V64H581.096V60.208C580.296 61.456 579.176 62.464 577.736 63.232C576.328 64 574.68 64.384 572.792 64.384C570.616 64.384 568.632 63.824 566.84 62.704C565.048 61.552 563.624 59.936 562.568 57.856C561.544 55.744 561.032 53.312 561.032 50.56ZM581.096 50.608C581.096 48.56 580.52 46.944 579.368 45.76C578.248 44.576 576.872 43.984 575.24 43.984C573.608 43.984 572.216 44.576 571.064 45.76C569.944 46.912 569.384 48.512 569.384 50.56C569.384 52.608 569.944 54.24 571.064 55.456C572.216 56.64 573.608 57.232 575.24 57.232C576.872 57.232 578.248 56.64 579.368 55.456C580.52 54.272 581.096 52.656 581.096 50.608ZM622.602 37.216L605.802 76.72H596.97L603.114 63.088L592.218 37.216H601.386L607.578 53.968L613.722 37.216H622.602ZM650.67 57.04V64H646.494C643.518 64 641.198 63.28 639.534 61.84C637.87 60.368 637.038 57.984 637.038 54.688V44.032H633.774V37.216H637.038V30.688H645.246V37.216H650.622V44.032H645.246V54.784C645.246 55.584 645.438 56.16 645.822 56.512C646.206 56.864 646.846 57.04 647.742 57.04H650.67ZM671.706 36.928C674.778 36.928 677.242 37.952 679.098 40C680.954 42.016 681.882 44.8 681.882 48.352V64H673.722V49.456C673.722 47.664 673.258 46.272 672.33 45.28C671.402 44.288 670.154 43.792 668.586 43.792C667.018 43.792 665.77 44.288 664.842 45.28C663.914 46.272 663.45 47.664 663.45 49.456V64H655.242V28.48H663.45V40.816C664.282 39.632 665.418 38.688 666.858 37.984C668.298 37.28 669.914 36.928 671.706 36.928ZM691.713 34.432C690.273 34.432 689.089 34.016 688.161 33.184C687.265 32.32 686.817 31.264 686.817 30.016C686.817 28.736 687.265 27.68 688.161 26.848C689.089 25.984 690.273 25.552 691.713 25.552C693.121 25.552 694.273 25.984 695.169 26.848C696.097 27.68 696.561 28.736 696.561 30.016C696.561 31.264 696.097 32.32 695.169 33.184C694.273 34.016 693.121 34.432 691.713 34.432ZM695.793 37.216V64H687.585V37.216H695.793ZM712.638 64.384C710.302 64.384 708.222 63.984 706.398 63.184C704.574 62.384 703.134 61.296 702.078 59.92C701.022 58.512 700.43 56.944 700.302 55.216H708.414C708.51 56.144 708.942 56.896 709.71 57.472C710.478 58.048 711.422 58.336 712.542 58.336C713.566 58.336 714.35 58.144 714.894 57.76C715.47 57.344 715.758 56.816 715.758 56.176C715.758 55.408 715.358 54.848 714.558 54.496C713.758 54.112 712.462 53.696 710.67 53.248C708.75 52.8 707.15 52.336 705.87 51.856C704.59 51.344 703.486 50.56 702.558 49.504C701.63 48.416 701.166 46.96 701.166 45.136C701.166 43.6 701.582 42.208 702.414 40.96C703.278 39.68 704.526 38.672 706.158 37.936C707.822 37.2 709.79 36.832 712.062 36.832C715.422 36.832 718.062 37.664 719.982 39.328C721.934 40.992 723.054 43.2 723.342 45.952H715.758C715.63 45.024 715.214 44.288 714.51 43.744C713.838 43.2 712.942 42.928 711.822 42.928C710.862 42.928 710.126 43.12 709.614 43.504C709.102 43.856 708.846 44.352 708.846 44.992C708.846 45.76 709.246 46.336 710.046 46.72C710.878 47.104 712.158 47.488 713.886 47.872C715.87 48.384 717.486 48.896 718.734 49.408C719.982 49.888 721.07 50.688 721.998 51.808C722.958 52.896 723.454 54.368 723.486 56.224C723.486 57.792 723.038 59.2 722.142 60.448C721.278 61.664 720.014 62.624 718.35 63.328C716.718 64.032 714.814 64.384 712.638 64.384ZM732.347 64.384C730.907 64.384 729.723 63.968 728.795 63.136C727.899 62.272 727.451 61.216 727.451 59.968C727.451 58.688 727.899 57.616 728.795 56.752C729.723 55.888 730.907 55.456 732.347 55.456C733.755 55.456 734.907 55.888 735.803 56.752C736.731 57.616 737.195 58.688 737.195 59.968C737.195 61.216 736.731 62.272 735.803 63.136C734.907 63.968 733.755 64.384 732.347 64.384ZM732.347 44.848C730.907 44.848 729.723 44.432 728.795 43.6C727.899 42.736 727.451 41.68 727.451 40.432C727.451 39.152 727.899 38.08 728.795 37.216C729.723 36.352 730.907 35.92 732.347 35.92C733.755 35.92 734.907 36.352 735.803 37.216C736.731 38.08 737.195 39.152 737.195 40.432C737.195 41.68 736.731 42.736 735.803 43.6C734.907 44.432 733.755 44.848 732.347 44.848Z" fill="#4F35F2"/>
</svg>
