<svg width="163" height="71" viewBox="0 0 163 71" fill="none" xmlns="http://www.w3.org/2000/svg">
<path d="M35.994 4.516V34H28.812V16.318L22.218 34H16.422L9.786 16.276V34H2.604V4.516H11.088L19.362 24.928L27.552 4.516H35.994ZM51.8267 34.336C49.5307 34.336 47.4587 33.846 45.6107 32.866C43.7907 31.886 42.3487 30.486 41.2847 28.666C40.2487 26.846 39.7307 24.718 39.7307 22.282C39.7307 19.874 40.2627 17.76 41.3267 15.94C42.3907 14.092 43.8467 12.678 45.6947 11.698C47.5427 10.718 49.6147 10.228 51.9107 10.228C54.2067 10.228 56.2787 10.718 58.1267 11.698C59.9747 12.678 61.4307 14.092 62.4947 15.94C63.5587 17.76 64.0907 19.874 64.0907 22.282C64.0907 24.69 63.5447 26.818 62.4527 28.666C61.3887 30.486 59.9187 31.886 58.0427 32.866C56.1947 33.846 54.1227 34.336 51.8267 34.336ZM51.8267 28.12C53.1987 28.12 54.3607 27.616 55.3127 26.608C56.2927 25.6 56.7827 24.158 56.7827 22.282C56.7827 20.406 56.3067 18.964 55.3547 17.956C54.4307 16.948 53.2827 16.444 51.9107 16.444C50.5107 16.444 49.3487 16.948 48.4247 17.956C47.5007 18.936 47.0387 20.378 47.0387 22.282C47.0387 24.158 47.4867 25.6 48.3827 26.608C49.3067 27.616 50.4547 28.12 51.8267 28.12ZM82.3069 10.312C84.9949 10.312 87.1509 11.208 88.7749 13C90.3989 14.764 91.2109 17.2 91.2109 20.308V34H84.0709V21.274C84.0709 19.706 83.6649 18.488 82.8529 17.62C82.0409 16.752 80.9489 16.318 79.5769 16.318C78.2049 16.318 77.1129 16.752 76.3009 17.62C75.4889 18.488 75.0829 19.706 75.0829 21.274V34H67.9009V2.92H75.0829V13.714C75.8109 12.678 76.8049 11.852 78.0649 11.236C79.3249 10.62 80.7389 10.312 82.3069 10.312ZM99.8137 8.128C98.5537 8.128 97.5177 7.764 96.7057 7.036C95.9217 6.28 95.5297 5.356 95.5297 4.264C95.5297 3.144 95.9217 2.22 96.7057 1.492C97.5177 0.735998 98.5537 0.357998 99.8137 0.357998C101.046 0.357998 102.054 0.735998 102.838 1.492C103.65 2.22 104.056 3.144 104.056 4.264C104.056 5.356 103.65 6.28 102.838 7.036C102.054 7.764 101.046 8.128 99.8137 8.128ZM103.384 10.564V34H96.2017V10.564H103.384ZM121.65 27.91V34H117.996C115.392 34 113.362 33.37 111.906 32.11C110.45 30.822 109.722 28.736 109.722 25.852V16.528H106.866V10.564H109.722V4.852H116.904V10.564H121.608V16.528H116.904V25.936C116.904 26.636 117.072 27.14 117.408 27.448C117.744 27.756 118.304 27.91 119.088 27.91H121.65ZM162.229 4.516L151.771 34H142.783L132.325 4.516H139.969L147.277 26.776L154.627 4.516H162.229Z" fill="#4F35F2"/>
<path d="M13.872 58.12C13.44 57.288 12.84 56.664 12.072 56.248C11.304 55.816 10.416 55.6 9.408 55.6C8.304 55.6 7.32 55.848 6.456 56.344C5.592 56.84 4.912 57.544 4.416 58.456C3.936 59.368 3.696 60.424 3.696 61.624C3.696 62.824 3.936 63.888 4.416 64.816C4.912 65.728 5.592 66.432 6.456 66.928C7.32 67.424 8.304 67.672 9.408 67.672C10.896 67.672 12.104 67.256 13.032 66.424C13.96 65.592 14.528 64.464 14.736 63.04H8.472V60.856H17.664V62.992C17.488 64.288 17.024 65.48 16.272 66.568C15.536 67.656 14.568 68.528 13.368 69.184C12.184 69.824 10.864 70.144 9.408 70.144C7.84 70.144 6.408 69.784 5.112 69.064C3.816 68.328 2.784 67.312 2.016 66.016C1.264 64.72 0.888 63.256 0.888 61.624C0.888 59.992 1.264 58.528 2.016 57.232C2.784 55.936 3.816 54.928 5.112 54.208C6.424 53.472 7.856 53.104 9.408 53.104C11.184 53.104 12.76 53.544 14.136 54.424C15.528 55.288 16.536 56.52 17.16 58.12H13.872ZM37.9305 53.32V70H35.1945V58.576L30.1065 70H28.2105L23.0985 58.576V70H20.3625V53.32H23.3145L29.1705 66.4L35.0025 53.32H37.9305ZM51.5826 66.592H44.5986L43.3986 70H40.5426L46.5186 53.296H49.6866L55.6626 70H52.7826L51.5826 66.592ZM50.8146 64.36L48.1026 56.608L45.3666 64.36H50.8146ZM69.0369 53.32V55.552H64.5969V70H61.8609V55.552H57.3969V53.32H69.0369ZM88.7702 54.616L82.0982 70H79.3382L86.0822 54.904H77.2022V52.576H88.7702V54.616ZM92.6239 66.28C94.1599 64.952 95.3679 63.864 96.2479 63.016C97.1439 62.152 97.8879 61.256 98.4799 60.328C99.0719 59.4 99.3679 58.472 99.3679 57.544C99.3679 56.584 99.1359 55.832 98.6719 55.288C98.2239 54.744 97.5119 54.472 96.5359 54.472C95.5919 54.472 94.8559 54.776 94.3279 55.384C93.8159 55.976 93.5439 56.776 93.5119 57.784H90.8719C90.9199 55.96 91.4639 54.568 92.5039 53.608C93.5599 52.632 94.8959 52.144 96.5119 52.144C98.2559 52.144 99.6159 52.624 100.592 53.584C101.584 54.544 102.08 55.824 102.08 57.424C102.08 58.576 101.784 59.688 101.192 60.76C100.616 61.816 99.9199 62.768 99.1039 63.616C98.3039 64.448 97.2799 65.416 96.0319 66.52L94.9519 67.48H102.56V69.76H90.8959V67.768L92.6239 66.28ZM104.963 61.024C104.963 58.256 105.427 56.096 106.355 54.544C107.299 52.976 108.915 52.192 111.203 52.192C113.491 52.192 115.099 52.976 116.027 54.544C116.971 56.096 117.443 58.256 117.443 61.024C117.443 63.824 116.971 66.016 116.027 67.6C115.099 69.168 113.491 69.952 111.203 69.952C108.915 69.952 107.299 69.168 106.355 67.6C105.427 66.016 104.963 63.824 104.963 61.024ZM114.755 61.024C114.755 59.728 114.667 58.632 114.491 57.736C114.331 56.84 113.995 56.112 113.483 55.552C112.971 54.976 112.211 54.688 111.203 54.688C110.195 54.688 109.435 54.976 108.923 55.552C108.411 56.112 108.067 56.84 107.891 57.736C107.731 58.632 107.651 59.728 107.651 61.024C107.651 62.368 107.731 63.496 107.891 64.408C108.051 65.32 108.387 66.056 108.899 66.616C109.427 67.176 110.195 67.456 111.203 67.456C112.211 67.456 112.971 67.176 113.483 66.616C114.011 66.056 114.355 65.32 114.515 64.408C114.675 63.496 114.755 62.368 114.755 61.024Z" fill="#3E3C3C"/>
</svg>
