<svg width="152" height="71" viewBox="0 0 152 71" fill="none" xmlns="http://www.w3.org/2000/svg">
<path d="M25.074 14.008C25.074 15.716 24.682 17.284 23.898 18.712C23.114 20.112 21.91 21.246 20.286 22.114C18.662 22.982 16.646 23.416 14.238 23.416H9.786V34H2.604V4.516H14.238C16.59 4.516 18.578 4.922 20.202 5.734C21.826 6.546 23.044 7.666 23.856 9.094C24.668 10.522 25.074 12.16 25.074 14.008ZM13.692 17.704C15.064 17.704 16.086 17.382 16.758 16.738C17.43 16.094 17.766 15.184 17.766 14.008C17.766 12.832 17.43 11.922 16.758 11.278C16.086 10.634 15.064 10.312 13.692 10.312H9.786V17.704H13.692ZM35.995 14.47C36.835 13.182 37.885 12.174 39.145 11.446C40.405 10.69 41.805 10.312 43.345 10.312V17.914H41.371C39.579 17.914 38.235 18.306 37.339 19.09C36.443 19.846 35.995 21.19 35.995 23.122V34H28.813V10.564H35.995V14.47ZM45.3498 22.24C45.3498 19.832 45.7978 17.718 46.6938 15.898C47.6178 14.078 48.8638 12.678 50.4318 11.698C51.9998 10.718 53.7498 10.228 55.6818 10.228C57.3338 10.228 58.7758 10.564 60.0078 11.236C61.2678 11.908 62.2338 12.79 62.9058 13.882V10.564H70.0878V34H62.9058V30.682C62.2058 31.774 61.2258 32.656 59.9658 33.328C58.7338 34 57.2918 34.336 55.6398 34.336C53.7358 34.336 51.9998 33.846 50.4318 32.866C48.8638 31.858 47.6178 30.444 46.6938 28.624C45.7978 26.776 45.3498 24.648 45.3498 22.24ZM62.9058 22.282C62.9058 20.49 62.4018 19.076 61.3938 18.04C60.4138 17.004 59.2098 16.486 57.7818 16.486C56.3538 16.486 55.1358 17.004 54.1278 18.04C53.1478 19.048 52.6578 20.448 52.6578 22.24C52.6578 24.032 53.1478 25.46 54.1278 26.524C55.1358 27.56 56.3538 28.078 57.7818 28.078C59.2098 28.078 60.4138 27.56 61.3938 26.524C62.4018 25.488 62.9058 24.074 62.9058 22.282ZM89.5637 10.312C92.3077 10.312 94.4917 11.208 96.1157 13C97.7677 14.764 98.5937 17.2 98.5937 20.308V34H91.4537V21.274C91.4537 19.706 91.0477 18.488 90.2357 17.62C89.4237 16.752 88.3317 16.318 86.9597 16.318C85.5877 16.318 84.4957 16.752 83.6837 17.62C82.8717 18.488 82.4657 19.706 82.4657 21.274V34H75.2837V10.564H82.4657V13.672C83.1937 12.636 84.1737 11.824 85.4057 11.236C86.6377 10.62 88.0237 10.312 89.5637 10.312ZM107.154 8.128C105.894 8.128 104.858 7.764 104.046 7.036C103.262 6.28 102.87 5.356 102.87 4.264C102.87 3.144 103.262 2.22 104.046 1.492C104.858 0.735998 105.894 0.357998 107.154 0.357998C108.386 0.357998 109.394 0.735998 110.178 1.492C110.99 2.22 111.396 3.144 111.396 4.264C111.396 5.356 110.99 6.28 110.178 7.036C109.394 7.764 108.386 8.128 107.154 8.128ZM110.766 37.024C110.766 39.908 110.038 41.98 108.582 43.24C107.126 44.528 105.096 45.172 102.492 45.172H99.6785V39.082H101.4C102.184 39.082 102.744 38.928 103.08 38.62C103.416 38.312 103.584 37.808 103.584 37.108V10.564H110.766V37.024ZM114.502 22.24C114.502 19.832 114.95 17.718 115.846 15.898C116.77 14.078 118.016 12.678 119.584 11.698C121.152 10.718 122.902 10.228 124.834 10.228C126.486 10.228 127.928 10.564 129.16 11.236C130.42 11.908 131.386 12.79 132.058 13.882V10.564H139.24V34H132.058V30.682C131.358 31.774 130.378 32.656 129.118 33.328C127.886 34 126.444 34.336 124.792 34.336C122.888 34.336 121.152 33.846 119.584 32.866C118.016 31.858 116.77 30.444 115.846 28.624C114.95 26.776 114.502 24.648 114.502 22.24ZM132.058 22.282C132.058 20.49 131.554 19.076 130.546 18.04C129.566 17.004 128.362 16.486 126.934 16.486C125.506 16.486 124.288 17.004 123.28 18.04C122.3 19.048 121.81 20.448 121.81 22.24C121.81 24.032 122.3 25.46 123.28 26.524C124.288 27.56 125.506 28.078 126.934 28.078C128.362 28.078 129.566 27.56 130.546 26.524C131.554 25.488 132.058 24.074 132.058 22.282ZM151.618 2.92V34H144.436V2.92H151.618Z" fill="#4F35F2"/>
<path d="M13.872 58.12C13.44 57.288 12.84 56.664 12.072 56.248C11.304 55.816 10.416 55.6 9.408 55.6C8.304 55.6 7.32 55.848 6.456 56.344C5.592 56.84 4.912 57.544 4.416 58.456C3.936 59.368 3.696 60.424 3.696 61.624C3.696 62.824 3.936 63.888 4.416 64.816C4.912 65.728 5.592 66.432 6.456 66.928C7.32 67.424 8.304 67.672 9.408 67.672C10.896 67.672 12.104 67.256 13.032 66.424C13.96 65.592 14.528 64.464 14.736 63.04H8.472V60.856H17.664V62.992C17.488 64.288 17.024 65.48 16.272 66.568C15.536 67.656 14.568 68.528 13.368 69.184C12.184 69.824 10.864 70.144 9.408 70.144C7.84 70.144 6.408 69.784 5.112 69.064C3.816 68.328 2.784 67.312 2.016 66.016C1.264 64.72 0.888 63.256 0.888 61.624C0.888 59.992 1.264 58.528 2.016 57.232C2.784 55.936 3.816 54.928 5.112 54.208C6.424 53.472 7.856 53.104 9.408 53.104C11.184 53.104 12.76 53.544 14.136 54.424C15.528 55.288 16.536 56.52 17.16 58.12H13.872ZM37.9305 53.32V70H35.1945V58.576L30.1065 70H28.2105L23.0985 58.576V70H20.3625V53.32H23.3145L29.1705 66.4L35.0025 53.32H37.9305ZM51.5826 66.592H44.5986L43.3986 70H40.5426L46.5186 53.296H49.6866L55.6626 70H52.7826L51.5826 66.592ZM50.8146 64.36L48.1026 56.608L45.3666 64.36H50.8146ZM69.0369 53.32V55.552H64.5969V70H61.8609V55.552H57.3969V53.32H69.0369ZM88.7702 54.616L82.0982 70H79.3382L86.0822 54.904H77.2022V52.576H88.7702V54.616ZM102.2 54.616L95.5279 70H92.7679L99.5119 54.904H90.6319V52.576H102.2V54.616ZM104.542 61.024C104.542 58.256 105.006 56.096 105.934 54.544C106.878 52.976 108.494 52.192 110.782 52.192C113.07 52.192 114.678 52.976 115.606 54.544C116.55 56.096 117.022 58.256 117.022 61.024C117.022 63.824 116.55 66.016 115.606 67.6C114.678 69.168 113.07 69.952 110.782 69.952C108.494 69.952 106.878 69.168 105.934 67.6C105.006 66.016 104.542 63.824 104.542 61.024ZM114.334 61.024C114.334 59.728 114.246 58.632 114.07 57.736C113.91 56.84 113.574 56.112 113.062 55.552C112.55 54.976 111.79 54.688 110.782 54.688C109.774 54.688 109.014 54.976 108.502 55.552C107.99 56.112 107.646 56.84 107.47 57.736C107.31 58.632 107.23 59.728 107.23 61.024C107.23 62.368 107.31 63.496 107.47 64.408C107.63 65.32 107.966 66.056 108.478 66.616C109.006 67.176 109.774 67.456 110.782 67.456C111.79 67.456 112.55 67.176 113.062 66.616C113.59 66.056 113.934 65.32 114.094 64.408C114.254 63.496 114.334 62.368 114.334 61.024Z" fill="#3E3C3C"/>
</svg>
