<svg width="641" height="216" viewBox="0 0 641 216" fill="none" xmlns="http://www.w3.org/2000/svg">
<rect y="126" width="391" height="72" rx="15" fill="white"/>
<path d="M50.96 43.864C49.808 41.752 48.224 40.144 46.208 39.04C44.192 37.936 41.84 37.384 39.152 37.384C36.176 37.384 33.536 38.056 31.232 39.4C28.928 40.744 27.128 42.664 25.832 45.16C24.536 47.656 23.888 50.536 23.888 53.8C23.888 57.16 24.536 60.088 25.832 62.584C27.176 65.08 29.024 67 31.376 68.344C33.728 69.688 36.464 70.36 39.584 70.36C43.424 70.36 46.568 69.352 49.016 67.336C51.464 65.272 53.072 62.416 53.84 58.768H36.56V51.064H63.776V59.848C63.104 63.352 61.664 66.592 59.456 69.568C57.248 72.544 54.392 74.944 50.888 76.768C47.432 78.544 43.544 79.432 39.224 79.432C34.376 79.432 29.984 78.352 26.048 76.192C22.16 73.984 19.088 70.936 16.832 67.048C14.624 63.16 13.52 58.744 13.52 53.8C13.52 48.856 14.624 44.44 16.832 40.552C19.088 36.616 22.16 33.568 26.048 31.408C29.984 29.2 34.352 28.096 39.152 28.096C44.816 28.096 49.736 29.488 53.912 32.272C58.088 35.008 60.968 38.872 62.552 43.864H50.96ZM108.314 58.192C108.314 59.632 108.218 60.928 108.026 62.08H78.8656C79.1056 64.96 80.1136 67.216 81.8896 68.848C83.6656 70.48 85.8496 71.296 88.4416 71.296C92.1856 71.296 94.8496 69.688 96.4336 66.472H107.306C106.154 70.312 103.946 73.48 100.682 75.976C97.4176 78.424 93.4096 79.648 88.6576 79.648C84.8176 79.648 81.3616 78.808 78.2896 77.128C75.2656 75.4 72.8896 72.976 71.1616 69.856C69.4816 66.736 68.6416 63.136 68.6416 59.056C68.6416 54.928 69.4816 51.304 71.1616 48.184C72.8416 45.064 75.1936 42.664 78.2176 40.984C81.2416 39.304 84.7216 38.464 88.6576 38.464C92.4496 38.464 95.8336 39.28 98.8096 40.912C101.834 42.544 104.162 44.872 105.794 47.896C107.474 50.872 108.314 54.304 108.314 58.192ZM97.8736 55.312C97.8256 52.72 96.8896 50.656 95.0656 49.12C93.2416 47.536 91.0096 46.744 88.3696 46.744C85.8736 46.744 83.7616 47.512 82.0336 49.048C80.3536 50.536 79.3216 52.624 78.9376 55.312H97.8736ZM127.407 47.392V66.688C127.407 68.032 127.719 69.016 128.343 69.64C129.015 70.216 130.119 70.504 131.655 70.504H136.335V79H129.999C121.503 79 117.255 74.872 117.255 66.616V47.392H112.503V39.112H117.255V29.248H127.407V39.112H136.335V47.392H127.407ZM172.477 47.392V66.688C172.477 68.032 172.789 69.016 173.413 69.64C174.085 70.216 175.189 70.504 176.725 70.504H181.405V79H175.069C166.573 79 162.325 74.872 162.325 66.616V47.392H157.573V39.112H162.325V29.248H172.477V39.112H181.405V47.392H172.477ZM198.736 45.304C200.032 43.192 201.712 41.536 203.776 40.336C205.888 39.136 208.288 38.536 210.976 38.536V49.12H208.312C205.144 49.12 202.744 49.864 201.112 51.352C199.528 52.84 198.736 55.432 198.736 59.128V79H188.656V39.112H198.736V45.304ZM215.173 58.912C215.173 54.88 215.965 51.304 217.549 48.184C219.181 45.064 221.365 42.664 224.101 40.984C226.885 39.304 229.981 38.464 233.389 38.464C236.365 38.464 238.957 39.064 241.165 40.264C243.421 41.464 245.221 42.976 246.565 44.8V39.112H256.717V79H246.565V73.168C245.269 75.04 243.469 76.6 241.165 77.848C238.909 79.048 236.293 79.648 233.317 79.648C229.957 79.648 226.885 78.784 224.101 77.056C221.365 75.328 219.181 72.904 217.549 69.784C215.965 66.616 215.173 62.992 215.173 58.912ZM246.565 59.056C246.565 56.608 246.085 54.52 245.125 52.792C244.165 51.016 242.869 49.672 241.237 48.76C239.605 47.8 237.853 47.32 235.981 47.32C234.109 47.32 232.381 47.776 230.797 48.688C229.213 49.6 227.917 50.944 226.909 52.72C225.949 54.448 225.469 56.512 225.469 58.912C225.469 61.312 225.949 63.424 226.909 65.248C227.917 67.024 229.213 68.392 230.797 69.352C232.429 70.312 234.157 70.792 235.981 70.792C237.853 70.792 239.605 70.336 241.237 69.424C242.869 68.464 244.165 67.12 245.125 65.392C246.085 63.616 246.565 61.504 246.565 59.056ZM271.674 34.36C269.898 34.36 268.41 33.808 267.21 32.704C266.058 31.552 265.482 30.136 265.482 28.456C265.482 26.776 266.058 25.384 267.21 24.28C268.41 23.128 269.898 22.552 271.674 22.552C273.45 22.552 274.914 23.128 276.066 24.28C277.266 25.384 277.866 26.776 277.866 28.456C277.866 30.136 277.266 31.552 276.066 32.704C274.914 33.808 273.45 34.36 271.674 34.36ZM276.642 39.112V79H266.562V39.112H276.642ZM308.705 38.536C313.457 38.536 317.297 40.048 320.225 43.072C323.153 46.048 324.617 50.224 324.617 55.6V79H314.537V56.968C314.537 53.8 313.745 51.376 312.161 49.696C310.577 47.968 308.417 47.104 305.681 47.104C302.897 47.104 300.689 47.968 299.057 49.696C297.473 51.376 296.681 53.8 296.681 56.968V79H286.601V39.112H296.681V44.08C298.025 42.352 299.729 41.008 301.793 40.048C303.905 39.04 306.209 38.536 308.705 38.536ZM371.282 58.192C371.282 59.632 371.186 60.928 370.994 62.08H341.834C342.074 64.96 343.082 67.216 344.858 68.848C346.634 70.48 348.818 71.296 351.41 71.296C355.154 71.296 357.818 69.688 359.402 66.472H370.274C369.122 70.312 366.914 73.48 363.65 75.976C360.386 78.424 356.378 79.648 351.626 79.648C347.786 79.648 344.33 78.808 341.258 77.128C338.234 75.4 335.858 72.976 334.13 69.856C332.45 66.736 331.61 63.136 331.61 59.056C331.61 54.928 332.45 51.304 334.13 48.184C335.81 45.064 338.162 42.664 341.186 40.984C344.21 39.304 347.69 38.464 351.626 38.464C355.418 38.464 358.802 39.28 361.778 40.912C364.802 42.544 367.13 44.872 368.762 47.896C370.442 50.872 371.282 54.304 371.282 58.192ZM360.842 55.312C360.794 52.72 359.858 50.656 358.034 49.12C356.21 47.536 353.978 46.744 351.338 46.744C348.842 46.744 346.73 47.512 345.002 49.048C343.322 50.536 342.29 52.624 341.906 55.312H360.842ZM376.048 58.912C376.048 54.88 376.84 51.304 378.424 48.184C380.056 45.064 382.264 42.664 385.048 40.984C387.832 39.304 390.928 38.464 394.336 38.464C396.928 38.464 399.4 39.04 401.752 40.192C404.104 41.296 405.976 42.784 407.368 44.656V25.72H417.592V79H407.368V73.096C406.12 75.064 404.368 76.648 402.112 77.848C399.856 79.048 397.24 79.648 394.264 79.648C390.904 79.648 387.832 78.784 385.048 77.056C382.264 75.328 380.056 72.904 378.424 69.784C376.84 66.616 376.048 62.992 376.048 58.912ZM407.44 59.056C407.44 56.608 406.96 54.52 406 52.792C405.04 51.016 403.744 49.672 402.112 48.76C400.48 47.8 398.728 47.32 396.856 47.32C394.984 47.32 393.256 47.776 391.672 48.688C390.088 49.6 388.792 50.944 387.784 52.72C386.824 54.448 386.344 56.512 386.344 58.912C386.344 61.312 386.824 63.424 387.784 65.248C388.792 67.024 390.088 68.392 391.672 69.352C393.304 70.312 395.032 70.792 396.856 70.792C398.728 70.792 400.48 70.336 402.112 69.424C403.744 68.464 405.04 67.12 406 65.392C406.96 63.616 407.44 61.504 407.44 59.056ZM454.673 44.944C455.969 43.024 457.745 41.464 460.001 40.264C462.305 39.064 464.921 38.464 467.849 38.464C471.257 38.464 474.329 39.304 477.065 40.984C479.849 42.664 482.033 45.064 483.617 48.184C485.249 51.256 486.065 54.832 486.065 58.912C486.065 62.992 485.249 66.616 483.617 69.784C482.033 72.904 479.849 75.328 477.065 77.056C474.329 78.784 471.257 79.648 467.849 79.648C464.873 79.648 462.257 79.072 460.001 77.92C457.793 76.72 456.017 75.184 454.673 73.312V79H444.593V25.72H454.673V44.944ZM475.769 58.912C475.769 56.512 475.265 54.448 474.257 52.72C473.297 50.944 472.001 49.6 470.369 48.688C468.785 47.776 467.057 47.32 465.185 47.32C463.361 47.32 461.633 47.8 460.001 48.76C458.417 49.672 457.121 51.016 456.113 52.792C455.153 54.568 454.673 56.656 454.673 59.056C454.673 61.456 455.153 63.544 456.113 65.32C457.121 67.096 458.417 68.464 460.001 69.424C461.633 70.336 463.361 70.792 465.185 70.792C467.057 70.792 468.785 70.312 470.369 69.352C472.001 68.392 473.297 67.024 474.257 65.248C475.265 63.472 475.769 61.36 475.769 58.912ZM531.55 39.112L506.854 97.864H496.126L504.766 77.992L488.782 39.112H500.086L510.382 66.976L520.822 39.112H531.55ZM429.552 187.648C426.288 187.648 423.36 187.072 420.768 185.92C418.176 184.72 416.112 183.112 414.576 181.096C413.088 179.08 412.272 176.848 412.128 174.4H422.28C422.472 175.936 423.216 177.208 424.512 178.216C425.856 179.224 427.512 179.728 429.48 179.728C431.4 179.728 432.888 179.344 433.944 178.576C435.048 177.808 435.6 176.824 435.6 175.624C435.6 174.328 434.928 173.368 433.584 172.744C432.288 172.072 430.2 171.352 427.32 170.584C424.344 169.864 421.896 169.12 419.976 168.352C418.104 167.584 416.472 166.408 415.08 164.824C413.736 163.24 413.064 161.104 413.064 158.416C413.064 156.208 413.688 154.192 414.936 152.368C416.232 150.544 418.056 149.104 420.408 148.048C422.808 146.992 425.616 146.464 428.832 146.464C433.584 146.464 437.376 147.664 440.208 150.064C443.04 152.416 444.6 155.608 444.888 159.64H435.24C435.096 158.056 434.424 156.808 433.224 155.896C432.072 154.936 430.512 154.456 428.544 154.456C426.72 154.456 425.304 154.792 424.296 155.464C423.336 156.136 422.856 157.072 422.856 158.272C422.856 159.616 423.528 160.648 424.872 161.368C426.216 162.04 428.304 162.736 431.136 163.456C434.016 164.176 436.392 164.92 438.264 165.688C440.136 166.456 441.744 167.656 443.088 169.288C444.48 170.872 445.2 172.984 445.248 175.624C445.248 177.928 444.6 179.992 443.304 181.816C442.056 183.64 440.232 185.08 437.832 186.136C435.48 187.144 432.72 187.648 429.552 187.648ZM450.931 167.056C450.931 162.928 451.771 159.328 453.451 156.256C455.131 153.136 457.459 150.736 460.435 149.056C463.411 147.328 466.819 146.464 470.659 146.464C475.603 146.464 479.683 147.712 482.899 150.208C486.163 152.656 488.347 156.112 489.451 160.576H478.579C478.003 158.848 477.019 157.504 475.627 156.544C474.283 155.536 472.603 155.032 470.587 155.032C467.707 155.032 465.427 156.088 463.747 158.2C462.067 160.264 461.227 163.216 461.227 167.056C461.227 170.848 462.067 173.8 463.747 175.912C465.427 177.976 467.707 179.008 470.587 179.008C474.667 179.008 477.331 177.184 478.579 173.536H489.451C488.347 177.856 486.163 181.288 482.899 183.832C479.635 186.376 475.555 187.648 470.659 187.648C466.819 187.648 463.411 186.808 460.435 185.128C457.459 183.4 455.131 181 453.451 177.928C451.771 174.808 450.931 171.184 450.931 167.056ZM514.547 187.648C510.707 187.648 507.251 186.808 504.179 185.128C501.107 183.4 498.683 180.976 496.907 177.856C495.179 174.736 494.315 171.136 494.315 167.056C494.315 162.976 495.203 159.376 496.979 156.256C498.803 153.136 501.275 150.736 504.395 149.056C507.515 147.328 510.995 146.464 514.835 146.464C518.675 146.464 522.155 147.328 525.275 149.056C528.395 150.736 530.843 153.136 532.619 156.256C534.443 159.376 535.355 162.976 535.355 167.056C535.355 171.136 534.419 174.736 532.547 177.856C530.723 180.976 528.227 183.4 525.059 185.128C521.939 186.808 518.435 187.648 514.547 187.648ZM514.547 178.864C516.371 178.864 518.075 178.432 519.659 177.568C521.291 176.656 522.587 175.312 523.547 173.536C524.507 171.76 524.987 169.6 524.987 167.056C524.987 163.264 523.979 160.36 521.963 158.344C519.995 156.28 517.571 155.248 514.691 155.248C511.811 155.248 509.387 156.28 507.419 158.344C505.499 160.36 504.539 163.264 504.539 167.056C504.539 170.848 505.475 173.776 507.347 175.84C509.267 177.856 511.667 178.864 514.547 178.864ZM552.829 153.304C554.125 151.192 555.805 149.536 557.869 148.336C559.981 147.136 562.381 146.536 565.069 146.536V157.12H562.405C559.237 157.12 556.837 157.864 555.205 159.352C553.621 160.84 552.829 163.432 552.829 167.128V187H542.749V147.112H552.829V153.304ZM608.939 166.192C608.939 167.632 608.843 168.928 608.651 170.08H579.491C579.731 172.96 580.739 175.216 582.515 176.848C584.291 178.48 586.475 179.296 589.067 179.296C592.811 179.296 595.475 177.688 597.059 174.472H607.931C606.779 178.312 604.571 181.48 601.307 183.976C598.043 186.424 594.035 187.648 589.283 187.648C585.443 187.648 581.987 186.808 578.915 185.128C575.891 183.4 573.515 180.976 571.787 177.856C570.107 174.736 569.267 171.136 569.267 167.056C569.267 162.928 570.107 159.304 571.787 156.184C573.467 153.064 575.819 150.664 578.843 148.984C581.867 147.304 585.347 146.464 589.283 146.464C593.075 146.464 596.459 147.28 599.435 148.912C602.459 150.544 604.787 152.872 606.419 155.896C608.099 158.872 608.939 162.304 608.939 166.192ZM598.499 163.312C598.451 160.72 597.515 158.656 595.691 157.12C593.867 155.536 591.635 154.744 588.995 154.744C586.499 154.744 584.387 155.512 582.659 157.048C580.979 158.536 579.947 160.624 579.563 163.312H598.499ZM626.376 153.304C627.672 151.192 629.352 149.536 631.416 148.336C633.528 147.136 635.928 146.536 638.616 146.536V157.12H635.952C632.784 157.12 630.384 157.864 628.752 159.352C627.168 160.84 626.376 163.432 626.376 167.128V187H616.296V147.112H626.376V153.304Z" fill="white"/>
<path d="M47.792 143.656L29.72 187H17.12L35.408 145.024H13.016V134.512H47.792V143.656ZM61.4113 158.776C56.8993 156.376 54.6433 152.608 54.6433 147.472C54.6433 144.88 55.3153 142.528 56.6593 140.416C58.0033 138.256 60.0433 136.552 62.7793 135.304C65.5153 134.008 68.8753 133.36 72.8593 133.36C76.8433 133.36 80.1793 134.008 82.8673 135.304C85.6033 136.552 87.6433 138.256 88.9873 140.416C90.3313 142.528 91.0033 144.88 91.0033 147.472C91.0033 150.064 90.3793 152.32 89.1313 154.24C87.9313 156.16 86.2993 157.672 84.2353 158.776C86.8273 160.024 88.8193 161.752 90.2112 163.96C91.6033 166.12 92.2993 168.664 92.2993 171.592C92.2993 175 91.4353 177.952 89.7073 180.448C87.9793 182.896 85.6273 184.768 82.6513 186.064C79.7233 187.36 76.4593 188.008 72.8593 188.008C69.2593 188.008 65.9713 187.36 62.9953 186.064C60.0673 184.768 57.7393 182.896 56.0113 180.448C54.2833 177.952 53.4193 175 53.4193 171.592C53.4193 168.616 54.1153 166.048 55.5073 163.888C56.8993 161.68 58.8673 159.976 61.4113 158.776ZM79.0513 149.344C79.0513 147.376 78.4753 145.864 77.3233 144.808C76.2193 143.704 74.7313 143.152 72.8593 143.152C70.9873 143.152 69.4753 143.704 68.3233 144.808C67.2193 145.912 66.6673 147.448 66.6673 149.416C66.6673 151.288 67.2433 152.776 68.3953 153.88C69.5473 154.936 71.0353 155.464 72.8593 155.464C74.6833 155.464 76.1713 154.912 77.3233 153.808C78.4753 152.704 79.0513 151.216 79.0513 149.344ZM72.8593 164.104C70.6033 164.104 68.7793 164.728 67.3873 165.976C65.9953 167.176 65.2993 168.856 65.2993 171.016C65.2993 173.032 65.9713 174.688 67.3153 175.984C68.7073 177.28 70.5553 177.928 72.8593 177.928C75.1633 177.928 76.9633 177.28 78.2593 175.984C79.6033 174.688 80.2753 173.032 80.2753 171.016C80.2753 168.904 79.5793 167.224 78.1873 165.976C76.8433 164.728 75.0673 164.104 72.8593 164.104ZM99.4588 160C99.4588 151.744 101.043 145.24 104.211 140.488C107.427 135.736 112.587 133.36 119.691 133.36C126.795 133.36 131.931 135.736 135.099 140.488C138.315 145.24 139.923 151.744 139.923 160C139.923 168.352 138.315 174.904 135.099 179.656C131.931 184.408 126.795 186.784 119.691 186.784C112.587 186.784 107.427 184.408 104.211 179.656C101.043 174.904 99.4588 168.352 99.4588 160ZM127.827 160C127.827 155.152 127.299 151.432 126.243 148.84C125.187 146.2 123.003 144.88 119.691 144.88C116.379 144.88 114.195 146.2 113.139 148.84C112.083 151.432 111.555 155.152 111.555 160C111.555 163.264 111.747 165.976 112.131 168.136C112.515 170.248 113.283 171.976 114.435 173.32C115.635 174.616 117.387 175.264 119.691 175.264C121.995 175.264 123.723 174.616 124.875 173.32C126.075 171.976 126.867 170.248 127.251 168.136C127.635 165.976 127.827 163.264 127.827 160ZM196.461 152.44C195.549 150.76 194.229 149.488 192.501 148.624C190.821 147.712 188.829 147.256 186.525 147.256C182.541 147.256 179.349 148.576 176.949 151.216C174.549 153.808 173.349 157.288 173.349 161.656C173.349 166.312 174.597 169.96 177.093 172.6C179.637 175.192 183.117 176.488 187.533 176.488C190.557 176.488 193.101 175.72 195.165 174.184C197.277 172.648 198.813 170.44 199.773 167.56H184.149V158.488H210.933V169.936C210.021 173.008 208.461 175.864 206.253 178.504C204.093 181.144 201.333 183.28 197.973 184.912C194.613 186.544 190.821 187.36 186.597 187.36C181.605 187.36 177.141 186.28 173.205 184.12C169.317 181.912 166.269 178.864 164.061 174.976C161.901 171.088 160.821 166.648 160.821 161.656C160.821 156.664 161.901 152.224 164.061 148.336C166.269 144.4 169.317 141.352 173.205 139.192C177.093 136.984 181.533 135.88 186.525 135.88C192.573 135.88 197.661 137.344 201.789 140.272C205.965 143.2 208.725 147.256 210.069 152.44H196.461ZM274.993 136.456V187H262.681V156.688L251.377 187H241.441L230.065 156.616V187H217.753V136.456H232.297L246.481 171.448L260.521 136.456H274.993ZM315.311 178.072H296.447L293.423 187H280.535L298.823 136.456H313.079L331.367 187H318.335L315.311 178.072ZM312.143 168.568L305.879 150.064L299.687 168.568H312.143ZM373.293 136.456V146.32H359.901V187H347.589V146.32H334.197V136.456H373.293Z" fill="#4F35F2"/>
</svg>
