<svg width="484" height="88" viewBox="0 0 484 88" fill="none" xmlns="http://www.w3.org/2000/svg">
<g filter="url(#filter0_d_9_278)">
<rect x="10" y="6" width="464" height="68" rx="10" fill="#4F35F2"/>
</g>
<path d="M48.3799 53.252C46.5319 53.252 44.8759 52.952 43.4119 52.352C41.9479 51.752 40.7719 50.864 39.8839 49.688C39.0199 48.512 38.5639 47.096 38.5159 45.44H45.0679C45.1639 46.376 45.4879 47.096 46.0399 47.6C46.5919 48.08 47.3119 48.32 48.1999 48.32C49.1119 48.32 49.8319 48.116 50.3599 47.708C50.8879 47.276 51.1519 46.688 51.1519 45.944C51.1519 45.32 50.9359 44.804 50.5039 44.396C50.0959 43.988 49.5799 43.652 48.9559 43.388C48.3559 43.124 47.4919 42.824 46.3639 42.488C44.7319 41.984 43.3999 41.48 42.3679 40.976C41.3359 40.472 40.4479 39.728 39.7039 38.744C38.9599 37.76 38.5879 36.476 38.5879 34.892C38.5879 32.54 39.4399 30.704 41.1439 29.384C42.8479 28.04 45.0679 27.368 47.8039 27.368C50.5879 27.368 52.8319 28.04 54.5359 29.384C56.2399 30.704 57.1519 32.552 57.2719 34.928H50.6119C50.5639 34.112 50.2639 33.476 49.7119 33.02C49.1599 32.54 48.4519 32.3 47.5879 32.3C46.8439 32.3 46.2439 32.504 45.7879 32.912C45.3319 33.296 45.1039 33.86 45.1039 34.604C45.1039 35.42 45.4879 36.056 46.2559 36.512C47.0239 36.968 48.2239 37.46 49.8559 37.988C51.4879 38.54 52.8079 39.068 53.8159 39.572C54.8479 40.076 55.7359 40.808 56.4799 41.768C57.2239 42.728 57.5959 43.964 57.5959 45.476C57.5959 46.916 57.2239 48.224 56.4799 49.4C55.7599 50.576 54.7039 51.512 53.3119 52.208C51.9199 52.904 50.2759 53.252 48.3799 53.252ZM79.5643 27.728V32.66H72.8683V53H66.7123V32.66H60.0163V27.728H79.5643ZM98.3859 48.536H88.9539L87.4419 53H80.9979L90.1419 27.728H97.2699L106.414 53H99.8979L98.3859 48.536ZM96.8019 43.784L93.6699 34.532L90.5739 43.784H96.8019ZM122.085 53L116.829 43.46H115.353V53H109.197V27.728H119.529C121.521 27.728 123.213 28.076 124.605 28.772C126.021 29.468 127.077 30.428 127.773 31.652C128.469 32.852 128.817 34.196 128.817 35.684C128.817 37.364 128.337 38.864 127.377 40.184C126.441 41.504 125.049 42.44 123.201 42.992L129.033 53H122.085ZM115.353 39.104H119.169C120.297 39.104 121.137 38.828 121.689 38.276C122.265 37.724 122.553 36.944 122.553 35.936C122.553 34.976 122.265 34.22 121.689 33.668C121.137 33.116 120.297 32.84 119.169 32.84H115.353V39.104ZM150.861 27.728V32.66H144.165V53H138.009V32.66H131.313V27.728H150.861ZM183.252 27.728L174.504 44.648V53H168.348V44.648L159.6 27.728H166.584L171.48 38.312L176.34 27.728H183.252ZM197.684 53.252C195.308 53.252 193.124 52.7 191.132 51.596C189.164 50.492 187.592 48.956 186.416 46.988C185.264 44.996 184.688 42.764 184.688 40.292C184.688 37.82 185.264 35.6 186.416 33.632C187.592 31.664 189.164 30.128 191.132 29.024C193.124 27.92 195.308 27.368 197.684 27.368C200.06 27.368 202.232 27.92 204.2 29.024C206.192 30.128 207.752 31.664 208.88 33.632C210.032 35.6 210.608 37.82 210.608 40.292C210.608 42.764 210.032 44.996 208.88 46.988C207.728 48.956 206.168 50.492 204.2 51.596C202.232 52.7 200.06 53.252 197.684 53.252ZM197.684 47.636C199.7 47.636 201.308 46.964 202.508 45.62C203.732 44.276 204.344 42.5 204.344 40.292C204.344 38.06 203.732 36.284 202.508 34.964C201.308 33.62 199.7 32.948 197.684 32.948C195.644 32.948 194.012 33.608 192.788 34.928C191.588 36.248 190.988 38.036 190.988 40.292C190.988 42.524 191.588 44.312 192.788 45.656C194.012 46.976 195.644 47.636 197.684 47.636ZM220.081 27.728V42.848C220.081 44.36 220.453 45.524 221.197 46.34C221.941 47.156 223.033 47.564 224.473 47.564C225.913 47.564 227.017 47.156 227.785 46.34C228.553 45.524 228.937 44.36 228.937 42.848V27.728H235.093V42.812C235.093 45.068 234.613 46.976 233.653 48.536C232.693 50.096 231.397 51.272 229.765 52.064C228.157 52.856 226.357 53.252 224.365 53.252C222.373 53.252 220.585 52.868 219.001 52.1C217.441 51.308 216.205 50.132 215.293 48.572C214.381 46.988 213.925 45.068 213.925 42.812V27.728H220.081ZM252.304 53L247.048 43.46H245.572V53H239.416V27.728H249.748C251.74 27.728 253.432 28.076 254.824 28.772C256.24 29.468 257.296 30.428 257.992 31.652C258.688 32.852 259.036 34.196 259.036 35.684C259.036 37.364 258.556 38.864 257.596 40.184C256.66 41.504 255.268 42.44 253.42 42.992L259.252 53H252.304ZM245.572 39.104H249.388C250.516 39.104 251.356 38.828 251.908 38.276C252.484 37.724 252.772 36.944 252.772 35.936C252.772 34.976 252.484 34.22 251.908 33.668C251.356 33.116 250.516 32.84 249.388 32.84H245.572V39.104ZM289.789 35.864C289.789 37.328 289.453 38.672 288.781 39.896C288.109 41.096 287.077 42.068 285.685 42.812C284.293 43.556 282.565 43.928 280.501 43.928H276.685V53H270.529V27.728H280.501C282.517 27.728 284.221 28.076 285.613 28.772C287.005 29.468 288.049 30.428 288.745 31.652C289.441 32.876 289.789 34.28 289.789 35.864ZM280.033 39.032C281.209 39.032 282.085 38.756 282.661 38.204C283.237 37.652 283.525 36.872 283.525 35.864C283.525 34.856 283.237 34.076 282.661 33.524C282.085 32.972 281.209 32.696 280.033 32.696H276.685V39.032H280.033ZM305.882 53L300.626 43.46H299.15V53H292.994V27.728H303.326C305.318 27.728 307.01 28.076 308.402 28.772C309.818 29.468 310.874 30.428 311.57 31.652C312.266 32.852 312.614 34.196 312.614 35.684C312.614 37.364 312.134 38.864 311.174 40.184C310.238 41.504 308.846 42.44 306.998 42.992L312.83 53H305.882ZM299.15 39.104H302.966C304.094 39.104 304.934 38.828 305.486 38.276C306.062 37.724 306.35 36.944 306.35 35.936C306.35 34.976 306.062 34.22 305.486 33.668C304.934 33.116 304.094 32.84 302.966 32.84H299.15V39.104ZM332.21 48.536H322.778L321.266 53H314.822L323.966 27.728H331.094L340.238 53H333.722L332.21 48.536ZM330.626 43.784L327.494 34.532L324.398 43.784H330.626ZM341.977 40.328C341.977 37.832 342.517 35.612 343.597 33.668C344.677 31.7 346.177 30.176 348.097 29.096C350.041 27.992 352.237 27.44 354.685 27.44C357.685 27.44 360.253 28.232 362.389 29.816C364.525 31.4 365.953 33.56 366.673 36.296H359.905C359.401 35.24 358.681 34.436 357.745 33.884C356.833 33.332 355.789 33.056 354.613 33.056C352.717 33.056 351.181 33.716 350.005 35.036C348.829 36.356 348.241 38.12 348.241 40.328C348.241 42.536 348.829 44.3 350.005 45.62C351.181 46.94 352.717 47.6 354.613 47.6C355.789 47.6 356.833 47.324 357.745 46.772C358.681 46.22 359.401 45.416 359.905 44.36H366.673C365.953 47.096 364.525 49.256 362.389 50.84C360.253 52.4 357.685 53.18 354.685 53.18C352.237 53.18 350.041 52.64 348.097 51.56C346.177 50.456 344.677 48.932 343.597 46.988C342.517 45.044 341.977 42.824 341.977 40.328ZM388.623 27.728V32.66H381.927V53H375.771V32.66H369.075V27.728H388.623ZM397.868 27.728V53H391.712V27.728H397.868ZM401.286 40.328C401.286 37.832 401.826 35.612 402.906 33.668C403.986 31.7 405.486 30.176 407.406 29.096C409.35 27.992 411.546 27.44 413.994 27.44C416.994 27.44 419.562 28.232 421.698 29.816C423.834 31.4 425.262 33.56 425.982 36.296H419.214C418.71 35.24 417.99 34.436 417.054 33.884C416.142 33.332 415.098 33.056 413.922 33.056C412.026 33.056 410.49 33.716 409.314 35.036C408.138 36.356 407.55 38.12 407.55 40.328C407.55 42.536 408.138 44.3 409.314 45.62C410.49 46.94 412.026 47.6 413.922 47.6C415.098 47.6 416.142 47.324 417.054 46.772C417.99 46.22 418.71 45.416 419.214 44.36H425.982C425.262 47.096 423.834 49.256 421.698 50.84C419.562 52.4 416.994 53.18 413.994 53.18C411.546 53.18 409.35 52.64 407.406 51.56C405.486 50.456 403.986 48.932 402.906 46.988C401.826 45.044 401.286 42.824 401.286 40.328ZM435.908 32.66V37.772H444.152V42.524H435.908V48.068H445.232V53H429.752V27.728H445.232V32.66H435.908Z" fill="white"/>
<defs>
<filter id="filter0_d_9_278" x="0" y="0" width="484" height="88" filterUnits="userSpaceOnUse" color-interpolation-filters="sRGB">
<feFlood flood-opacity="0" result="BackgroundImageFix"/>
<feColorMatrix in="SourceAlpha" type="matrix" values="0 0 0 0 0 0 0 0 0 0 0 0 0 0 0 0 0 0 127 0" result="hardAlpha"/>
<feOffset dy="4"/>
<feGaussianBlur stdDeviation="5"/>
<feComposite in2="hardAlpha" operator="out"/>
<feColorMatrix type="matrix" values="0 0 0 0 0 0 0 0 0 0 0 0 0 0 0 0 0 0 0.4 0"/>
<feBlend mode="normal" in2="BackgroundImageFix" result="effect1_dropShadow_9_278"/>
<feBlend mode="normal" in="SourceGraphic" in2="effect1_dropShadow_9_278" result="shape"/>
</filter>
</defs>
</svg>
