<svg width="426" height="88" viewBox="0 0 426 88" fill="none" xmlns="http://www.w3.org/2000/svg">
<g filter="url(#filter0_d_9_280)">
<rect x="10" y="6" width="406" height="68" rx="10" fill="#4F35F2"/>
</g>
<path d="M36.8099 27.728V53H30.6539V27.728H36.8099ZM69.8911 27.728V53H63.7351V37.844L58.0831 53H53.1151L47.4271 37.808V53H41.2711V27.728H48.5431L55.6351 45.224L62.6551 27.728H69.8911ZM93.5779 35.864C93.5779 37.328 93.2419 38.672 92.5699 39.896C91.8979 41.096 90.8659 42.068 89.4739 42.812C88.0819 43.556 86.3539 43.928 84.2899 43.928H80.4739V53H74.3179V27.728H84.2899C86.3059 27.728 88.0099 28.076 89.4019 28.772C90.7939 29.468 91.8379 30.428 92.5339 31.652C93.2299 32.876 93.5779 34.28 93.5779 35.864ZM83.8219 39.032C84.9979 39.032 85.8739 38.756 86.4499 38.204C87.0259 37.652 87.3139 36.872 87.3139 35.864C87.3139 34.856 87.0259 34.076 86.4499 33.524C85.8739 32.972 84.9979 32.696 83.8219 32.696H80.4739V39.032H83.8219ZM109.671 53L104.415 43.46H102.939V53H96.7828V27.728H107.115C109.107 27.728 110.799 28.076 112.191 28.772C113.607 29.468 114.663 30.428 115.359 31.652C116.055 32.852 116.403 34.196 116.403 35.684C116.403 37.364 115.923 38.864 114.963 40.184C114.027 41.504 112.635 42.44 110.787 42.992L116.619 53H109.671ZM102.939 39.104H106.755C107.883 39.104 108.723 38.828 109.275 38.276C109.851 37.724 110.139 36.944 110.139 35.936C110.139 34.976 109.851 34.22 109.275 33.668C108.723 33.116 107.883 32.84 106.755 32.84H102.939V39.104ZM132.219 53.252C129.843 53.252 127.659 52.7 125.667 51.596C123.699 50.492 122.127 48.956 120.951 46.988C119.799 44.996 119.223 42.764 119.223 40.292C119.223 37.82 119.799 35.6 120.951 33.632C122.127 31.664 123.699 30.128 125.667 29.024C127.659 27.92 129.843 27.368 132.219 27.368C134.595 27.368 136.767 27.92 138.735 29.024C140.727 30.128 142.287 31.664 143.415 33.632C144.567 35.6 145.143 37.82 145.143 40.292C145.143 42.764 144.567 44.996 143.415 46.988C142.263 48.956 140.703 50.492 138.735 51.596C136.767 52.7 134.595 53.252 132.219 53.252ZM132.219 47.636C134.235 47.636 135.843 46.964 137.043 45.62C138.267 44.276 138.879 42.5 138.879 40.292C138.879 38.06 138.267 36.284 137.043 34.964C135.843 33.62 134.235 32.948 132.219 32.948C130.179 32.948 128.547 33.608 127.323 34.928C126.123 36.248 125.523 38.036 125.523 40.292C125.523 42.524 126.123 44.312 127.323 45.656C128.547 46.976 130.179 47.636 132.219 47.636ZM172.292 27.728L163.328 53H155.624L146.66 27.728H153.212L159.476 46.808L165.776 27.728H172.292ZM181.021 32.66V37.772H189.265V42.524H181.021V48.068H190.345V53H174.865V27.728H190.345V32.66H181.021ZM223.642 27.728L214.894 44.648V53H208.738V44.648L199.99 27.728H206.974L211.87 38.312L216.73 27.728H223.642ZM238.075 53.252C235.699 53.252 233.515 52.7 231.523 51.596C229.555 50.492 227.983 48.956 226.807 46.988C225.655 44.996 225.079 42.764 225.079 40.292C225.079 37.82 225.655 35.6 226.807 33.632C227.983 31.664 229.555 30.128 231.523 29.024C233.515 27.92 235.699 27.368 238.075 27.368C240.451 27.368 242.623 27.92 244.591 29.024C246.583 30.128 248.143 31.664 249.271 33.632C250.423 35.6 250.999 37.82 250.999 40.292C250.999 42.764 250.423 44.996 249.271 46.988C248.119 48.956 246.559 50.492 244.591 51.596C242.623 52.7 240.451 53.252 238.075 53.252ZM238.075 47.636C240.091 47.636 241.699 46.964 242.899 45.62C244.123 44.276 244.735 42.5 244.735 40.292C244.735 38.06 244.123 36.284 242.899 34.964C241.699 33.62 240.091 32.948 238.075 32.948C236.035 32.948 234.403 33.608 233.179 34.928C231.979 36.248 231.379 38.036 231.379 40.292C231.379 42.524 231.979 44.312 233.179 45.656C234.403 46.976 236.035 47.636 238.075 47.636ZM260.471 27.728V42.848C260.471 44.36 260.843 45.524 261.587 46.34C262.331 47.156 263.423 47.564 264.863 47.564C266.303 47.564 267.407 47.156 268.175 46.34C268.943 45.524 269.327 44.36 269.327 42.848V27.728H275.483V42.812C275.483 45.068 275.003 46.976 274.043 48.536C273.083 50.096 271.787 51.272 270.155 52.064C268.547 52.856 266.747 53.252 264.755 53.252C262.763 53.252 260.975 52.868 259.391 52.1C257.831 51.308 256.595 50.132 255.683 48.572C254.771 46.988 254.315 45.068 254.315 42.812V27.728H260.471ZM292.694 53L287.438 43.46H285.962V53H279.806V27.728H290.138C292.13 27.728 293.822 28.076 295.214 28.772C296.63 29.468 297.686 30.428 298.382 31.652C299.078 32.852 299.426 34.196 299.426 35.684C299.426 37.364 298.946 38.864 297.986 40.184C297.05 41.504 295.658 42.44 293.81 42.992L299.642 53H292.694ZM285.962 39.104H289.778C290.906 39.104 291.746 38.828 292.298 38.276C292.874 37.724 293.162 36.944 293.162 35.936C293.162 34.976 292.874 34.22 292.298 33.668C291.746 33.116 290.906 32.84 289.778 32.84H285.962V39.104ZM330.18 35.864C330.18 37.328 329.844 38.672 329.172 39.896C328.5 41.096 327.468 42.068 326.076 42.812C324.684 43.556 322.956 43.928 320.892 43.928H317.076V53H310.92V27.728H320.892C322.908 27.728 324.612 28.076 326.004 28.772C327.396 29.468 328.44 30.428 329.136 31.652C329.832 32.876 330.18 34.28 330.18 35.864ZM320.424 39.032C321.6 39.032 322.476 38.756 323.052 38.204C323.628 37.652 323.916 36.872 323.916 35.864C323.916 34.856 323.628 34.076 323.052 33.524C322.476 32.972 321.6 32.696 320.424 32.696H317.076V39.032H320.424ZM346.272 53L341.016 43.46H339.54V53H333.384V27.728H343.716C345.708 27.728 347.4 28.076 348.792 28.772C350.208 29.468 351.264 30.428 351.96 31.652C352.656 32.852 353.004 34.196 353.004 35.684C353.004 37.364 352.524 38.864 351.564 40.184C350.628 41.504 349.236 42.44 347.388 42.992L353.22 53H346.272ZM339.54 39.104H343.356C344.484 39.104 345.324 38.828 345.876 38.276C346.452 37.724 346.74 36.944 346.74 35.936C346.74 34.976 346.452 34.22 345.876 33.668C345.324 33.116 344.484 32.84 343.356 32.84H339.54V39.104ZM363.025 32.66V37.772H371.269V42.524H363.025V48.068H372.349V53H356.869V27.728H372.349V32.66H363.025ZM395.605 35.864C395.605 37.328 395.269 38.672 394.597 39.896C393.925 41.096 392.893 42.068 391.501 42.812C390.109 43.556 388.381 43.928 386.317 43.928H382.501V53H376.345V27.728H386.317C388.333 27.728 390.037 28.076 391.429 28.772C392.821 29.468 393.865 30.428 394.561 31.652C395.257 32.876 395.605 34.28 395.605 35.864ZM385.849 39.032C387.025 39.032 387.901 38.756 388.477 38.204C389.053 37.652 389.341 36.872 389.341 35.864C389.341 34.856 389.053 34.076 388.477 33.524C387.901 32.972 387.025 32.696 385.849 32.696H382.501V39.032H385.849Z" fill="white"/>
<defs>
<filter id="filter0_d_9_280" x="0" y="0" width="426" height="88" filterUnits="userSpaceOnUse" color-interpolation-filters="sRGB">
<feFlood flood-opacity="0" result="BackgroundImageFix"/>
<feColorMatrix in="SourceAlpha" type="matrix" values="0 0 0 0 0 0 0 0 0 0 0 0 0 0 0 0 0 0 127 0" result="hardAlpha"/>
<feOffset dy="4"/>
<feGaussianBlur stdDeviation="5"/>
<feComposite in2="hardAlpha" operator="out"/>
<feColorMatrix type="matrix" values="0 0 0 0 0 0 0 0 0 0 0 0 0 0 0 0 0 0 0.4 0"/>
<feBlend mode="normal" in2="BackgroundImageFix" result="effect1_dropShadow_9_280"/>
<feBlend mode="normal" in="SourceGraphic" in2="effect1_dropShadow_9_280" result="shape"/>
</filter>
</defs>
</svg>
