<svg width="484" height="88" viewBox="0 0 484 88" fill="none" xmlns="http://www.w3.org/2000/svg">
<g filter="url(#filter0_d_9_279)">
<rect x="10" y="6" width="464" height="68" rx="10" fill="#4F35F2"/>
</g>
<path d="M43.8526 53.252C42.0046 53.252 40.3486 52.952 38.8846 52.352C37.4206 51.752 36.2446 50.864 35.3566 49.688C34.4926 48.512 34.0366 47.096 33.9886 45.44H40.5406C40.6366 46.376 40.9606 47.096 41.5126 47.6C42.0646 48.08 42.7846 48.32 43.6726 48.32C44.5846 48.32 45.3046 48.116 45.8326 47.708C46.3606 47.276 46.6246 46.688 46.6246 45.944C46.6246 45.32 46.4086 44.804 45.9766 44.396C45.5686 43.988 45.0526 43.652 44.4286 43.388C43.8286 43.124 42.9646 42.824 41.8366 42.488C40.2046 41.984 38.8726 41.48 37.8406 40.976C36.8086 40.472 35.9206 39.728 35.1766 38.744C34.4326 37.76 34.0606 36.476 34.0606 34.892C34.0606 32.54 34.9126 30.704 36.6166 29.384C38.3206 28.04 40.5406 27.368 43.2766 27.368C46.0606 27.368 48.3046 28.04 50.0086 29.384C51.7126 30.704 52.6246 32.552 52.7446 34.928H46.0846C46.0366 34.112 45.7366 33.476 45.1846 33.02C44.6326 32.54 43.9246 32.3 43.0606 32.3C42.3166 32.3 41.7166 32.504 41.2606 32.912C40.8046 33.296 40.5766 33.86 40.5766 34.604C40.5766 35.42 40.9606 36.056 41.7286 36.512C42.4966 36.968 43.6966 37.46 45.3286 37.988C46.9606 38.54 48.2806 39.068 49.2886 39.572C50.3206 40.076 51.2086 40.808 51.9526 41.768C52.6966 42.728 53.0686 43.964 53.0686 45.476C53.0686 46.916 52.6966 48.224 51.9526 49.4C51.2326 50.576 50.1766 51.512 48.7846 52.208C47.3926 52.904 45.7486 53.252 43.8526 53.252ZM75.037 27.728V32.66H68.341V53H62.185V32.66H55.489V27.728H75.037ZM93.8585 48.536H84.4265L82.9145 53H76.4705L85.6145 27.728H92.7425L101.887 53H95.3705L93.8585 48.536ZM92.2745 43.784L89.1425 34.532L86.0465 43.784H92.2745ZM117.558 53L112.302 43.46H110.826V53H104.67V27.728H115.002C116.994 27.728 118.686 28.076 120.078 28.772C121.494 29.468 122.55 30.428 123.246 31.652C123.942 32.852 124.29 34.196 124.29 35.684C124.29 37.364 123.81 38.864 122.85 40.184C121.914 41.504 120.522 42.44 118.674 42.992L124.506 53H117.558ZM110.826 39.104H114.642C115.77 39.104 116.61 38.828 117.162 38.276C117.738 37.724 118.026 36.944 118.026 35.936C118.026 34.976 117.738 34.22 117.162 33.668C116.61 33.116 115.77 32.84 114.642 32.84H110.826V39.104ZM146.334 27.728V32.66H139.638V53H133.482V32.66H126.786V27.728H146.334ZM178.724 27.728L169.976 44.648V53H163.82V44.648L155.072 27.728H162.056L166.952 38.312L171.812 27.728H178.724ZM193.157 53.252C190.781 53.252 188.597 52.7 186.605 51.596C184.637 50.492 183.065 48.956 181.889 46.988C180.737 44.996 180.161 42.764 180.161 40.292C180.161 37.82 180.737 35.6 181.889 33.632C183.065 31.664 184.637 30.128 186.605 29.024C188.597 27.92 190.781 27.368 193.157 27.368C195.533 27.368 197.705 27.92 199.673 29.024C201.665 30.128 203.225 31.664 204.353 33.632C205.505 35.6 206.081 37.82 206.081 40.292C206.081 42.764 205.505 44.996 204.353 46.988C203.201 48.956 201.641 50.492 199.673 51.596C197.705 52.7 195.533 53.252 193.157 53.252ZM193.157 47.636C195.173 47.636 196.781 46.964 197.981 45.62C199.205 44.276 199.817 42.5 199.817 40.292C199.817 38.06 199.205 36.284 197.981 34.964C196.781 33.62 195.173 32.948 193.157 32.948C191.117 32.948 189.485 33.608 188.261 34.928C187.061 36.248 186.461 38.036 186.461 40.292C186.461 42.524 187.061 44.312 188.261 45.656C189.485 46.976 191.117 47.636 193.157 47.636ZM215.553 27.728V42.848C215.553 44.36 215.925 45.524 216.669 46.34C217.413 47.156 218.505 47.564 219.945 47.564C221.385 47.564 222.489 47.156 223.257 46.34C224.025 45.524 224.409 44.36 224.409 42.848V27.728H230.565V42.812C230.565 45.068 230.085 46.976 229.125 48.536C228.165 50.096 226.869 51.272 225.237 52.064C223.629 52.856 221.829 53.252 219.837 53.252C217.845 53.252 216.057 52.868 214.473 52.1C212.913 51.308 211.677 50.132 210.765 48.572C209.853 46.988 209.397 45.068 209.397 42.812V27.728H215.553ZM247.776 53L242.52 43.46H241.044V53H234.888V27.728H245.22C247.212 27.728 248.904 28.076 250.296 28.772C251.712 29.468 252.768 30.428 253.464 31.652C254.16 32.852 254.508 34.196 254.508 35.684C254.508 37.364 254.028 38.864 253.068 40.184C252.132 41.504 250.74 42.44 248.892 42.992L254.724 53H247.776ZM241.044 39.104H244.86C245.988 39.104 246.828 38.828 247.38 38.276C247.956 37.724 248.244 36.944 248.244 35.936C248.244 34.976 247.956 34.22 247.38 33.668C246.828 33.116 245.988 32.84 244.86 32.84H241.044V39.104ZM285.262 35.864C285.262 37.328 284.926 38.672 284.254 39.896C283.582 41.096 282.55 42.068 281.158 42.812C279.766 43.556 278.038 43.928 275.974 43.928H272.158V53H266.002V27.728H275.974C277.99 27.728 279.694 28.076 281.086 28.772C282.478 29.468 283.522 30.428 284.218 31.652C284.914 32.876 285.262 34.28 285.262 35.864ZM275.506 39.032C276.682 39.032 277.558 38.756 278.134 38.204C278.71 37.652 278.998 36.872 278.998 35.864C278.998 34.856 278.71 34.076 278.134 33.524C277.558 32.972 276.682 32.696 275.506 32.696H272.158V39.032H275.506ZM301.354 53L296.098 43.46H294.622V53H288.466V27.728H298.798C300.79 27.728 302.482 28.076 303.874 28.772C305.29 29.468 306.346 30.428 307.042 31.652C307.738 32.852 308.086 34.196 308.086 35.684C308.086 37.364 307.606 38.864 306.646 40.184C305.71 41.504 304.318 42.44 302.47 42.992L308.302 53H301.354ZM294.622 39.104H298.438C299.566 39.104 300.406 38.828 300.958 38.276C301.534 37.724 301.822 36.944 301.822 35.936C301.822 34.976 301.534 34.22 300.958 33.668C300.406 33.116 299.566 32.84 298.438 32.84H294.622V39.104ZM318.107 32.66V37.772H326.351V42.524H318.107V48.068H327.431V53H311.951V27.728H327.431V32.66H318.107ZM350.687 35.864C350.687 37.328 350.351 38.672 349.679 39.896C349.007 41.096 347.975 42.068 346.583 42.812C345.191 43.556 343.463 43.928 341.399 43.928H337.583V53H331.427V27.728H341.399C343.415 27.728 345.119 28.076 346.511 28.772C347.903 29.468 348.947 30.428 349.643 31.652C350.339 32.876 350.687 34.28 350.687 35.864ZM340.931 39.032C342.107 39.032 342.983 38.756 343.559 38.204C344.135 37.652 344.423 36.872 344.423 35.864C344.423 34.856 344.135 34.076 343.559 33.524C342.983 32.972 342.107 32.696 340.931 32.696H337.583V39.032H340.931ZM384.129 53H377.973L367.677 37.412V53H361.521V27.728H367.677L377.973 43.388V27.728H384.129V53ZM400.543 53.252C398.167 53.252 395.983 52.7 393.991 51.596C392.023 50.492 390.451 48.956 389.275 46.988C388.123 44.996 387.547 42.764 387.547 40.292C387.547 37.82 388.123 35.6 389.275 33.632C390.451 31.664 392.023 30.128 393.991 29.024C395.983 27.92 398.167 27.368 400.543 27.368C402.919 27.368 405.091 27.92 407.059 29.024C409.051 30.128 410.611 31.664 411.739 33.632C412.891 35.6 413.467 37.82 413.467 40.292C413.467 42.764 412.891 44.996 411.739 46.988C410.587 48.956 409.027 50.492 407.059 51.596C405.091 52.7 402.919 53.252 400.543 53.252ZM400.543 47.636C402.559 47.636 404.167 46.964 405.367 45.62C406.591 44.276 407.203 42.5 407.203 40.292C407.203 38.06 406.591 36.284 405.367 34.964C404.167 33.62 402.559 32.948 400.543 32.948C398.503 32.948 396.871 33.608 395.647 34.928C394.447 36.248 393.847 38.036 393.847 40.292C393.847 42.524 394.447 44.312 395.647 45.656C396.871 46.976 398.503 47.636 400.543 47.636ZM451.668 27.728L445.08 53H437.628L433.596 36.368L429.42 53H421.968L415.56 27.728H422.148L425.784 46.124L430.284 27.728H437.052L441.372 46.124L445.044 27.728H451.668Z" fill="white"/>
<defs>
<filter id="filter0_d_9_279" x="0" y="0" width="484" height="88" filterUnits="userSpaceOnUse" color-interpolation-filters="sRGB">
<feFlood flood-opacity="0" result="BackgroundImageFix"/>
<feColorMatrix in="SourceAlpha" type="matrix" values="0 0 0 0 0 0 0 0 0 0 0 0 0 0 0 0 0 0 127 0" result="hardAlpha"/>
<feOffset dy="4"/>
<feGaussianBlur stdDeviation="5"/>
<feComposite in2="hardAlpha" operator="out"/>
<feColorMatrix type="matrix" values="0 0 0 0 0 0 0 0 0 0 0 0 0 0 0 0 0 0 0.4 0"/>
<feBlend mode="normal" in2="BackgroundImageFix" result="effect1_dropShadow_9_279"/>
<feBlend mode="normal" in="SourceGraphic" in2="effect1_dropShadow_9_279" result="shape"/>
</filter>
</defs>
</svg>
