<svg width="291" height="76" viewBox="0 0 291 76" fill="none" xmlns="http://www.w3.org/2000/svg">
<g filter="url(#filter0_d_6_210)">
<rect x="8" y="4" width="275" height="60" rx="10" fill="white"/>
<rect x="8" y="4" width="275" height="60" rx="10" stroke="#4F35F2" stroke-width="4"/>
</g>
<path d="M31.8223 42.168C30.5903 42.168 29.4863 41.968 28.5103 41.568C27.5343 41.168 26.7503 40.576 26.1583 39.792C25.5823 39.008 25.2783 38.064 25.2463 36.96H29.6143C29.6783 37.584 29.8943 38.064 30.2623 38.4C30.6303 38.72 31.1103 38.88 31.7023 38.88C32.3103 38.88 32.7903 38.744 33.1423 38.472C33.4943 38.184 33.6703 37.792 33.6703 37.296C33.6703 36.88 33.5263 36.536 33.2383 36.264C32.9663 35.992 32.6223 35.768 32.2063 35.592C31.8063 35.416 31.2303 35.216 30.4783 34.992C29.3903 34.656 28.5023 34.32 27.8143 33.984C27.1263 33.648 26.5343 33.152 26.0383 32.496C25.5423 31.84 25.2943 30.984 25.2943 29.928C25.2943 28.36 25.8623 27.136 26.9983 26.256C28.1343 25.36 29.6143 24.912 31.4383 24.912C33.2943 24.912 34.7903 25.36 35.9263 26.256C37.0623 27.136 37.6703 28.368 37.7503 29.952H33.3103C33.2783 29.408 33.0783 28.984 32.7103 28.68C32.3423 28.36 31.8703 28.2 31.2943 28.2C30.7983 28.2 30.3983 28.336 30.0943 28.608C29.7903 28.864 29.6383 29.24 29.6383 29.736C29.6383 30.28 29.8943 30.704 30.4063 31.008C30.9183 31.312 31.7183 31.64 32.8063 31.992C33.8943 32.36 34.7743 32.712 35.4463 33.048C36.1343 33.384 36.7263 33.872 37.2223 34.512C37.7183 35.152 37.9663 35.976 37.9663 36.984C37.9663 37.944 37.7183 38.816 37.2223 39.6C36.7423 40.384 36.0383 41.008 35.1103 41.472C34.1823 41.936 33.0863 42.168 31.8223 42.168ZM47.9559 38.52V42H45.8679C44.3799 42 43.2199 41.64 42.3879 40.92C41.5559 40.184 41.1399 38.992 41.1399 37.344V32.016H39.5079V28.608H41.1399V25.344H45.2439V28.608H47.9319V32.016H45.2439V37.392C45.2439 37.792 45.3399 38.08 45.5319 38.256C45.7239 38.432 46.0439 38.52 46.4919 38.52H47.9559ZM49.4259 35.28C49.4259 33.904 49.6819 32.696 50.1939 31.656C50.7219 30.616 51.4339 29.816 52.3299 29.256C53.2259 28.696 54.2259 28.416 55.3299 28.416C56.2739 28.416 57.0979 28.608 57.8019 28.992C58.5219 29.376 59.0739 29.88 59.4579 30.504V28.608H63.5619V42H59.4579V40.104C59.0579 40.728 58.4979 41.232 57.7779 41.616C57.0739 42 56.2499 42.192 55.3059 42.192C54.2179 42.192 53.2259 41.912 52.3299 41.352C51.4339 40.776 50.7219 39.968 50.1939 38.928C49.6819 37.872 49.4259 36.656 49.4259 35.28ZM59.4579 35.304C59.4579 34.28 59.1699 33.472 58.5939 32.88C58.0339 32.288 57.3459 31.992 56.5299 31.992C55.7139 31.992 55.0179 32.288 54.4419 32.88C53.8819 33.456 53.6019 34.256 53.6019 35.28C53.6019 36.304 53.8819 37.12 54.4419 37.728C55.0179 38.32 55.7139 38.616 56.5299 38.616C57.3459 38.616 58.0339 38.32 58.5939 37.728C59.1699 37.136 59.4579 36.328 59.4579 35.304ZM70.635 30.84C71.115 30.104 71.715 29.528 72.435 29.112C73.155 28.68 73.955 28.464 74.835 28.464V32.808H73.707C72.683 32.808 71.915 33.032 71.403 33.48C70.891 33.912 70.635 34.68 70.635 35.784V42H66.531V28.608H70.635V30.84ZM84.2606 38.52V42H82.1726C80.6846 42 79.5246 41.64 78.6926 40.92C77.8606 40.184 77.4446 38.992 77.4446 37.344V32.016H75.8126V28.608H77.4446V25.344H81.5486V28.608H84.2366V32.016H81.5486V37.392C81.5486 37.792 81.6446 38.08 81.8366 38.256C82.0286 38.432 82.3486 38.52 82.7966 38.52H84.2606ZM105.313 28.608L96.9125 48.36H92.4965L95.5685 41.544L90.1205 28.608H94.7045L97.8005 36.984L100.873 28.608H105.313ZM112.893 42.192C111.581 42.192 110.397 41.912 109.341 41.352C108.301 40.792 107.477 39.992 106.869 38.952C106.277 37.912 105.981 36.696 105.981 35.304C105.981 33.928 106.285 32.72 106.893 31.68C107.501 30.624 108.333 29.816 109.389 29.256C110.445 28.696 111.629 28.416 112.941 28.416C114.253 28.416 115.437 28.696 116.493 29.256C117.549 29.816 118.381 30.624 118.989 31.68C119.597 32.72 119.901 33.928 119.901 35.304C119.901 36.68 119.589 37.896 118.965 38.952C118.357 39.992 117.517 40.792 116.445 41.352C115.389 41.912 114.205 42.192 112.893 42.192ZM112.893 38.64C113.677 38.64 114.341 38.352 114.885 37.776C115.445 37.2 115.725 36.376 115.725 35.304C115.725 34.232 115.453 33.408 114.909 32.832C114.381 32.256 113.725 31.968 112.941 31.968C112.141 31.968 111.477 32.256 110.949 32.832C110.421 33.392 110.157 34.216 110.157 35.304C110.157 36.376 110.413 37.2 110.925 37.776C111.453 38.352 112.109 38.64 112.893 38.64ZM135.302 28.608V42H131.198V40.176C130.782 40.768 130.214 41.248 129.494 41.616C128.79 41.968 128.006 42.144 127.142 42.144C126.118 42.144 125.214 41.92 124.43 41.472C123.646 41.008 123.038 40.344 122.606 39.48C122.174 38.616 121.958 37.6 121.958 36.432V28.608H126.038V35.88C126.038 36.776 126.27 37.472 126.734 37.968C127.198 38.464 127.822 38.712 128.606 38.712C129.406 38.712 130.038 38.464 130.502 37.968C130.966 37.472 131.198 36.776 131.198 35.88V28.608H135.302ZM142.354 30.84C142.834 30.104 143.434 29.528 144.154 29.112C144.874 28.68 145.674 28.464 146.554 28.464V32.808H145.426C144.402 32.808 143.634 33.032 143.122 33.48C142.61 33.912 142.354 34.68 142.354 35.784V42H138.25V28.608H142.354V30.84ZM166.441 30.576C166.441 31.552 166.217 32.448 165.769 33.264C165.321 34.064 164.633 34.712 163.705 35.208C162.777 35.704 161.625 35.952 160.249 35.952H157.705V42H153.601V25.152H160.249C161.593 25.152 162.729 25.384 163.657 25.848C164.585 26.312 165.281 26.952 165.745 27.768C166.209 28.584 166.441 29.52 166.441 30.576ZM159.937 32.688C160.721 32.688 161.305 32.504 161.689 32.136C162.073 31.768 162.265 31.248 162.265 30.576C162.265 29.904 162.073 29.384 161.689 29.016C161.305 28.648 160.721 28.464 159.937 28.464H157.705V32.688H159.937ZM172.682 30.84C173.162 30.104 173.762 29.528 174.482 29.112C175.202 28.68 176.002 28.464 176.882 28.464V32.808H175.754C174.73 32.808 173.962 33.032 173.45 33.48C172.938 33.912 172.682 34.68 172.682 35.784V42H168.578V28.608H172.682V30.84ZM191.467 35.088C191.467 35.472 191.443 35.872 191.395 36.288H182.107C182.171 37.12 182.435 37.76 182.899 38.208C183.379 38.64 183.963 38.856 184.651 38.856C185.675 38.856 186.387 38.424 186.787 37.56H191.155C190.931 38.44 190.523 39.232 189.931 39.936C189.355 40.64 188.627 41.192 187.747 41.592C186.867 41.992 185.883 42.192 184.795 42.192C183.483 42.192 182.315 41.912 181.291 41.352C180.267 40.792 179.467 39.992 178.891 38.952C178.315 37.912 178.027 36.696 178.027 35.304C178.027 33.912 178.307 32.696 178.867 31.656C179.443 30.616 180.243 29.816 181.267 29.256C182.291 28.696 183.467 28.416 184.795 28.416C186.091 28.416 187.243 28.688 188.251 29.232C189.259 29.776 190.043 30.552 190.603 31.56C191.179 32.568 191.467 33.744 191.467 35.088ZM187.267 34.008C187.267 33.304 187.027 32.744 186.547 32.328C186.067 31.912 185.467 31.704 184.747 31.704C184.059 31.704 183.475 31.904 182.995 32.304C182.531 32.704 182.243 33.272 182.131 34.008H187.267ZM197.737 30.504C198.137 29.88 198.689 29.376 199.393 28.992C200.097 28.608 200.921 28.416 201.865 28.416C202.969 28.416 203.969 28.696 204.865 29.256C205.761 29.816 206.465 30.616 206.977 31.656C207.505 32.696 207.769 33.904 207.769 35.28C207.769 36.656 207.505 37.872 206.977 38.928C206.465 39.968 205.761 40.776 204.865 41.352C203.969 41.912 202.969 42.192 201.865 42.192C200.937 42.192 200.113 42 199.393 41.616C198.689 41.232 198.137 40.736 197.737 40.128V48.384H193.633V28.608H197.737V30.504ZM203.593 35.28C203.593 34.256 203.305 33.456 202.729 32.88C202.169 32.288 201.473 31.992 200.641 31.992C199.825 31.992 199.129 32.288 198.553 32.88C197.993 33.472 197.713 34.28 197.713 35.304C197.713 36.328 197.993 37.136 198.553 37.728C199.129 38.32 199.825 38.616 200.641 38.616C201.457 38.616 202.153 38.32 202.729 37.728C203.305 37.12 203.593 36.304 203.593 35.28ZM223.168 28.464C224.736 28.464 225.984 28.976 226.912 30C227.856 31.008 228.328 32.4 228.328 34.176V42H224.248V34.728C224.248 33.832 224.016 33.136 223.552 32.64C223.088 32.144 222.464 31.896 221.68 31.896C220.896 31.896 220.272 32.144 219.808 32.64C219.344 33.136 219.112 33.832 219.112 34.728V42H215.008V28.608H219.112V30.384C219.528 29.792 220.088 29.328 220.792 28.992C221.496 28.64 222.288 28.464 223.168 28.464ZM237.275 42.192C235.963 42.192 234.779 41.912 233.723 41.352C232.683 40.792 231.859 39.992 231.251 38.952C230.659 37.912 230.363 36.696 230.363 35.304C230.363 33.928 230.667 32.72 231.275 31.68C231.883 30.624 232.715 29.816 233.771 29.256C234.827 28.696 236.011 28.416 237.323 28.416C238.635 28.416 239.819 28.696 240.875 29.256C241.931 29.816 242.763 30.624 243.371 31.68C243.979 32.72 244.283 33.928 244.283 35.304C244.283 36.68 243.971 37.896 243.347 38.952C242.739 39.992 241.899 40.792 240.827 41.352C239.771 41.912 238.587 42.192 237.275 42.192ZM237.275 38.64C238.059 38.64 238.723 38.352 239.267 37.776C239.827 37.2 240.107 36.376 240.107 35.304C240.107 34.232 239.835 33.408 239.291 32.832C238.763 32.256 238.107 31.968 237.323 31.968C236.523 31.968 235.859 32.256 235.331 32.832C234.803 33.392 234.539 34.216 234.539 35.304C234.539 36.376 234.795 37.2 235.307 37.776C235.835 38.352 236.491 38.64 237.275 38.64ZM265.685 28.608L262.061 42H257.525L255.413 33.312L253.229 42H248.717L245.069 28.608H249.173L251.069 38.184L253.325 28.608H257.669L259.949 38.136L261.821 28.608H265.685Z" fill="#4F35F2"/>
<defs>
<filter id="filter0_d_6_210" x="0" y="0" width="291" height="76" filterUnits="userSpaceOnUse" color-interpolation-filters="sRGB">
<feFlood flood-opacity="0" result="BackgroundImageFix"/>
<feColorMatrix in="SourceAlpha" type="matrix" values="0 0 0 0 0 0 0 0 0 0 0 0 0 0 0 0 0 0 127 0" result="hardAlpha"/>
<feOffset dy="4"/>
<feGaussianBlur stdDeviation="3"/>
<feComposite in2="hardAlpha" operator="out"/>
<feColorMatrix type="matrix" values="0 0 0 0 0 0 0 0 0 0 0 0 0 0 0 0 0 0 0.3 0"/>
<feBlend mode="normal" in2="BackgroundImageFix" result="effect1_dropShadow_6_210"/>
<feBlend mode="normal" in="SourceGraphic" in2="effect1_dropShadow_6_210" result="shape"/>
</filter>
</defs>
</svg>
