<svg width="251" height="71" viewBox="0 0 251 71" fill="none" xmlns="http://www.w3.org/2000/svg">
<path d="M13.272 34.294C11.116 34.294 9.184 33.944 7.476 33.244C5.768 32.544 4.396 31.508 3.36 30.136C2.352 28.764 1.82 27.112 1.764 25.18H9.408C9.52 26.272 9.898 27.112 10.542 27.7C11.186 28.26 12.026 28.54 13.062 28.54C14.126 28.54 14.966 28.302 15.582 27.826C16.198 27.322 16.506 26.636 16.506 25.768C16.506 25.04 16.254 24.438 15.75 23.962C15.274 23.486 14.672 23.094 13.944 22.786C13.244 22.478 12.236 22.128 10.92 21.736C9.016 21.148 7.462 20.56 6.258 19.972C5.054 19.384 4.018 18.516 3.15 17.368C2.282 16.22 1.848 14.722 1.848 12.874C1.848 10.13 2.842 7.988 4.83 6.448C6.818 4.88 9.408 4.096 12.6 4.096C15.848 4.096 18.466 4.88 20.454 6.448C22.442 7.988 23.506 10.144 23.646 12.916H15.876C15.82 11.964 15.47 11.222 14.826 10.69C14.182 10.13 13.356 9.85 12.348 9.85C11.48 9.85 10.78 10.088 10.248 10.564C9.716 11.012 9.45 11.67 9.45 12.538C9.45 13.49 9.898 14.232 10.794 14.764C11.69 15.296 13.09 15.87 14.994 16.486C16.898 17.13 18.438 17.746 19.614 18.334C20.818 18.922 21.854 19.776 22.722 20.896C23.59 22.016 24.024 23.458 24.024 25.222C24.024 26.902 23.59 28.428 22.722 29.8C21.882 31.172 20.65 32.264 19.026 33.076C17.402 33.888 15.484 34.294 13.272 34.294ZM32.0558 8.128C30.7958 8.128 29.7598 7.764 28.9478 7.036C28.1638 6.28 27.7718 5.356 27.7718 4.264C27.7718 3.144 28.1638 2.22 28.9478 1.492C29.7598 0.735998 30.7958 0.357998 32.0558 0.357998C33.2878 0.357998 34.2958 0.735998 35.0798 1.492C35.8918 2.22 36.2978 3.144 36.2978 4.264C36.2978 5.356 35.8918 6.28 35.0798 7.036C34.2958 7.764 33.2878 8.128 32.0558 8.128ZM35.6258 10.564V34H28.4438V10.564H35.6258ZM39.4026 22.24C39.4026 19.832 39.8506 17.718 40.7466 15.898C41.6706 14.078 42.9166 12.678 44.4846 11.698C46.0526 10.718 47.8026 10.228 49.7346 10.228C51.2746 10.228 52.6746 10.55 53.9346 11.194C55.2226 11.838 56.2306 12.706 56.9586 13.798V2.92H64.1406V34H56.9586V30.64C56.2866 31.76 55.3206 32.656 54.0606 33.328C52.8286 34 51.3866 34.336 49.7346 34.336C47.8026 34.336 46.0526 33.846 44.4846 32.866C42.9166 31.858 41.6706 30.444 40.7466 28.624C39.8506 26.776 39.4026 24.648 39.4026 22.24ZM56.9586 22.282C56.9586 20.49 56.4546 19.076 55.4466 18.04C54.4666 17.004 53.2626 16.486 51.8346 16.486C50.4066 16.486 49.1886 17.004 48.1806 18.04C47.2006 19.048 46.7106 20.448 46.7106 22.24C46.7106 24.032 47.2006 25.46 48.1806 26.524C49.1886 27.56 50.4066 28.078 51.8346 28.078C53.2626 28.078 54.4666 27.56 55.4466 26.524C56.4546 25.488 56.9586 24.074 56.9586 22.282ZM67.9084 22.24C67.9084 19.832 68.3564 17.718 69.2524 15.898C70.1764 14.078 71.4224 12.678 72.9904 11.698C74.5584 10.718 76.3084 10.228 78.2404 10.228C79.7804 10.228 81.1804 10.55 82.4404 11.194C83.7284 11.838 84.7364 12.706 85.4644 13.798V2.92H92.6464V34H85.4644V30.64C84.7924 31.76 83.8264 32.656 82.5664 33.328C81.3344 34 79.8924 34.336 78.2404 34.336C76.3084 34.336 74.5584 33.846 72.9904 32.866C71.4224 31.858 70.1764 30.444 69.2524 28.624C68.3564 26.776 67.9084 24.648 67.9084 22.24ZM85.4644 22.282C85.4644 20.49 84.9604 19.076 83.9524 18.04C82.9724 17.004 81.7684 16.486 80.3404 16.486C78.9124 16.486 77.6944 17.004 76.6864 18.04C75.7064 19.048 75.2164 20.448 75.2164 22.24C75.2164 24.032 75.7064 25.46 76.6864 26.524C77.6944 27.56 78.9124 28.078 80.3404 28.078C81.7684 28.078 82.9724 27.56 83.9524 26.524C84.9604 25.488 85.4644 24.074 85.4644 22.282ZM112.248 10.312C114.936 10.312 117.092 11.208 118.716 13C120.34 14.764 121.152 17.2 121.152 20.308V34H114.012V21.274C114.012 19.706 113.606 18.488 112.794 17.62C111.982 16.752 110.89 16.318 109.518 16.318C108.146 16.318 107.054 16.752 106.242 17.62C105.43 18.488 105.024 19.706 105.024 21.274V34H97.8423V2.92H105.024V13.714C105.752 12.678 106.746 11.852 108.006 11.236C109.266 10.62 110.68 10.312 112.248 10.312ZM124.715 22.24C124.715 19.832 125.163 17.718 126.059 15.898C126.983 14.078 128.229 12.678 129.797 11.698C131.365 10.718 133.115 10.228 135.047 10.228C136.699 10.228 138.141 10.564 139.373 11.236C140.633 11.908 141.599 12.79 142.271 13.882V10.564H149.453V34H142.271V30.682C141.571 31.774 140.591 32.656 139.331 33.328C138.099 34 136.657 34.336 135.005 34.336C133.101 34.336 131.365 33.846 129.797 32.866C128.229 31.858 126.983 30.444 126.059 28.624C125.163 26.776 124.715 24.648 124.715 22.24ZM142.271 22.282C142.271 20.49 141.767 19.076 140.759 18.04C139.779 17.004 138.575 16.486 137.147 16.486C135.719 16.486 134.501 17.004 133.493 18.04C132.513 19.048 132.023 20.448 132.023 22.24C132.023 24.032 132.513 25.46 133.493 26.524C134.501 27.56 135.719 28.078 137.147 28.078C138.575 28.078 139.779 27.56 140.759 26.524C141.767 25.488 142.271 24.074 142.271 22.282ZM161.831 14.47C162.671 13.182 163.721 12.174 164.981 11.446C166.241 10.69 167.641 10.312 169.181 10.312V17.914H167.207C165.415 17.914 164.071 18.306 163.175 19.09C162.279 19.846 161.831 21.19 161.831 23.122V34H154.649V10.564H161.831V14.47ZM185.676 27.91V34H182.022C179.418 34 177.388 33.37 175.932 32.11C174.476 30.822 173.748 28.736 173.748 25.852V16.528H170.892V10.564H173.748V4.852H180.93V10.564H185.634V16.528H180.93V25.936C180.93 26.636 181.098 27.14 181.434 27.448C181.77 27.756 182.33 27.91 183.114 27.91H185.676ZM204.082 10.312C206.77 10.312 208.926 11.208 210.55 13C212.174 14.764 212.986 17.2 212.986 20.308V34H205.846V21.274C205.846 19.706 205.44 18.488 204.628 17.62C203.816 16.752 202.724 16.318 201.352 16.318C199.98 16.318 198.888 16.752 198.076 17.62C197.264 18.488 196.858 19.706 196.858 21.274V34H189.676V2.92H196.858V13.714C197.586 12.678 198.58 11.852 199.84 11.236C201.1 10.62 202.514 10.312 204.082 10.312ZM241.913 34L235.781 22.87H234.059V34H226.877V4.516H238.931C241.255 4.516 243.229 4.922 244.853 5.734C246.505 6.546 247.737 7.666 248.549 9.094C249.361 10.494 249.767 12.062 249.767 13.798C249.767 15.758 249.207 17.508 248.087 19.048C246.995 20.588 245.371 21.68 243.215 22.324L250.019 34H241.913ZM234.059 17.788H238.511C239.827 17.788 240.807 17.466 241.451 16.822C242.123 16.178 242.459 15.268 242.459 14.092C242.459 12.972 242.123 12.09 241.451 11.446C240.807 10.802 239.827 10.48 238.511 10.48H234.059V17.788Z" fill="#4F35F2"/>
<path d="M13.872 58.12C13.44 57.288 12.84 56.664 12.072 56.248C11.304 55.816 10.416 55.6 9.408 55.6C8.304 55.6 7.32 55.848 6.456 56.344C5.592 56.84 4.912 57.544 4.416 58.456C3.936 59.368 3.696 60.424 3.696 61.624C3.696 62.824 3.936 63.888 4.416 64.816C4.912 65.728 5.592 66.432 6.456 66.928C7.32 67.424 8.304 67.672 9.408 67.672C10.896 67.672 12.104 67.256 13.032 66.424C13.96 65.592 14.528 64.464 14.736 63.04H8.472V60.856H17.664V62.992C17.488 64.288 17.024 65.48 16.272 66.568C15.536 67.656 14.568 68.528 13.368 69.184C12.184 69.824 10.864 70.144 9.408 70.144C7.84 70.144 6.408 69.784 5.112 69.064C3.816 68.328 2.784 67.312 2.016 66.016C1.264 64.72 0.888 63.256 0.888 61.624C0.888 59.992 1.264 58.528 2.016 57.232C2.784 55.936 3.816 54.928 5.112 54.208C6.424 53.472 7.856 53.104 9.408 53.104C11.184 53.104 12.76 53.544 14.136 54.424C15.528 55.288 16.536 56.52 17.16 58.12H13.872ZM37.9305 53.32V70H35.1945V58.576L30.1065 70H28.2105L23.0985 58.576V70H20.3625V53.32H23.3145L29.1705 66.4L35.0025 53.32H37.9305ZM51.5826 66.592H44.5986L43.3986 70H40.5426L46.5186 53.296H49.6866L55.6626 70H52.7826L51.5826 66.592ZM50.8146 64.36L48.1026 56.608L45.3666 64.36H50.8146ZM69.0369 53.32V55.552H64.5969V70H61.8609V55.552H57.3969V53.32H69.0369ZM88.7702 54.616L82.0982 70H79.3382L86.0822 54.904H77.2022V52.576H88.7702V54.616ZM92.6239 66.28C94.1599 64.952 95.3679 63.864 96.2479 63.016C97.1439 62.152 97.8879 61.256 98.4799 60.328C99.0719 59.4 99.3679 58.472 99.3679 57.544C99.3679 56.584 99.1359 55.832 98.6719 55.288C98.2239 54.744 97.5119 54.472 96.5359 54.472C95.5919 54.472 94.8559 54.776 94.3279 55.384C93.8159 55.976 93.5439 56.776 93.5119 57.784H90.8719C90.9199 55.96 91.4639 54.568 92.5039 53.608C93.5599 52.632 94.8959 52.144 96.5119 52.144C98.2559 52.144 99.6159 52.624 100.592 53.584C101.584 54.544 102.08 55.824 102.08 57.424C102.08 58.576 101.784 59.688 101.192 60.76C100.616 61.816 99.9199 62.768 99.1039 63.616C98.3039 64.448 97.2799 65.416 96.0319 66.52L94.9519 67.48H102.56V69.76H90.8959V67.768L92.6239 66.28ZM104.963 61.024C104.963 58.256 105.427 56.096 106.355 54.544C107.299 52.976 108.915 52.192 111.203 52.192C113.491 52.192 115.099 52.976 116.027 54.544C116.971 56.096 117.443 58.256 117.443 61.024C117.443 63.824 116.971 66.016 116.027 67.6C115.099 69.168 113.491 69.952 111.203 69.952C108.915 69.952 107.299 69.168 106.355 67.6C105.427 66.016 104.963 63.824 104.963 61.024ZM114.755 61.024C114.755 59.728 114.667 58.632 114.491 57.736C114.331 56.84 113.995 56.112 113.483 55.552C112.971 54.976 112.211 54.688 111.203 54.688C110.195 54.688 109.435 54.976 108.923 55.552C108.411 56.112 108.067 56.84 107.891 57.736C107.731 58.632 107.651 59.728 107.651 61.024C107.651 62.368 107.731 63.496 107.891 64.408C108.051 65.32 108.387 66.056 108.899 66.616C109.427 67.176 110.195 67.456 111.203 67.456C112.211 67.456 112.971 67.176 113.483 66.616C114.011 66.056 114.355 65.32 114.515 64.408C114.675 63.496 114.755 62.368 114.755 61.024Z" fill="#3E3C3C"/>
</svg>
