<svg width="511" height="78" viewBox="0 0 511 78" fill="none" xmlns="http://www.w3.org/2000/svg">
<path d="M19.8922 7.456C25.2202 7.456 29.8762 8.512 33.8602 10.624C37.8442 12.736 40.9162 15.712 43.0762 19.552C45.2842 23.344 46.3882 27.736 46.3882 32.728C46.3882 37.672 45.2842 42.064 43.0762 45.904C40.9162 49.744 37.8202 52.72 33.7882 54.832C29.8042 56.944 25.1722 58 19.8922 58H0.956188V7.456H19.8922ZM19.1002 47.344C23.7562 47.344 27.3802 46.072 29.9722 43.528C32.5642 40.984 33.8602 37.384 33.8602 32.728C33.8602 28.072 32.5642 24.448 29.9722 21.856C27.3802 19.264 23.7562 17.968 19.1002 17.968H13.2682V47.344H19.1002ZM91.1407 37.264C91.1407 38.416 91.0687 39.616 90.9247 40.864H63.0607C63.2527 43.36 64.0447 45.28 65.4367 46.624C66.8767 47.92 68.6287 48.568 70.6927 48.568C73.7647 48.568 75.9007 47.272 77.1007 44.68H90.2047C89.5327 47.32 88.3087 49.696 86.5327 51.808C84.8047 53.92 82.6207 55.576 79.9807 56.776C77.3407 57.976 74.3887 58.576 71.1247 58.576C67.1887 58.576 63.6847 57.736 60.6127 56.056C57.5407 54.376 55.1407 51.976 53.4127 48.856C51.6847 45.736 50.8207 42.088 50.8207 37.912C50.8207 33.736 51.6607 30.088 53.3407 26.968C55.0687 23.848 57.4687 21.448 60.5407 19.768C63.6127 18.088 67.1407 17.248 71.1247 17.248C75.0127 17.248 78.4687 18.064 81.4927 19.696C84.5167 21.328 86.8687 23.656 88.5487 26.68C90.2767 29.704 91.1407 33.232 91.1407 37.264ZM78.5407 34.024C78.5407 31.912 77.8207 30.232 76.3807 28.984C74.9407 27.736 73.1407 27.112 70.9807 27.112C68.9167 27.112 67.1647 27.712 65.7247 28.912C64.3327 30.112 63.4687 31.816 63.1327 34.024H78.5407ZM117.796 28.048H111.172V58H98.8599V28.048H94.3959V17.824H98.8599V16.672C98.8599 11.728 100.276 7.984 103.108 5.44C105.94 2.848 110.092 1.552 115.564 1.552C116.476 1.552 117.148 1.576 117.58 1.624V12.064C115.228 11.92 113.572 12.256 112.612 13.072C111.652 13.888 111.172 15.352 111.172 17.464V17.824H117.796V28.048ZM129.773 13.648C127.613 13.648 125.837 13.024 124.445 11.776C123.101 10.48 122.429 8.896 122.429 7.024C122.429 5.104 123.101 3.52 124.445 2.272C125.837 0.975996 127.613 0.327996 129.773 0.327996C131.885 0.327996 133.613 0.975996 134.957 2.272C136.349 3.52 137.045 5.104 137.045 7.024C137.045 8.896 136.349 10.48 134.957 11.776C133.613 13.024 131.885 13.648 129.773 13.648ZM135.893 17.824V58H123.581V17.824H135.893ZM169.296 17.392C174 17.392 177.744 18.928 180.528 22C183.36 25.024 184.776 29.2 184.776 34.528V58H172.536V36.184C172.536 33.496 171.84 31.408 170.448 29.92C169.056 28.432 167.184 27.688 164.832 27.688C162.48 27.688 160.608 28.432 159.216 29.92C157.824 31.408 157.128 33.496 157.128 36.184V58H144.816V17.824H157.128V23.152C158.376 21.376 160.056 19.984 162.168 18.976C164.28 17.92 166.656 17.392 169.296 17.392ZM199.523 13.648C197.363 13.648 195.587 13.024 194.195 11.776C192.851 10.48 192.179 8.896 192.179 7.024C192.179 5.104 192.851 3.52 194.195 2.272C195.587 0.975996 197.363 0.327996 199.523 0.327996C201.635 0.327996 203.363 0.975996 204.707 2.272C206.099 3.52 206.795 5.104 206.795 7.024C206.795 8.896 206.099 10.48 204.707 11.776C203.363 13.024 201.635 13.648 199.523 13.648ZM205.643 17.824V58H193.331V17.824H205.643ZM236.958 47.56V58H230.694C226.23 58 222.75 56.92 220.254 54.76C217.758 52.552 216.51 48.976 216.51 44.032V28.048H211.614V17.824H216.51V8.032H228.822V17.824H236.886V28.048H228.822V44.176C228.822 45.376 229.11 46.24 229.686 46.768C230.262 47.296 231.222 47.56 232.566 47.56H236.958ZM281.688 37.264C281.688 38.416 281.616 39.616 281.472 40.864H253.608C253.8 43.36 254.592 45.28 255.984 46.624C257.424 47.92 259.176 48.568 261.24 48.568C264.312 48.568 266.448 47.272 267.648 44.68H280.752C280.08 47.32 278.856 49.696 277.08 51.808C275.352 53.92 273.168 55.576 270.528 56.776C267.888 57.976 264.936 58.576 261.672 58.576C257.736 58.576 254.232 57.736 251.16 56.056C248.088 54.376 245.688 51.976 243.96 48.856C242.232 45.736 241.368 42.088 241.368 37.912C241.368 33.736 242.208 30.088 243.888 26.968C245.616 23.848 248.016 21.448 251.088 19.768C254.16 18.088 257.688 17.248 261.672 17.248C265.56 17.248 269.016 18.064 272.04 19.696C275.064 21.328 277.416 23.656 279.096 26.68C280.824 29.704 281.688 33.232 281.688 37.264ZM269.088 34.024C269.088 31.912 268.368 30.232 266.928 28.984C265.488 27.736 263.688 27.112 261.528 27.112C259.464 27.112 257.712 27.712 256.272 28.912C254.88 30.112 254.016 31.816 253.68 34.024H269.088ZM300.495 4.72V58H288.183V4.72H300.495ZM350.457 17.824L325.257 77.08H312.009L321.225 56.632L304.881 17.824H318.633L327.921 42.952L337.137 17.824H350.457ZM394.647 17.392C399.351 17.392 403.095 18.928 405.879 22C408.711 25.024 410.127 29.2 410.127 34.528V58H397.887V36.184C397.887 33.496 397.191 31.408 395.799 29.92C394.407 28.432 392.535 27.688 390.183 27.688C387.831 27.688 385.959 28.432 384.567 29.92C383.175 31.408 382.479 33.496 382.479 36.184V58H370.167V17.824H382.479V23.152C383.727 21.376 385.407 19.984 387.519 18.976C389.631 17.92 392.007 17.392 394.647 17.392ZM436.971 58.576C433.035 58.576 429.483 57.736 426.315 56.056C423.195 54.376 420.723 51.976 418.899 48.856C417.123 45.736 416.235 42.088 416.235 37.912C416.235 33.784 417.147 30.16 418.971 27.04C420.795 23.872 423.291 21.448 426.459 19.768C429.627 18.088 433.179 17.248 437.115 17.248C441.051 17.248 444.603 18.088 447.771 19.768C450.939 21.448 453.435 23.872 455.259 27.04C457.083 30.16 457.995 33.784 457.995 37.912C457.995 42.04 457.059 45.688 455.187 48.856C453.363 51.976 450.843 54.376 447.627 56.056C444.459 57.736 440.907 58.576 436.971 58.576ZM436.971 47.92C439.323 47.92 441.315 47.056 442.947 45.328C444.627 43.6 445.467 41.128 445.467 37.912C445.467 34.696 444.651 32.224 443.019 30.496C441.435 28.768 439.467 27.904 437.115 27.904C434.715 27.904 432.723 28.768 431.139 30.496C429.555 32.176 428.763 34.648 428.763 37.912C428.763 41.128 429.531 43.6 431.067 45.328C432.651 47.056 434.619 47.92 436.971 47.92ZM486.919 47.56V58H480.655C476.191 58 472.711 56.92 470.215 54.76C467.719 52.552 466.471 48.976 466.471 44.032V28.048H461.575V17.824H466.471V8.032H478.783V17.824H486.847V28.048H478.783V44.176C478.783 45.376 479.071 46.24 479.647 46.768C480.223 47.296 481.183 47.56 482.527 47.56H486.919ZM509.977 5.656L508.537 40.144H498.097L496.657 5.656H509.977ZM503.497 58.576C501.337 58.576 499.561 57.952 498.169 56.704C496.825 55.408 496.153 53.824 496.153 51.952C496.153 50.032 496.825 48.424 498.169 47.128C499.561 45.832 501.337 45.184 503.497 45.184C505.609 45.184 507.337 45.832 508.681 47.128C510.073 48.424 510.769 50.032 510.769 51.952C510.769 53.824 510.073 55.408 508.681 56.704C507.337 57.952 505.609 58.576 503.497 58.576Z" fill="#656565"/>
</svg>
