<svg width="882" height="116" viewBox="0 0 882 116" fill="none" xmlns="http://www.w3.org/2000/svg">
<g filter="url(#filter0_d_47_11)">
<rect x="267" y="57" width="347" height="51" rx="10" fill="#4F35F2"/>
</g>
<path d="M8.45831 14.728V40H2.30231V14.728H8.45831ZM21.0915 40.288C19.3395 40.288 17.7795 39.988 16.4115 39.388C15.0435 38.788 13.9635 37.972 13.1715 36.94C12.3795 35.884 11.9355 34.708 11.8395 33.412H17.9235C17.9955 34.108 18.3195 34.672 18.8955 35.104C19.4715 35.536 20.1795 35.752 21.0195 35.752C21.7875 35.752 22.3755 35.608 22.7835 35.32C23.2155 35.008 23.4315 34.612 23.4315 34.132C23.4315 33.556 23.1315 33.136 22.5315 32.872C21.9315 32.584 20.9595 32.272 19.6155 31.936C18.1755 31.6 16.9755 31.252 16.0155 30.892C15.0555 30.508 14.2275 29.92 13.5315 29.128C12.8355 28.312 12.4875 27.22 12.4875 25.852C12.4875 24.7 12.7995 23.656 13.4235 22.72C14.0715 21.76 15.0075 21.004 16.2315 20.452C17.4795 19.9 18.9555 19.624 20.6595 19.624C23.1795 19.624 25.1595 20.248 26.5995 21.496C28.0635 22.744 28.9035 24.4 29.1195 26.464H23.4315C23.3355 25.768 23.0235 25.216 22.4955 24.808C21.9915 24.4 21.3195 24.196 20.4795 24.196C19.7595 24.196 19.2075 24.34 18.8235 24.628C18.4395 24.892 18.2475 25.264 18.2475 25.744C18.2475 26.32 18.5475 26.752 19.1475 27.04C19.7715 27.328 20.7315 27.616 22.0275 27.904C23.5155 28.288 24.7275 28.672 25.6635 29.056C26.5995 29.416 27.4155 30.016 28.1115 30.856C28.8315 31.672 29.2035 32.776 29.2275 34.168C29.2275 35.344 28.8915 36.4 28.2195 37.336C27.5715 38.248 26.6235 38.968 25.3755 39.496C24.1515 40.024 22.7235 40.288 21.0915 40.288ZM61.1426 19.912L48.5426 49.54H41.9186L46.5266 39.316L38.3546 19.912H45.2306L49.8746 32.476L54.4826 19.912H61.1426ZM72.5127 40.288C70.5447 40.288 68.7687 39.868 67.1847 39.028C65.6247 38.188 64.3887 36.988 63.4767 35.428C62.5887 33.868 62.1447 32.044 62.1447 29.956C62.1447 27.892 62.6007 26.08 63.5127 24.52C64.4247 22.936 65.6727 21.724 67.2567 20.884C68.8407 20.044 70.6167 19.624 72.5847 19.624C74.5527 19.624 76.3287 20.044 77.9127 20.884C79.4967 21.724 80.7447 22.936 81.6567 24.52C82.5687 26.08 83.0247 27.892 83.0247 29.956C83.0247 32.02 82.5567 33.844 81.6207 35.428C80.7087 36.988 79.4487 38.188 77.8407 39.028C76.2567 39.868 74.4807 40.288 72.5127 40.288ZM72.5127 34.96C73.6887 34.96 74.6847 34.528 75.5007 33.664C76.3407 32.8 76.7607 31.564 76.7607 29.956C76.7607 28.348 76.3527 27.112 75.5367 26.248C74.7447 25.384 73.7607 24.952 72.5847 24.952C71.3847 24.952 70.3887 25.384 69.5967 26.248C68.8047 27.088 68.4087 28.324 68.4087 29.956C68.4087 31.564 68.7927 32.8 69.5607 33.664C70.3527 34.528 71.3367 34.96 72.5127 34.96ZM106.127 19.912V40H99.9706V37.264C99.3466 38.152 98.4946 38.872 97.4146 39.424C96.3586 39.952 95.1826 40.216 93.8866 40.216C92.3506 40.216 90.9946 39.88 89.8186 39.208C88.6426 38.512 87.7306 37.516 87.0826 36.22C86.4346 34.924 86.1106 33.4 86.1106 31.648V19.912H92.2306V30.82C92.2306 32.164 92.5786 33.208 93.2746 33.952C93.9706 34.696 94.9066 35.068 96.0826 35.068C97.2826 35.068 98.2306 34.696 98.9266 33.952C99.6226 33.208 99.9706 32.164 99.9706 30.82V19.912H106.127ZM116.704 23.26C117.424 22.156 118.324 21.292 119.404 20.668C120.484 20.02 121.684 19.696 123.004 19.696V26.212H121.312C119.776 26.212 118.624 26.548 117.856 27.22C117.088 27.868 116.704 29.02 116.704 30.676V40H110.548V19.912H116.704V23.26ZM149.74 18.328L140.704 40H134.404L143.548 19.012H132.352V13.756H149.74V18.328ZM152.229 26.5C152.229 22.372 153.021 19.12 154.605 16.744C156.213 14.368 158.793 13.18 162.345 13.18C165.897 13.18 168.465 14.368 170.049 16.744C171.657 19.12 172.461 22.372 172.461 26.5C172.461 30.676 171.657 33.952 170.049 36.328C168.465 38.704 165.897 39.892 162.345 39.892C158.793 39.892 156.213 38.704 154.605 36.328C153.021 33.952 152.229 30.676 152.229 26.5ZM166.413 26.5C166.413 24.076 166.149 22.216 165.621 20.92C165.093 19.6 164.001 18.94 162.345 18.94C160.689 18.94 159.597 19.6 159.069 20.92C158.541 22.216 158.277 24.076 158.277 26.5C158.277 28.132 158.373 29.488 158.565 30.568C158.757 31.624 159.141 32.488 159.717 33.16C160.317 33.808 161.193 34.132 162.345 34.132C163.497 34.132 164.361 33.808 164.937 33.16C165.537 32.488 165.933 31.624 166.125 30.568C166.317 29.488 166.413 28.132 166.413 26.5ZM175.714 26.5C175.714 22.372 176.506 19.12 178.09 16.744C179.698 14.368 182.278 13.18 185.83 13.18C189.382 13.18 191.95 14.368 193.534 16.744C195.142 19.12 195.946 22.372 195.946 26.5C195.946 30.676 195.142 33.952 193.534 36.328C191.95 38.704 189.382 39.892 185.83 39.892C182.278 39.892 179.698 38.704 178.09 36.328C176.506 33.952 175.714 30.676 175.714 26.5ZM189.898 26.5C189.898 24.076 189.634 22.216 189.106 20.92C188.578 19.6 187.486 18.94 185.83 18.94C184.174 18.94 183.082 19.6 182.554 20.92C182.026 22.216 181.762 24.076 181.762 26.5C181.762 28.132 181.858 29.488 182.05 30.568C182.242 31.624 182.626 32.488 183.202 33.16C183.802 33.808 184.678 34.132 185.83 34.132C186.982 34.132 187.846 33.808 188.422 33.16C189.022 32.488 189.418 31.624 189.61 30.568C189.802 29.488 189.898 28.132 189.898 26.5ZM218.062 30.172H211.798V36.58H205.966V30.172H199.702V24.664H205.966V18.22H211.798V24.664H218.062V30.172ZM246.82 22.72C246.365 21.88 245.705 21.244 244.841 20.812C244.001 20.356 243.005 20.128 241.853 20.128C239.861 20.128 238.265 20.788 237.064 22.108C235.865 23.404 235.265 25.144 235.265 27.328C235.265 29.656 235.889 31.48 237.137 32.8C238.409 34.096 240.149 34.744 242.357 34.744C243.869 34.744 245.141 34.36 246.173 33.592C247.229 32.824 247.997 31.72 248.477 30.28H240.665V25.744H254.057V31.468C253.601 33.004 252.821 34.432 251.717 35.752C250.637 37.072 249.257 38.14 247.577 38.956C245.897 39.772 244.001 40.18 241.889 40.18C239.393 40.18 237.161 39.64 235.193 38.56C233.249 37.456 231.725 35.932 230.621 33.988C229.541 32.044 229 29.824 229 27.328C229 24.832 229.541 22.612 230.621 20.668C231.725 18.7 233.249 17.176 235.193 16.096C237.137 14.992 239.357 14.44 241.853 14.44C244.877 14.44 247.421 15.172 249.485 16.636C251.573 18.1 252.953 20.128 253.625 22.72H246.82ZM286.086 14.728V40H279.93V24.844L274.278 40H269.31L263.622 24.808V40H257.466V14.728H264.738L271.83 32.224L278.85 14.728H286.086ZM306.245 35.536H296.813L295.301 40H288.857L298.001 14.728H305.129L314.273 40H307.757L306.245 35.536ZM304.661 30.784L301.529 21.532L298.433 30.784H304.661ZM335.236 14.728V19.66H328.54V40H322.384V19.66H315.688V14.728H335.236ZM354.127 40.288C352.375 40.288 350.815 39.988 349.447 39.388C348.079 38.788 346.999 37.972 346.207 36.94C345.415 35.884 344.971 34.708 344.875 33.412H350.959C351.031 34.108 351.355 34.672 351.931 35.104C352.507 35.536 353.215 35.752 354.055 35.752C354.823 35.752 355.411 35.608 355.819 35.32C356.251 35.008 356.467 34.612 356.467 34.132C356.467 33.556 356.167 33.136 355.567 32.872C354.967 32.584 353.995 32.272 352.651 31.936C351.211 31.6 350.011 31.252 349.051 30.892C348.091 30.508 347.263 29.92 346.567 29.128C345.871 28.312 345.523 27.22 345.523 25.852C345.523 24.7 345.835 23.656 346.459 22.72C347.107 21.76 348.043 21.004 349.267 20.452C350.515 19.9 351.991 19.624 353.695 19.624C356.215 19.624 358.195 20.248 359.635 21.496C361.099 22.744 361.939 24.4 362.155 26.464H356.467C356.371 25.768 356.059 25.216 355.531 24.808C355.027 24.4 354.355 24.196 353.515 24.196C352.795 24.196 352.243 24.34 351.859 24.628C351.475 24.892 351.283 25.264 351.283 25.744C351.283 26.32 351.583 26.752 352.183 27.04C352.807 27.328 353.767 27.616 355.063 27.904C356.551 28.288 357.763 28.672 358.699 29.056C359.635 29.416 360.451 30.016 361.147 30.856C361.867 31.672 362.239 32.776 362.263 34.168C362.263 35.344 361.927 36.4 361.255 37.336C360.607 38.248 359.659 38.968 358.411 39.496C357.187 40.024 355.759 40.288 354.127 40.288ZM364.805 29.956C364.805 27.868 365.225 26.044 366.065 24.484C366.929 22.924 368.117 21.724 369.629 20.884C371.165 20.044 372.917 19.624 374.885 19.624C377.405 19.624 379.505 20.284 381.185 21.604C382.889 22.924 384.005 24.784 384.533 27.184H377.981C377.429 25.648 376.361 24.88 374.777 24.88C373.649 24.88 372.749 25.324 372.077 26.212C371.405 27.076 371.069 28.324 371.069 29.956C371.069 31.588 371.405 32.848 372.077 33.736C372.749 34.6 373.649 35.032 374.777 35.032C376.361 35.032 377.429 34.264 377.981 32.728H384.533C384.005 35.08 382.889 36.928 381.185 38.272C379.481 39.616 377.381 40.288 374.885 40.288C372.917 40.288 371.165 39.868 369.629 39.028C368.117 38.188 366.929 36.988 366.065 35.428C365.225 33.868 364.805 32.044 364.805 29.956ZM396.97 40.288C395.002 40.288 393.226 39.868 391.642 39.028C390.082 38.188 388.846 36.988 387.934 35.428C387.046 33.868 386.602 32.044 386.602 29.956C386.602 27.892 387.058 26.08 387.97 24.52C388.882 22.936 390.13 21.724 391.714 20.884C393.298 20.044 395.074 19.624 397.042 19.624C399.01 19.624 400.786 20.044 402.37 20.884C403.954 21.724 405.202 22.936 406.114 24.52C407.026 26.08 407.482 27.892 407.482 29.956C407.482 32.02 407.014 33.844 406.078 35.428C405.166 36.988 403.906 38.188 402.298 39.028C400.714 39.868 398.938 40.288 396.97 40.288ZM396.97 34.96C398.146 34.96 399.142 34.528 399.958 33.664C400.798 32.8 401.218 31.564 401.218 29.956C401.218 28.348 400.81 27.112 399.994 26.248C399.202 25.384 398.218 24.952 397.042 24.952C395.842 24.952 394.846 25.384 394.054 26.248C393.262 27.088 392.866 28.324 392.866 29.956C392.866 31.564 393.25 32.8 394.018 33.664C394.81 34.528 395.794 34.96 396.97 34.96ZM416.904 23.26C417.624 22.156 418.524 21.292 419.604 20.668C420.684 20.02 421.884 19.696 423.204 19.696V26.212H421.512C419.976 26.212 418.824 26.548 418.056 27.22C417.288 27.868 416.904 29.02 416.904 30.676V40H410.748V19.912H416.904V23.26ZM445.082 29.632C445.082 30.208 445.046 30.808 444.974 31.432H431.042C431.138 32.68 431.534 33.64 432.23 34.312C432.95 34.96 433.826 35.284 434.858 35.284C436.394 35.284 437.462 34.636 438.062 33.34H444.614C444.278 34.66 443.666 35.848 442.778 36.904C441.914 37.96 440.822 38.788 439.502 39.388C438.182 39.988 436.706 40.288 435.074 40.288C433.106 40.288 431.354 39.868 429.818 39.028C428.282 38.188 427.082 36.988 426.218 35.428C425.354 33.868 424.922 32.044 424.922 29.956C424.922 27.868 425.342 26.044 426.182 24.484C427.046 22.924 428.246 21.724 429.782 20.884C431.318 20.044 433.082 19.624 435.074 19.624C437.018 19.624 438.746 20.032 440.258 20.848C441.77 21.664 442.946 22.828 443.786 24.34C444.65 25.852 445.082 27.616 445.082 29.632ZM438.782 28.012C438.782 26.956 438.422 26.116 437.702 25.492C436.982 24.868 436.082 24.556 435.002 24.556C433.97 24.556 433.094 24.856 432.374 25.456C431.678 26.056 431.246 26.908 431.078 28.012H438.782ZM464.131 40.288C462.379 40.288 460.819 39.988 459.451 39.388C458.083 38.788 457.003 37.972 456.211 36.94C455.419 35.884 454.975 34.708 454.879 33.412H460.963C461.035 34.108 461.359 34.672 461.935 35.104C462.511 35.536 463.219 35.752 464.059 35.752C464.827 35.752 465.415 35.608 465.823 35.32C466.255 35.008 466.471 34.612 466.471 34.132C466.471 33.556 466.171 33.136 465.571 32.872C464.971 32.584 463.999 32.272 462.655 31.936C461.215 31.6 460.015 31.252 459.055 30.892C458.095 30.508 457.267 29.92 456.571 29.128C455.875 28.312 455.527 27.22 455.527 25.852C455.527 24.7 455.839 23.656 456.463 22.72C457.111 21.76 458.047 21.004 459.271 20.452C460.519 19.9 461.995 19.624 463.699 19.624C466.219 19.624 468.199 20.248 469.639 21.496C471.103 22.744 471.943 24.4 472.159 26.464H466.471C466.375 25.768 466.063 25.216 465.535 24.808C465.031 24.4 464.359 24.196 463.519 24.196C462.799 24.196 462.247 24.34 461.863 24.628C461.479 24.892 461.287 25.264 461.287 25.744C461.287 26.32 461.587 26.752 462.187 27.04C462.811 27.328 463.771 27.616 465.067 27.904C466.555 28.288 467.767 28.672 468.703 29.056C469.639 29.416 470.455 30.016 471.151 30.856C471.871 31.672 472.243 32.776 472.267 34.168C472.267 35.344 471.931 36.4 471.259 37.336C470.611 38.248 469.663 38.968 468.415 39.496C467.191 40.024 465.763 40.288 464.131 40.288ZM495.869 19.912V40H489.713V37.264C489.089 38.152 488.237 38.872 487.157 39.424C486.101 39.952 484.925 40.216 483.629 40.216C482.093 40.216 480.737 39.88 479.561 39.208C478.385 38.512 477.473 37.516 476.825 36.22C476.177 34.924 475.853 33.4 475.853 31.648V19.912H481.973V30.82C481.973 32.164 482.321 33.208 483.017 33.952C483.713 34.696 484.649 35.068 485.825 35.068C487.025 35.068 487.973 34.696 488.669 33.952C489.365 33.208 489.713 32.164 489.713 30.82V19.912H495.869ZM510.371 25.024H507.059V40H500.903V25.024H498.671V19.912H500.903V19.336C500.903 16.864 501.611 14.992 503.027 13.72C504.443 12.424 506.519 11.776 509.255 11.776C509.711 11.776 510.047 11.788 510.263 11.812V17.032C509.087 16.96 508.259 17.128 507.779 17.536C507.299 17.944 507.059 18.676 507.059 19.732V19.912H510.371V25.024ZM523.343 25.024H520.031V40H513.875V25.024H511.643V19.912H513.875V19.336C513.875 16.864 514.583 14.992 515.999 13.72C517.415 12.424 519.491 11.776 522.227 11.776C522.683 11.776 523.019 11.788 523.235 11.812V17.032C522.059 16.96 521.231 17.128 520.751 17.536C520.271 17.944 520.031 18.676 520.031 19.732V19.912H523.343V25.024ZM529.332 17.824C528.252 17.824 527.364 17.512 526.668 16.888C525.996 16.24 525.66 15.448 525.66 14.512C525.66 13.552 525.996 12.76 526.668 12.136C527.364 11.488 528.252 11.164 529.332 11.164C530.388 11.164 531.252 11.488 531.924 12.136C532.62 12.76 532.968 13.552 532.968 14.512C532.968 15.448 532.62 16.24 531.924 16.888C531.252 17.512 530.388 17.824 529.332 17.824ZM532.392 19.912V40H526.236V19.912H532.392ZM535.629 29.956C535.629 27.868 536.049 26.044 536.889 24.484C537.753 22.924 538.941 21.724 540.453 20.884C541.989 20.044 543.741 19.624 545.709 19.624C548.229 19.624 550.329 20.284 552.009 21.604C553.713 22.924 554.829 24.784 555.357 27.184H548.805C548.253 25.648 547.185 24.88 545.601 24.88C544.473 24.88 543.573 25.324 542.901 26.212C542.229 27.076 541.893 28.324 541.893 29.956C541.893 31.588 542.229 32.848 542.901 33.736C543.573 34.6 544.473 35.032 545.601 35.032C547.185 35.032 548.253 34.264 548.805 32.728H555.357C554.829 35.08 553.713 36.928 552.009 38.272C550.305 39.616 548.205 40.288 545.709 40.288C543.741 40.288 541.989 39.868 540.453 39.028C538.941 38.188 537.753 36.988 536.889 35.428C536.049 33.868 535.629 32.044 535.629 29.956ZM561.746 17.824C560.666 17.824 559.778 17.512 559.082 16.888C558.41 16.24 558.074 15.448 558.074 14.512C558.074 13.552 558.41 12.76 559.082 12.136C559.778 11.488 560.666 11.164 561.746 11.164C562.802 11.164 563.666 11.488 564.338 12.136C565.034 12.76 565.382 13.552 565.382 14.512C565.382 15.448 565.034 16.24 564.338 16.888C563.666 17.512 562.802 17.824 561.746 17.824ZM564.806 19.912V40H558.65V19.912H564.806ZM588.203 29.632C588.203 30.208 588.167 30.808 588.095 31.432H574.163C574.259 32.68 574.655 33.64 575.351 34.312C576.071 34.96 576.947 35.284 577.979 35.284C579.515 35.284 580.583 34.636 581.183 33.34H587.735C587.399 34.66 586.787 35.848 585.899 36.904C585.035 37.96 583.943 38.788 582.623 39.388C581.303 39.988 579.827 40.288 578.195 40.288C576.227 40.288 574.475 39.868 572.939 39.028C571.403 38.188 570.203 36.988 569.339 35.428C568.475 33.868 568.043 32.044 568.043 29.956C568.043 27.868 568.463 26.044 569.303 24.484C570.167 22.924 571.367 21.724 572.903 20.884C574.439 20.044 576.203 19.624 578.195 19.624C580.139 19.624 581.867 20.032 583.379 20.848C584.891 21.664 586.067 22.828 586.907 24.34C587.771 25.852 588.203 27.616 588.203 29.632ZM581.903 28.012C581.903 26.956 581.543 26.116 580.823 25.492C580.103 24.868 579.203 24.556 578.123 24.556C577.091 24.556 576.215 24.856 575.495 25.456C574.799 26.056 574.367 26.908 574.199 28.012H581.903ZM603.691 19.696C606.043 19.696 607.915 20.464 609.307 22C610.723 23.512 611.431 25.6 611.431 28.264V40H605.311V29.092C605.311 27.748 604.963 26.704 604.267 25.96C603.571 25.216 602.635 24.844 601.459 24.844C600.283 24.844 599.347 25.216 598.651 25.96C597.955 26.704 597.607 27.748 597.607 29.092V40H591.451V19.912H597.607V22.576C598.231 21.688 599.071 20.992 600.127 20.488C601.183 19.96 602.371 19.696 603.691 19.696ZM626.905 34.78V40H623.773C621.541 40 619.801 39.46 618.553 38.38C617.305 37.276 616.681 35.488 616.681 33.016V25.024H614.233V19.912H616.681V15.016H622.837V19.912H626.869V25.024H622.837V33.088C622.837 33.688 622.981 34.12 623.269 34.384C623.557 34.648 624.037 34.78 624.709 34.78H626.905ZM649.158 34.78V40H646.026C643.794 40 642.054 39.46 640.806 38.38C639.558 37.276 638.934 35.488 638.934 33.016V25.024H636.486V19.912H638.934V15.016H645.09V19.912H649.122V25.024H645.09V33.088C645.09 33.688 645.234 34.12 645.522 34.384C645.81 34.648 646.29 34.78 646.962 34.78H649.158ZM661.731 40.288C659.763 40.288 657.987 39.868 656.403 39.028C654.843 38.188 653.607 36.988 652.695 35.428C651.807 33.868 651.363 32.044 651.363 29.956C651.363 27.892 651.819 26.08 652.731 24.52C653.643 22.936 654.891 21.724 656.475 20.884C658.059 20.044 659.835 19.624 661.803 19.624C663.771 19.624 665.547 20.044 667.131 20.884C668.715 21.724 669.963 22.936 670.875 24.52C671.787 26.08 672.243 27.892 672.243 29.956C672.243 32.02 671.775 33.844 670.839 35.428C669.927 36.988 668.667 38.188 667.059 39.028C665.475 39.868 663.699 40.288 661.731 40.288ZM661.731 34.96C662.907 34.96 663.903 34.528 664.719 33.664C665.559 32.8 665.979 31.564 665.979 29.956C665.979 28.348 665.571 27.112 664.755 26.248C663.963 25.384 662.979 24.952 661.803 24.952C660.603 24.952 659.607 25.384 658.815 26.248C658.023 27.088 657.627 28.324 657.627 29.956C657.627 31.564 658.011 32.8 658.779 33.664C659.571 34.528 660.555 34.96 661.731 34.96ZM689.294 23.26C690.014 22.156 690.914 21.292 691.994 20.668C693.074 20.02 694.274 19.696 695.594 19.696V26.212H693.902C692.366 26.212 691.214 26.548 690.446 27.22C689.678 27.868 689.294 29.02 689.294 30.676V40H683.138V19.912H689.294V23.26ZM717.473 29.632C717.473 30.208 717.437 30.808 717.365 31.432H703.433C703.529 32.68 703.925 33.64 704.621 34.312C705.341 34.96 706.217 35.284 707.249 35.284C708.785 35.284 709.853 34.636 710.453 33.34H717.005C716.669 34.66 716.057 35.848 715.169 36.904C714.305 37.96 713.213 38.788 711.893 39.388C710.573 39.988 709.097 40.288 707.465 40.288C705.497 40.288 703.745 39.868 702.209 39.028C700.673 38.188 699.473 36.988 698.609 35.428C697.745 33.868 697.313 32.044 697.313 29.956C697.313 27.868 697.733 26.044 698.573 24.484C699.437 22.924 700.637 21.724 702.173 20.884C703.709 20.044 705.473 19.624 707.465 19.624C709.409 19.624 711.137 20.032 712.649 20.848C714.161 21.664 715.337 22.828 716.177 24.34C717.041 25.852 717.473 27.616 717.473 29.632ZM711.173 28.012C711.173 26.956 710.813 26.116 710.093 25.492C709.373 24.868 708.473 24.556 707.393 24.556C706.361 24.556 705.485 24.856 704.765 25.456C704.069 26.056 703.637 26.908 703.469 28.012H711.173ZM719.496 29.92C719.496 27.856 719.88 26.044 720.648 24.484C721.44 22.924 722.508 21.724 723.852 20.884C725.196 20.044 726.696 19.624 728.352 19.624C729.768 19.624 731.004 19.912 732.06 20.488C733.14 21.064 733.968 21.82 734.544 22.756V19.912H740.7V40H734.544V37.156C733.944 38.092 733.104 38.848 732.024 39.424C730.968 40 729.732 40.288 728.316 40.288C726.684 40.288 725.196 39.868 723.852 39.028C722.508 38.164 721.44 36.952 720.648 35.392C719.88 33.808 719.496 31.984 719.496 29.92ZM734.544 29.956C734.544 28.42 734.112 27.208 733.248 26.32C732.408 25.432 731.376 24.988 730.152 24.988C728.928 24.988 727.884 25.432 727.02 26.32C726.18 27.184 725.76 28.384 725.76 29.92C725.76 31.456 726.18 32.68 727.02 33.592C727.884 34.48 728.928 34.924 730.152 34.924C731.376 34.924 732.408 34.48 733.248 33.592C734.112 32.704 734.544 31.492 734.544 29.956ZM743.93 29.956C743.93 27.868 744.35 26.044 745.19 24.484C746.054 22.924 747.242 21.724 748.754 20.884C750.29 20.044 752.042 19.624 754.01 19.624C756.53 19.624 758.63 20.284 760.31 21.604C762.014 22.924 763.13 24.784 763.658 27.184H757.106C756.554 25.648 755.486 24.88 753.902 24.88C752.774 24.88 751.874 25.324 751.202 26.212C750.53 27.076 750.194 28.324 750.194 29.956C750.194 31.588 750.53 32.848 751.202 33.736C751.874 34.6 752.774 35.032 753.902 35.032C755.486 35.032 756.554 34.264 757.106 32.728H763.658C763.13 35.08 762.014 36.928 760.31 38.272C758.606 39.616 756.506 40.288 754.01 40.288C752.042 40.288 750.29 39.868 748.754 39.028C747.242 38.188 746.054 36.988 745.19 35.428C744.35 33.868 743.93 32.044 743.93 29.956ZM779.299 19.696C781.603 19.696 783.451 20.464 784.843 22C786.235 23.512 786.931 25.6 786.931 28.264V40H780.811V29.092C780.811 27.748 780.463 26.704 779.767 25.96C779.071 25.216 778.135 24.844 776.959 24.844C775.783 24.844 774.847 25.216 774.151 25.96C773.455 26.704 773.107 27.748 773.107 29.092V40H766.951V13.36H773.107V22.612C773.731 21.724 774.583 21.016 775.663 20.488C776.743 19.96 777.955 19.696 779.299 19.696ZM819.357 19.912L806.757 49.54H800.133L804.741 39.316L796.569 19.912H803.445L808.089 32.476L812.697 19.912H819.357ZM830.728 40.288C828.76 40.288 826.984 39.868 825.4 39.028C823.84 38.188 822.604 36.988 821.692 35.428C820.804 33.868 820.36 32.044 820.36 29.956C820.36 27.892 820.816 26.08 821.728 24.52C822.64 22.936 823.888 21.724 825.472 20.884C827.056 20.044 828.832 19.624 830.8 19.624C832.768 19.624 834.544 20.044 836.128 20.884C837.712 21.724 838.96 22.936 839.872 24.52C840.784 26.08 841.24 27.892 841.24 29.956C841.24 32.02 840.772 33.844 839.836 35.428C838.924 36.988 837.664 38.188 836.056 39.028C834.472 39.868 832.696 40.288 830.728 40.288ZM830.728 34.96C831.904 34.96 832.9 34.528 833.716 33.664C834.556 32.8 834.976 31.564 834.976 29.956C834.976 28.348 834.568 27.112 833.752 26.248C832.96 25.384 831.976 24.952 830.8 24.952C829.6 24.952 828.604 25.384 827.812 26.248C827.02 27.088 826.624 28.324 826.624 29.956C826.624 31.564 827.008 32.8 827.776 33.664C828.568 34.528 829.552 34.96 830.728 34.96ZM864.341 19.912V40H858.185V37.264C857.561 38.152 856.709 38.872 855.629 39.424C854.573 39.952 853.397 40.216 852.101 40.216C850.565 40.216 849.209 39.88 848.033 39.208C846.857 38.512 845.945 37.516 845.297 36.22C844.649 34.924 844.325 33.4 844.325 31.648V19.912H850.445V30.82C850.445 32.164 850.793 33.208 851.489 33.952C852.185 34.696 853.121 35.068 854.297 35.068C855.497 35.068 856.445 34.696 857.141 33.952C857.837 33.208 858.185 32.164 858.185 30.82V19.912H864.341ZM874.919 23.26C875.639 22.156 876.539 21.292 877.619 20.668C878.699 20.02 879.899 19.696 881.219 19.696V26.212H879.527C877.991 26.212 876.839 26.548 876.071 27.22C875.303 27.868 874.919 29.02 874.919 30.676V40H868.763V19.912H874.919V23.26Z" fill="#656565"/>
<path d="M291.421 68.728C294.085 68.728 296.413 69.256 298.405 70.312C300.397 71.368 301.933 72.856 303.013 74.776C304.117 76.672 304.669 78.868 304.669 81.364C304.669 83.836 304.117 86.032 303.013 87.952C301.933 89.872 300.385 91.36 298.369 92.416C296.377 93.472 294.061 94 291.421 94H281.953V68.728H291.421ZM291.025 88.672C293.353 88.672 295.165 88.036 296.461 86.764C297.757 85.492 298.405 83.692 298.405 81.364C298.405 79.036 297.757 77.224 296.461 75.928C295.165 74.632 293.353 73.984 291.025 73.984H288.109V88.672H291.025ZM314.265 77.26C314.985 76.156 315.885 75.292 316.965 74.668C318.045 74.02 319.245 73.696 320.565 73.696V80.212H318.873C317.337 80.212 316.185 80.548 315.417 81.22C314.649 81.868 314.265 83.02 314.265 84.676V94H308.109V73.912H314.265V77.26ZM342.443 83.632C342.443 84.208 342.407 84.808 342.335 85.432H328.403C328.499 86.68 328.895 87.64 329.591 88.312C330.311 88.96 331.187 89.284 332.219 89.284C333.755 89.284 334.823 88.636 335.423 87.34H341.975C341.639 88.66 341.027 89.848 340.139 90.904C339.275 91.96 338.183 92.788 336.863 93.388C335.543 93.988 334.067 94.288 332.435 94.288C330.467 94.288 328.715 93.868 327.179 93.028C325.643 92.188 324.443 90.988 323.579 89.428C322.715 87.868 322.283 86.044 322.283 83.956C322.283 81.868 322.703 80.044 323.543 78.484C324.407 76.924 325.607 75.724 327.143 74.884C328.679 74.044 330.443 73.624 332.435 73.624C334.379 73.624 336.107 74.032 337.619 74.848C339.131 75.664 340.307 76.828 341.147 78.34C342.011 79.852 342.443 81.616 342.443 83.632ZM336.143 82.012C336.143 80.956 335.783 80.116 335.063 79.492C334.343 78.868 333.443 78.556 332.363 78.556C331.331 78.556 330.455 78.856 329.735 79.456C329.039 80.056 328.607 80.908 328.439 82.012H336.143ZM344.467 83.92C344.467 81.856 344.851 80.044 345.619 78.484C346.411 76.924 347.479 75.724 348.823 74.884C350.167 74.044 351.667 73.624 353.323 73.624C354.739 73.624 355.975 73.912 357.031 74.488C358.111 75.064 358.939 75.82 359.515 76.756V73.912H365.671V94H359.515V91.156C358.915 92.092 358.075 92.848 356.995 93.424C355.939 94 354.703 94.288 353.287 94.288C351.655 94.288 350.167 93.868 348.823 93.028C347.479 92.164 346.411 90.952 345.619 89.392C344.851 87.808 344.467 85.984 344.467 83.92ZM359.515 83.956C359.515 82.42 359.083 81.208 358.219 80.32C357.379 79.432 356.347 78.988 355.123 78.988C353.899 78.988 352.855 79.432 351.991 80.32C351.151 81.184 350.731 82.384 350.731 83.92C350.731 85.456 351.151 86.68 351.991 87.592C352.855 88.48 353.899 88.924 355.123 88.924C356.347 88.924 357.379 88.48 358.219 87.592C359.083 86.704 359.515 85.492 359.515 83.956ZM395.757 73.696C398.253 73.696 400.233 74.452 401.697 75.964C403.185 77.476 403.929 79.576 403.929 82.264V94H397.809V83.092C397.809 81.796 397.461 80.8 396.765 80.104C396.093 79.384 395.157 79.024 393.957 79.024C392.757 79.024 391.809 79.384 391.113 80.104C390.441 80.8 390.105 81.796 390.105 83.092V94H383.985V83.092C383.985 81.796 383.637 80.8 382.941 80.104C382.269 79.384 381.333 79.024 380.133 79.024C378.933 79.024 377.985 79.384 377.289 80.104C376.617 80.8 376.281 81.796 376.281 83.092V94H370.125V73.912H376.281V76.432C376.905 75.592 377.721 74.932 378.729 74.452C379.737 73.948 380.877 73.696 382.149 73.696C383.661 73.696 385.005 74.02 386.181 74.668C387.381 75.316 388.317 76.24 388.989 77.44C389.685 76.336 390.633 75.436 391.833 74.74C393.033 74.044 394.341 73.696 395.757 73.696ZM431.163 81.04C432.627 81.352 433.803 82.084 434.691 83.236C435.579 84.364 436.023 85.66 436.023 87.124C436.023 89.236 435.279 90.916 433.791 92.164C432.327 93.388 430.275 94 427.635 94H415.863V68.728H427.239C429.807 68.728 431.811 69.316 433.251 70.492C434.715 71.668 435.447 73.264 435.447 75.28C435.447 76.768 435.051 78.004 434.259 78.988C433.491 79.972 432.459 80.656 431.163 81.04ZM422.019 78.952H426.051C427.059 78.952 427.827 78.736 428.355 78.304C428.907 77.848 429.183 77.188 429.183 76.324C429.183 75.46 428.907 74.8 428.355 74.344C427.827 73.888 427.059 73.66 426.051 73.66H422.019V78.952ZM426.555 89.032C427.587 89.032 428.379 88.804 428.931 88.348C429.507 87.868 429.795 87.184 429.795 86.296C429.795 85.408 429.495 84.712 428.895 84.208C428.319 83.704 427.515 83.452 426.483 83.452H422.019V89.032H426.555ZM455.073 78.808V83.92H439.233V78.808H455.073ZM469.62 94.252C467.772 94.252 466.116 93.952 464.652 93.352C463.188 92.752 462.012 91.864 461.124 90.688C460.26 89.512 459.804 88.096 459.756 86.44H466.308C466.404 87.376 466.728 88.096 467.28 88.6C467.832 89.08 468.552 89.32 469.44 89.32C470.352 89.32 471.072 89.116 471.6 88.708C472.128 88.276 472.392 87.688 472.392 86.944C472.392 86.32 472.176 85.804 471.744 85.396C471.336 84.988 470.82 84.652 470.196 84.388C469.596 84.124 468.732 83.824 467.604 83.488C465.972 82.984 464.64 82.48 463.608 81.976C462.576 81.472 461.688 80.728 460.944 79.744C460.2 78.76 459.828 77.476 459.828 75.892C459.828 73.54 460.68 71.704 462.384 70.384C464.088 69.04 466.308 68.368 469.044 68.368C471.828 68.368 474.072 69.04 475.776 70.384C477.48 71.704 478.392 73.552 478.512 75.928H471.852C471.804 75.112 471.504 74.476 470.952 74.02C470.4 73.54 469.692 73.3 468.828 73.3C468.084 73.3 467.484 73.504 467.028 73.912C466.572 74.296 466.344 74.86 466.344 75.604C466.344 76.42 466.728 77.056 467.496 77.512C468.264 77.968 469.464 78.46 471.096 78.988C472.728 79.54 474.048 80.068 475.056 80.572C476.088 81.076 476.976 81.808 477.72 82.768C478.464 83.728 478.836 84.964 478.836 86.476C478.836 87.916 478.464 89.224 477.72 90.4C477 91.576 475.944 92.512 474.552 93.208C473.16 93.904 471.516 94.252 469.62 94.252ZM481.401 83.956C481.401 81.868 481.821 80.044 482.661 78.484C483.525 76.924 484.713 75.724 486.225 74.884C487.761 74.044 489.513 73.624 491.481 73.624C494.001 73.624 496.101 74.284 497.781 75.604C499.485 76.924 500.601 78.784 501.129 81.184H494.577C494.025 79.648 492.957 78.88 491.373 78.88C490.245 78.88 489.345 79.324 488.673 80.212C488.001 81.076 487.665 82.324 487.665 83.956C487.665 85.588 488.001 86.848 488.673 87.736C489.345 88.6 490.245 89.032 491.373 89.032C492.957 89.032 494.025 88.264 494.577 86.728H501.129C500.601 89.08 499.485 90.928 497.781 92.272C496.077 93.616 493.977 94.288 491.481 94.288C489.513 94.288 487.761 93.868 486.225 93.028C484.713 92.188 483.525 90.988 482.661 89.428C481.821 87.868 481.401 86.044 481.401 83.956ZM516.769 73.696C519.073 73.696 520.921 74.464 522.313 76C523.705 77.512 524.401 79.6 524.401 82.264V94H518.281V83.092C518.281 81.748 517.933 80.704 517.237 79.96C516.541 79.216 515.605 78.844 514.429 78.844C513.253 78.844 512.317 79.216 511.621 79.96C510.925 80.704 510.577 81.748 510.577 83.092V94H504.421V67.36H510.577V76.612C511.201 75.724 512.053 75.016 513.133 74.488C514.213 73.96 515.425 73.696 516.769 73.696ZM537.823 94.288C535.855 94.288 534.079 93.868 532.495 93.028C530.935 92.188 529.699 90.988 528.787 89.428C527.899 87.868 527.455 86.044 527.455 83.956C527.455 81.892 527.911 80.08 528.823 78.52C529.735 76.936 530.983 75.724 532.567 74.884C534.151 74.044 535.927 73.624 537.895 73.624C539.863 73.624 541.639 74.044 543.223 74.884C544.807 75.724 546.055 76.936 546.967 78.52C547.879 80.08 548.335 81.892 548.335 83.956C548.335 86.02 547.867 87.844 546.931 89.428C546.019 90.988 544.759 92.188 543.151 93.028C541.567 93.868 539.791 94.288 537.823 94.288ZM537.823 88.96C538.999 88.96 539.995 88.528 540.811 87.664C541.651 86.8 542.071 85.564 542.071 83.956C542.071 82.348 541.663 81.112 540.847 80.248C540.055 79.384 539.071 78.952 537.895 78.952C536.695 78.952 535.699 79.384 534.907 80.248C534.115 81.088 533.719 82.324 533.719 83.956C533.719 85.564 534.103 86.8 534.871 87.664C535.663 88.528 536.647 88.96 537.823 88.96ZM560.745 94.288C558.777 94.288 557.001 93.868 555.417 93.028C553.857 92.188 552.621 90.988 551.709 89.428C550.821 87.868 550.377 86.044 550.377 83.956C550.377 81.892 550.833 80.08 551.745 78.52C552.657 76.936 553.905 75.724 555.489 74.884C557.073 74.044 558.849 73.624 560.817 73.624C562.785 73.624 564.561 74.044 566.145 74.884C567.729 75.724 568.977 76.936 569.889 78.52C570.801 80.08 571.257 81.892 571.257 83.956C571.257 86.02 570.789 87.844 569.853 89.428C568.941 90.988 567.681 92.188 566.073 93.028C564.489 93.868 562.713 94.288 560.745 94.288ZM560.745 88.96C561.921 88.96 562.917 88.528 563.733 87.664C564.573 86.8 564.993 85.564 564.993 83.956C564.993 82.348 564.585 81.112 563.769 80.248C562.977 79.384 561.993 78.952 560.817 78.952C559.617 78.952 558.621 79.384 557.829 80.248C557.037 81.088 556.641 82.324 556.641 83.956C556.641 85.564 557.025 86.8 557.793 87.664C558.585 88.528 559.569 88.96 560.745 88.96ZM580.679 67.36V94H574.523V67.36H580.679ZM592.52 67.324C595.088 67.324 597.14 67.996 598.676 69.34C600.236 70.684 601.016 72.58 601.016 75.028C601.016 77.284 600.272 79.048 598.784 80.32C597.32 81.568 595.376 82.204 592.952 82.228L592.772 84.928H587.372L587.192 78.232H589.352C591.2 78.232 592.604 78.004 593.564 77.548C594.548 77.092 595.04 76.264 595.04 75.064C595.04 74.224 594.812 73.564 594.356 73.084C593.9 72.604 593.264 72.364 592.448 72.364C591.584 72.364 590.912 72.616 590.432 73.12C589.952 73.6 589.712 74.26 589.712 75.1H583.916C583.868 73.636 584.168 72.316 584.816 71.14C585.488 69.964 586.472 69.04 587.768 68.368C589.088 67.672 590.672 67.324 592.52 67.324ZM590.144 94.288C589.064 94.288 588.176 93.976 587.48 93.352C586.808 92.704 586.472 91.912 586.472 90.976C586.472 90.016 586.808 89.212 587.48 88.564C588.176 87.916 589.064 87.592 590.144 87.592C591.2 87.592 592.064 87.916 592.736 88.564C593.432 89.212 593.78 90.016 593.78 90.976C593.78 91.912 593.432 92.704 592.736 93.352C592.064 93.976 591.2 94.288 590.144 94.288Z" fill="white"/>
<defs>
<filter id="filter0_d_47_11" x="263" y="57" width="355" height="59" filterUnits="userSpaceOnUse" color-interpolation-filters="sRGB">
<feFlood flood-opacity="0" result="BackgroundImageFix"/>
<feColorMatrix in="SourceAlpha" type="matrix" values="0 0 0 0 0 0 0 0 0 0 0 0 0 0 0 0 0 0 127 0" result="hardAlpha"/>
<feOffset dy="4"/>
<feGaussianBlur stdDeviation="2"/>
<feComposite in2="hardAlpha" operator="out"/>
<feColorMatrix type="matrix" values="0 0 0 0 0 0 0 0 0 0 0 0 0 0 0 0 0 0 0.25 0"/>
<feBlend mode="normal" in2="BackgroundImageFix" result="effect1_dropShadow_47_11"/>
<feBlend mode="normal" in="SourceGraphic" in2="effect1_dropShadow_47_11" result="shape"/>
</filter>
</defs>
</svg>
