<svg width="816" height="53" viewBox="0 0 816 53" fill="none" xmlns="http://www.w3.org/2000/svg">
<path d="M26.216 5.304V11.88H17.288V39H9.08V11.88H0.152V5.304H26.216ZM46.7994 11.928C49.8714 11.928 52.3354 12.952 54.1914 15C56.0474 17.016 56.9754 19.8 56.9754 23.352V39H48.8154V24.456C48.8154 22.664 48.3514 21.272 47.4234 20.28C46.4954 19.288 45.2474 18.792 43.6794 18.792C42.1114 18.792 40.8634 19.288 39.9354 20.28C39.0074 21.272 38.5434 22.664 38.5434 24.456V39H30.3354V3.48H38.5434V15.816C39.3754 14.632 40.5114 13.688 41.9514 12.984C43.3914 12.28 45.0074 11.928 46.7994 11.928ZM61.0471 25.56C61.0471 22.808 61.5591 20.392 62.5831 18.312C63.6391 16.232 65.0631 14.632 66.8551 13.512C68.6471 12.392 70.6471 11.832 72.8551 11.832C74.7431 11.832 76.3911 12.216 77.7991 12.984C79.2391 13.752 80.3431 14.76 81.1111 16.008V12.216H89.3191V39H81.1111V35.208C80.3111 36.456 79.1911 37.464 77.7511 38.232C76.3431 39 74.6951 39.384 72.8071 39.384C70.6311 39.384 68.6471 38.824 66.8551 37.704C65.0631 36.552 63.6391 34.936 62.5831 32.856C61.5591 30.744 61.0471 28.312 61.0471 25.56ZM81.1111 25.608C81.1111 23.56 80.5351 21.944 79.3831 20.76C78.2631 19.576 76.8871 18.984 75.2551 18.984C73.6231 18.984 72.2311 19.576 71.0791 20.76C69.9591 21.912 69.3991 23.512 69.3991 25.56C69.3991 27.608 69.9591 29.24 71.0791 30.456C72.2311 31.64 73.6231 32.232 75.2551 32.232C76.8871 32.232 78.2631 31.64 79.3831 30.456C80.5351 29.272 81.1111 27.656 81.1111 25.608ZM111.577 11.928C114.713 11.928 117.209 12.952 119.065 15C120.953 17.016 121.897 19.8 121.897 23.352V39H113.737V24.456C113.737 22.664 113.273 21.272 112.345 20.28C111.417 19.288 110.169 18.792 108.601 18.792C107.033 18.792 105.785 19.288 104.857 20.28C103.929 21.272 103.465 22.664 103.465 24.456V39H95.2573V12.216H103.465V15.768C104.297 14.584 105.417 13.656 106.825 12.984C108.233 12.28 109.817 11.928 111.577 11.928ZM143.969 39L135.809 27.768V39H127.601V3.48H135.809V23.112L143.921 12.216H154.049L142.913 25.656L154.145 39H143.969ZM196.341 5.304L184.677 27.864V39H176.469V27.864L164.805 5.304H174.117L180.645 19.416L187.125 5.304H196.341ZM211.84 39.384C209.216 39.384 206.848 38.824 204.736 37.704C202.656 36.584 201.008 34.984 199.792 32.904C198.608 30.824 198.016 28.392 198.016 25.608C198.016 22.856 198.624 20.44 199.84 18.36C201.056 16.248 202.72 14.632 204.832 13.512C206.944 12.392 209.312 11.832 211.936 11.832C214.56 11.832 216.928 12.392 219.04 13.512C221.152 14.632 222.816 16.248 224.032 18.36C225.248 20.44 225.856 22.856 225.856 25.608C225.856 28.36 225.232 30.792 223.984 32.904C222.768 34.984 221.088 36.584 218.944 37.704C216.832 38.824 214.464 39.384 211.84 39.384ZM211.84 32.28C213.408 32.28 214.736 31.704 215.824 30.552C216.944 29.4 217.504 27.752 217.504 25.608C217.504 23.464 216.96 21.816 215.872 20.664C214.816 19.512 213.504 18.936 211.936 18.936C210.336 18.936 209.008 19.512 207.952 20.664C206.896 21.784 206.368 23.432 206.368 25.608C206.368 27.752 206.88 29.4 207.904 30.552C208.96 31.704 210.272 32.28 211.84 32.28ZM256.658 12.216V39H248.45V35.352C247.618 36.536 246.482 37.496 245.042 38.232C243.634 38.936 242.066 39.288 240.338 39.288C238.29 39.288 236.482 38.84 234.914 37.944C233.346 37.016 232.13 35.688 231.266 33.96C230.402 32.232 229.97 30.2 229.97 27.864V12.216H238.13V26.76C238.13 28.552 238.594 29.944 239.522 30.936C240.45 31.928 241.698 32.424 243.266 32.424C244.866 32.424 246.13 31.928 247.058 30.936C247.986 29.944 248.45 28.552 248.45 26.76V12.216H256.658ZM286.166 19.032H281.75V39H273.542V19.032H270.566V12.216H273.542V11.448C273.542 8.152 274.486 5.656 276.374 3.96C278.262 2.232 281.03 1.368 284.678 1.368C285.286 1.368 285.734 1.384 286.022 1.416V8.376C284.454 8.28 283.35 8.504 282.71 9.048C282.07 9.592 281.75 10.568 281.75 11.976V12.216H286.166V19.032ZM302.215 39.384C299.591 39.384 297.223 38.824 295.111 37.704C293.031 36.584 291.383 34.984 290.167 32.904C288.983 30.824 288.391 28.392 288.391 25.608C288.391 22.856 288.999 20.44 290.215 18.36C291.431 16.248 293.095 14.632 295.207 13.512C297.319 12.392 299.687 11.832 302.311 11.832C304.935 11.832 307.303 12.392 309.415 13.512C311.527 14.632 313.191 16.248 314.407 18.36C315.623 20.44 316.231 22.856 316.231 25.608C316.231 28.36 315.607 30.792 314.359 32.904C313.143 34.984 311.463 36.584 309.319 37.704C307.207 38.824 304.839 39.384 302.215 39.384ZM302.215 32.28C303.783 32.28 305.111 31.704 306.199 30.552C307.319 29.4 307.879 27.752 307.879 25.608C307.879 23.464 307.335 21.816 306.247 20.664C305.191 19.512 303.879 18.936 302.311 18.936C300.711 18.936 299.383 19.512 298.327 20.664C297.271 21.784 296.743 23.432 296.743 25.608C296.743 27.752 297.255 29.4 298.279 30.552C299.335 31.704 300.647 32.28 302.215 32.28ZM328.793 16.68C329.753 15.208 330.953 14.056 332.393 13.224C333.833 12.36 335.433 11.928 337.193 11.928V20.616H334.937C332.889 20.616 331.353 21.064 330.329 21.96C329.305 22.824 328.793 24.36 328.793 26.568V39H320.585V12.216H328.793V16.68ZM364.729 19.032H360.312V39H352.105V19.032H349.129V12.216H352.105V11.448C352.105 8.152 353.049 5.656 354.937 3.96C356.825 2.232 359.593 1.368 363.241 1.368C363.849 1.368 364.297 1.384 364.585 1.416V8.376C363.017 8.28 361.913 8.504 361.273 9.048C360.633 9.592 360.312 10.568 360.312 11.976V12.216H364.729V19.032ZM372.713 9.432C371.273 9.432 370.089 9.016 369.161 8.184C368.265 7.32 367.817 6.264 367.817 5.016C367.817 3.736 368.265 2.68 369.161 1.848C370.089 0.983997 371.273 0.551997 372.713 0.551997C374.121 0.551997 375.273 0.983997 376.169 1.848C377.097 2.68 377.561 3.736 377.561 5.016C377.561 6.264 377.097 7.32 376.169 8.184C375.273 9.016 374.121 9.432 372.713 9.432ZM376.793 12.216V39H368.585V12.216H376.793ZM390.95 3.48V39H382.742V3.48H390.95ZM405.106 3.48V39H396.898V3.48H405.106ZM415.182 9.432C413.742 9.432 412.558 9.016 411.63 8.184C410.734 7.32 410.286 6.264 410.286 5.016C410.286 3.736 410.734 2.68 411.63 1.848C412.558 0.983997 413.742 0.551997 415.182 0.551997C416.59 0.551997 417.742 0.983997 418.638 1.848C419.566 2.68 420.03 3.736 420.03 5.016C420.03 6.264 419.566 7.32 418.638 8.184C417.742 9.016 416.59 9.432 415.182 9.432ZM419.262 12.216V39H411.054V12.216H419.262ZM441.53 11.928C444.666 11.928 447.162 12.952 449.018 15C450.906 17.016 451.85 19.8 451.85 23.352V39H443.69V24.456C443.69 22.664 443.226 21.272 442.298 20.28C441.37 19.288 440.122 18.792 438.554 18.792C436.986 18.792 435.738 19.288 434.81 20.28C433.882 21.272 433.418 22.664 433.418 24.456V39H425.21V12.216H433.418V15.768C434.25 14.584 435.37 13.656 436.778 12.984C438.186 12.28 439.77 11.928 441.53 11.928ZM467.73 11.832C469.618 11.832 471.266 12.216 472.674 12.984C474.114 13.752 475.218 14.76 475.986 16.008V12.216H484.194V38.952C484.194 41.416 483.698 43.64 482.706 45.624C481.746 47.64 480.258 49.24 478.242 50.424C476.258 51.608 473.778 52.2 470.802 52.2C466.834 52.2 463.618 51.256 461.154 49.368C458.69 47.512 457.282 44.984 456.93 41.784H465.042C465.298 42.808 465.906 43.608 466.866 44.184C467.826 44.792 469.01 45.096 470.418 45.096C472.114 45.096 473.458 44.6 474.45 43.608C475.474 42.648 475.986 41.096 475.986 38.952V35.16C475.186 36.408 474.082 37.432 472.674 38.232C471.266 39 469.618 39.384 467.73 39.384C465.522 39.384 463.522 38.824 461.73 37.704C459.938 36.552 458.514 34.936 457.458 32.856C456.434 30.744 455.922 28.312 455.922 25.56C455.922 22.808 456.434 20.392 457.458 18.312C458.514 16.232 459.938 14.632 461.73 13.512C463.522 12.392 465.522 11.832 467.73 11.832ZM475.986 25.608C475.986 23.56 475.41 21.944 474.258 20.76C473.138 19.576 471.762 18.984 470.13 18.984C468.498 18.984 467.106 19.576 465.954 20.76C464.834 21.912 464.274 23.512 464.274 25.56C464.274 27.608 464.834 29.24 465.954 30.456C467.106 31.64 468.498 32.232 470.13 32.232C471.762 32.232 473.138 31.64 474.258 30.456C475.41 29.272 475.986 27.656 475.986 25.608ZM512.496 39.384C509.872 39.384 507.504 38.824 505.392 37.704C503.312 36.584 501.664 34.984 500.448 32.904C499.264 30.824 498.672 28.392 498.672 25.608C498.672 22.856 499.28 20.44 500.496 18.36C501.712 16.248 503.376 14.632 505.488 13.512C507.6 12.392 509.968 11.832 512.592 11.832C515.216 11.832 517.584 12.392 519.696 13.512C521.808 14.632 523.472 16.248 524.688 18.36C525.904 20.44 526.512 22.856 526.512 25.608C526.512 28.36 525.888 30.792 524.64 32.904C523.424 34.984 521.744 36.584 519.6 37.704C517.488 38.824 515.12 39.384 512.496 39.384ZM512.496 32.28C514.064 32.28 515.392 31.704 516.48 30.552C517.6 29.4 518.16 27.752 518.16 25.608C518.16 23.464 517.616 21.816 516.528 20.664C515.472 19.512 514.16 18.936 512.592 18.936C510.992 18.936 509.664 19.512 508.608 20.664C507.552 21.784 507.024 23.432 507.024 25.608C507.024 27.752 507.536 29.4 508.56 30.552C509.616 31.704 510.928 32.28 512.496 32.28ZM557.315 12.216V39H549.107V35.352C548.275 36.536 547.139 37.496 545.699 38.232C544.291 38.936 542.723 39.288 540.995 39.288C538.947 39.288 537.139 38.84 535.571 37.944C534.003 37.016 532.787 35.688 531.923 33.96C531.059 32.232 530.627 30.2 530.627 27.864V12.216H538.787V26.76C538.787 28.552 539.251 29.944 540.179 30.936C541.107 31.928 542.355 32.424 543.923 32.424C545.523 32.424 546.787 31.928 547.715 30.936C548.643 29.944 549.107 28.552 549.107 26.76V12.216H557.315ZM578.138 32.04V39H573.962C570.986 39 568.666 38.28 567.002 36.84C565.338 35.368 564.506 32.984 564.506 29.688V19.032H561.242V12.216H564.506V5.688H572.714V12.216H578.09V19.032H572.714V29.784C572.714 30.584 572.906 31.16 573.29 31.512C573.674 31.864 574.314 32.04 575.21 32.04H578.138ZM607.81 32.04V39H603.634C600.658 39 598.338 38.28 596.674 36.84C595.01 35.368 594.178 32.984 594.178 29.688V19.032H590.914V12.216H594.178V5.688H602.386V12.216H607.762V19.032H602.386V29.784C602.386 30.584 602.578 31.16 602.962 31.512C603.346 31.864 603.986 32.04 604.882 32.04H607.81ZM628.846 11.928C631.918 11.928 634.382 12.952 636.238 15C638.094 17.016 639.022 19.8 639.022 23.352V39H630.862V24.456C630.862 22.664 630.398 21.272 629.47 20.28C628.542 19.288 627.294 18.792 625.726 18.792C624.158 18.792 622.91 19.288 621.982 20.28C621.054 21.272 620.59 22.664 620.59 24.456V39H612.382V3.48H620.59V15.816C621.422 14.632 622.558 13.688 623.998 12.984C625.438 12.28 627.054 11.928 628.846 11.928ZM669.974 25.176C669.974 25.944 669.926 26.744 669.83 27.576H651.254C651.382 29.24 651.91 30.52 652.838 31.416C653.798 32.28 654.966 32.712 656.342 32.712C658.39 32.712 659.814 31.848 660.614 30.12H669.35C668.902 31.88 668.086 33.464 666.902 34.872C665.75 36.28 664.294 37.384 662.534 38.184C660.774 38.984 658.806 39.384 656.63 39.384C654.006 39.384 651.67 38.824 649.622 37.704C647.574 36.584 645.974 34.984 644.822 32.904C643.67 30.824 643.094 28.392 643.094 25.608C643.094 22.824 643.654 20.392 644.774 18.312C645.926 16.232 647.526 14.632 649.574 13.512C651.622 12.392 653.974 11.832 656.63 11.832C659.222 11.832 661.526 12.376 663.542 13.464C665.558 14.552 667.126 16.104 668.246 18.12C669.398 20.136 669.974 22.488 669.974 25.176ZM661.574 23.016C661.574 21.608 661.094 20.488 660.134 19.656C659.174 18.824 657.974 18.408 656.534 18.408C655.158 18.408 653.99 18.808 653.03 19.608C652.102 20.408 651.526 21.544 651.302 23.016H661.574ZM697.916 19.032H693.5V39H685.292V19.032H682.316V12.216H685.292V11.448C685.292 8.152 686.236 5.656 688.124 3.96C690.012 2.232 692.78 1.368 696.428 1.368C697.036 1.368 697.484 1.384 697.772 1.416V8.376C696.204 8.28 695.1 8.504 694.46 9.048C693.82 9.592 693.5 10.568 693.5 11.976V12.216H697.916V19.032ZM713.965 39.384C711.341 39.384 708.973 38.824 706.861 37.704C704.781 36.584 703.133 34.984 701.917 32.904C700.733 30.824 700.141 28.392 700.141 25.608C700.141 22.856 700.749 20.44 701.965 18.36C703.181 16.248 704.845 14.632 706.957 13.512C709.069 12.392 711.437 11.832 714.061 11.832C716.685 11.832 719.053 12.392 721.165 13.512C723.277 14.632 724.941 16.248 726.157 18.36C727.373 20.44 727.981 22.856 727.981 25.608C727.981 28.36 727.357 30.792 726.109 32.904C724.893 34.984 723.213 36.584 721.069 37.704C718.957 38.824 716.589 39.384 713.965 39.384ZM713.965 32.28C715.533 32.28 716.861 31.704 717.949 30.552C719.069 29.4 719.629 27.752 719.629 25.608C719.629 23.464 719.085 21.816 717.997 20.664C716.941 19.512 715.629 18.936 714.061 18.936C712.461 18.936 711.133 19.512 710.077 20.664C709.021 21.784 708.493 23.432 708.493 25.608C708.493 27.752 709.005 29.4 710.029 30.552C711.085 31.704 712.397 32.28 713.965 32.28ZM740.543 16.68C741.503 15.208 742.703 14.056 744.143 13.224C745.583 12.36 747.183 11.928 748.943 11.928V20.616H746.687C744.639 20.616 743.103 21.064 742.079 21.96C741.055 22.824 740.543 24.36 740.543 26.568V39H732.335V12.216H740.543V16.68ZM787.043 11.928C790.371 11.928 793.011 12.936 794.963 14.952C796.947 16.968 797.939 19.768 797.939 23.352V39H789.779V24.456C789.779 22.728 789.315 21.4 788.387 20.472C787.491 19.512 786.243 19.032 784.643 19.032C783.043 19.032 781.779 19.512 780.851 20.472C779.955 21.4 779.507 22.728 779.507 24.456V39H771.347V24.456C771.347 22.728 770.883 21.4 769.955 20.472C769.059 19.512 767.811 19.032 766.211 19.032C764.611 19.032 763.347 19.512 762.419 20.472C761.523 21.4 761.075 22.728 761.075 24.456V39H752.867V12.216H761.075V15.576C761.907 14.456 762.995 13.576 764.339 12.936C765.683 12.264 767.203 11.928 768.899 11.928C770.915 11.928 772.707 12.36 774.275 13.224C775.875 14.088 777.123 15.32 778.019 16.92C778.947 15.448 780.211 14.248 781.811 13.32C783.411 12.392 785.155 11.928 787.043 11.928ZM814.479 4.104L813.519 27.096H806.559L805.599 4.104H814.479ZM810.159 39.384C808.719 39.384 807.535 38.968 806.607 38.136C805.711 37.272 805.263 36.216 805.263 34.968C805.263 33.688 805.711 32.616 806.607 31.752C807.535 30.888 808.719 30.456 810.159 30.456C811.567 30.456 812.719 30.888 813.615 31.752C814.543 32.616 815.007 33.688 815.007 34.968C815.007 36.216 814.543 37.272 813.615 38.136C812.719 38.968 811.567 39.384 810.159 39.384Z" fill="#4F35F2"/>
</svg>
